<svg xmlns="http://www.w3.org/2000/svg" xmlns:xlink="http://www.w3.org/1999/xlink" version="1.0" x="0px" y="0px" width="2053.5px" height="521.4px" viewBox="0 0 2053.5 521.4" style="enable-background:new 0 0 2053.5 521.4;" xml:space="preserve">
<style type="text/css">
	.st0{display:none;fill:#E5E2E1;}
	.st1{display:none;fill:#DCDAD7;}
	.st2{display:none;fill:#CBC6BD;}
	.st3{fill:#DBDBDB;}
	.st4{fill:#BABABA;}
	.st5{fill:#A1A1A1;}
	.st6{fill:#E8E7E7;}
	.st7{fill:#EBEBEB;}
	.st8{fill:#06658D;}
	.st9{fill:#5D8B9F;}
	.st10{fill:#63B2D4;}
	.st11{display:none;fill:#69CADE;}
	.st12{fill:#7CD2EC;}
	.st13{fill:#78D7FF;}
</style>
<g id="Layer_1">
	<path class="st0" d="M-0.5,147c11.2-2.9,23-8.2,33.8-10.2c18.2-3.5,34.1-2.4,52.1,2.1c29.9,7.4,59.2-0.3,89.4,8.2   c6.7,1.9,14.3,5.5,21.2,6.1c7.6,0.7,12.4-3.7,19.5-4.7c4.8-0.6,8.3,2.1,12.8,2.3c7.7,0.3,14.2-3.2,21.2-6.2   c14.8-6.2,29.6-6.7,44.8-11.4c11.8-3.7,23.4-2.3,36.3-5.2c28.4-6.4,56.6-18.6,82.9-30.7c9.6-4.5,19.1-9.3,26.6-14.3   c12.5-8.4,27.1-11.5,40.3-18.4c11-5.8,17.6-7.9,29.8-9.1c15.6-1.5,31.7-2,46.9-6c22.7-6.1,44.2-13.7,68-7.6   c16.3,4.1,29.2,10.9,46.2,13c27.5,3.3,50.3,6.5,76.4,16.1c25.5,9.3,50.1,16.5,75.8,20.9c8.5,1.4,17.1,2.4,25.6,3.8   c11.7,1.9,19.5-2.4,30.6-4c13.8-2,27.9-3.4,41.8-5.5c23.4-3.5,48.1-0.4,69.2-12.7c11.5-6.7,24.4-18.5,37.4-21.8   c10.5-2.7,29.9,3.2,40.9,4.8c24.3,3.6,49.5,3.8,73.7,8c13.1,2.3,25.8,8.4,39.1,3.7c7.6-2.7,13.9-8.7,22.2-9.7   c7.9-1,15.7,2.7,23.4,2.7c10-0.1,21.8-2.8,31.7-1.8c5.6,0.6,11.4,4.5,17.1,5.7c7.9,1.7,16.2,1.6,24.2,3.1c25.6,5,50.5,16,76.8,16.4   c31,0.4,64.4,2.6,92.8-11.4c11.7-5.8,23.2-12.1,34.7-18.1c13.3-7,26.7-2.7,41-5.8c12.6-2.7,24.9-6.4,37.7-8.5   c16.9-2.7,31.1-6.3,47.4-11.3c4.1-1.3,9-2.1,13.3-2.8c6.5-1.1,12.6,0.6,19.5-0.1c10.3-1.1,19.9-7.4,30.2-9.6   c5.8-1.3,11.6-2.3,17.4-3.5c7.1-1.4,14.2-2.7,21.2-4.2c9.8-2.1,12.6,0.9,22.8,1.7c11.7,0.9,18.3-6.9,28.5-8.5   c3.9-0.6,8.1,1.3,12,2.5c10.3,3.2,19.2,6.5,29.9,5.8c8.2-0.5,13.2-1.7,21.5,0.5c6.1,1.6,11.5,4.9,17.1,6.2c14.3,3.2,28.5-5,43-0.5   c11.7,3.6,21.5,15.2,33.7,20.2c5.6,2.3,13,2.1,19,3.4c8.2,1.8,13.7,5.6,21.5,8.3c12.3,4.3,26.9,4.6,39.7,6.4   c10.4,1.5,28.8-0.7,32.2,8.6c2.6,7.1,0,20.1,0,27.6c0,17.1,0,34.1,0,51.2c0,113.4,0,226.9,0,340.3c0,113.1,0,226.1,0,339.2   c0,17.2,0,34.4,0,51.6c0,7.6,2.6,20.8,0,28c-2.4,6.5-3.7,4.3-12.7,4.3c-49.8,0-99.6,0-149.3,0c-92.7,0-185.5,0-278.2,0   c-119.1,0-238.2,0-357.4,0c-128.9,0-257.9,0-386.8,0c-121.7,0-243.4,0-365,0c-99.1,0-198.1,0-297.2,0c-59.3,0-118.6,0-177.9,0   c-4.2,0-25.4,3.1-28.7,0c-5.1-4.8-0.3-40.3-0.3-47.1c0-108.3,0-216.6,0-324.9c0-110.2,0-220.4,0-330.7   C-0.5,184.2-0.5,165.6-0.5,147z"/>
	<path class="st1" d="M2014.5,199c-10.1,1.6-19.5-3.4-29.8-2.1c-3.8,0.5-7.4,1.5-11.1,2.4c-11.6,2.8-23.2,6-34.7,8.9   c-23.3,5.8-43.5,10.5-67.4,9.4c-26.4-1.2-56-7.2-81.9-0.1c-35.2,9.5-70.1,11.7-106.4,13.7c-32.3,1.7-63.7,2.9-95.8,8.2   c-34.5,5.6-70.9,6-103.8,18c-14.6,5.3-24.2,11.7-39.2,8.4c-13.1-2.9-26.2-5.7-39.3-8.6c-18.7-4.1-37.5-7.4-56.3-11   c-17.7-3.4-35.2-7.2-52.8-11c-12.3-2.6-26.2-7.2-38.9-7c-16.4,0.3-27.4,14.3-44.1,13.1c-32.5-2.3-61.1-16.3-91.8-25.4   c-14.1-4.2-23.8-3.7-37.5,1.6c-11.8,4.5-25.7,5.8-38.2,9.3C984.3,243.9,922,258.4,860.5,275c-21.2,5.7-41.9-7.9-61.7-15.7   c-18.5-7.4-34.9-13.1-54.3-17.4c-18.2-4.1-36.7-5.8-54.9-10c-25.7-5.9-48.3-13.8-72.7-24.3c-8.1-3.5-17.2-9.4-25.9-11.4   c-15.5-3.6-30.8-2.9-46.5-8.9c-6.4-2.4-13.5-7.2-20.1-8.5c-6-1.2-4-0.1-10.5,0.2c-12.3,0.7-24.6,1.8-37.1,2   c-29.3,0.6-55.3,13-83.2-1.3c-13.4-6.9-31.4-14.1-46-17.9c-10.5-2.7-24-0.3-34.8,0.7c-16.4,1.5-31.3-4.5-47.7-3.2   c-17.6,1.4-33.2,11.4-47.6,20.8c-16.7,10.8-31.1,22.9-48.9,31.6c-23.1,11.3-45.8,25.6-71.4,30.2c-15.7,2.8-30.8,3.4-46.7,3.7   C36.3,245.7,11,246.4,1.3,260c-3,4.3-1.8,10.6-1.8,16.3c0,14.4,0,28.8,0,43.2c0,106.3,0,212.7,0,319c0,48.9,0,97.8,0,146.7   c0,14.4,0,28.8,0,43.2c0,3.6-1.4,13.1,1,15c2.8,2.2,16.5,0,19.9,0c18.3,0,36.6,0,54.9,0c162.2,0,324.5,0,486.7,0   c229.6,0,459.2,0,688.8,0c198.7,0,397.5,0,596.2,0c55.8,0,111.6,0,167.3,0c9.2,0,26.4,3.5,35,0c7.4-3.1,3.7-14.1,3.7-23.5   c0-171.3,0-342.7,0-514c0-37.3,0-74.7,0-112C2040.2,195.6,2027.3,197,2014.5,199z"/>
	<path class="st2" d="M0.5,357.6c59-16.5,118-32.8,177.2-48.2c21-5.5,43.3-14.1,65.2-12.7c30.9,1.9,60.6,0.8,91.5-1   c31-1.8,62.1-3.3,93.1-5.6c11.2-0.9,19.4-4.6,29.9-6.5c14.7-2.7,32.2-0.2,47.1-0.3c29.9-0.2,58.6-7.3,88.6-8.5   c18-0.7,32.6-1.7,50.2-5.4c14.2-3,29.7-2,44.3-2.2c14.9-0.2,29.5,0.1,44.3-2c19.3-2.7,37.2-9.1,56.2-12.2c24.6-4,49.5-3.6,74.3-4.4   c54.9-1.7,109.6-2.7,164.6-3c30.6-0.2,61.2-1.2,91.8-1.7c21.9-0.4,47.6,1.9,69.2-2.3c32-6.2,59.1-25.1,92.3-25.1   c18.5,0,36.1,5.5,54.8,4.4c17.5-1,35-6.7,52.4-7c11.4-0.2,22.2,1.1,33.6-0.8c15.8-2.6,31-6.2,47.1-7.1c30.2-1.8,60.3,1.9,90.1,6.2   c61.3,8.8,120.9,12.9,182.8,11.5c30.1-0.6,60,13.3,89.7,9.8c8.4-1,16.4-5.1,24.7-5.7c13.9-1,27.3,7.2,40.7,9.5   c16.6,2.8,33.7-1.2,50.4,0.4c16,1.5,32,3.7,48,5.6c19.8,2.3,38.8,1.1,58.4-1.8c0,102.4,0,204.8,0,307.1c0,61.6,0,123.3,0,184.9   c0,10.3,4.6,33.5,0,42.9c-2.5,5.2,1.6,0.9-3.6,3.2c-4.2,1.8-13.4,0-17.9,0c-10.5,0-20.9,0-31.4,0c-33.7,0-67.5,0-101.2,0   c-105.9,0-211.8,0-317.7,0c-137.7,0-275.3,0-413,0c-146,0-292,0-438,0c-129.5,0-258.9,0-388.4,0c-88.4,0-176.8,0-265.2,0   c-21.5,0-43,0-64.5,0c-16.2,0-11.7-2.6-11.7-20.2c0-123.2,0-246.3,0-369.5C0.5,379.1,0.5,368.3,0.5,357.6z"/>
	<path class="st3" d="M0,145.5c0,0,19-5,22-6s9-4.5,9-4.5s8,1,10.5,0s13.5-3.5,22.5-2.5s36,9,40,9s33.5-2.5,44.5-2   s44,11.5,49.5,12.5s16.5-4.5,18-5s3.5,0.5,3.5,0.5l3.5-0.5c0,0,6,3.5,10.5,2.5s29.5-12,29.5-12s4.5-1,10-1.5s13.5-4,20-4   s4-3.5,9.5-4s9.5,3,12,2.5s5.5-2.5,5.5-2.5l4,0.5c0,0,12.5-3.5,18.5-5s24-8,30-10s14-7.5,14-7.5s9.5-2,14-4S434,86.5,434,86.5   l2.5-4.5l4-0.5c0,0,14-8,18.5-9.5s22.5-8.5,24.5-10.5s12-6.5,12-6.5h8c0,0,12.5-2,19-2s12-1.5,12-1.5s6.5,0,17-2S581,38,606.5,38   s36.5,11,48,13s46.5,5.5,46.5,5.5s9.5,1,14.5,1.5s61.5,23,76,26s12.5,0.5,12.5,0.5s15,5.5,21.5,6s11,1,14.5,1.5s14.5,4,21.5,3   s14-5,17-5s12,0,17.5-0.5s25.5-5,25.5-5L961,81c0,0,13.5-1.5,19.5-3.5s41.5-25.5,48-27.5s24,3,24,3s16.5,1.5,21.5,2.5   s11.5,2.5,11.5,2.5l28,2.5c0,0,28.5,1.5,34,3S1157,68,1170,68s8.5,0,13-2s13.5-7.5,19-9s26.5,2.5,26.5,2.5l8-1.5c0,0,7,1.5,8.5,1.5   s15-2,15-2s10,4.5,15,5.5s18,2,24,3s61,16,68.5,16.5s58,0.5,70.5-1.5s12-0.5,21.5-4.5s43.5-22,43.5-22s8.5-5.5,10.5-5.5s6,1,8,1   s7-2.5,7-2.5s9,2,13.5,1s13.5-4,13.5-4s33.5-7.5,45-7.5s31-9.5,31-9.5l11.5-2l5.5-2.5c0,0,13.5,2.5,18.5,1.5s12.5-6.5,20-8   s17.5-3.5,17.5-3.5s19.5-4,25.5-5s10.5-3,10.5-3s12.5,5.8,23,4c9.3-1.6,21.5-9,21.5-9l6.5,1.5l21,7L1822,8l3.5,1c0,0,4.5-2,12-2   s8.5,2,12.5,3.5s9,1.5,9,1.5s1,3.3,5.5,3.5c7.8,0.3,10.5,1,17-0.5s13.5-2,13.5-2l6.5,1l12,2c0,0,2,4.5,4.5,6s7.5,2,12.5,5.5   s9.5,7.5,9.5,7.5s29,4.5,32,7s9.5,5.5,16,6.5s65.5,9.5,65.5,9.5v454H0V145.5z"/>
	<path class="st4" d="M2015,259.5c-6.5,1-13-1-19-2.5s-21,2.5-21,2.5s-68.5,18-79.5,19s-80-4-91.5-3.5s-21.5,7-44,10.5   s-96,7.5-123,8s-91.5,15.5-114.5,14.5c-14.4-0.6-43.4,11.7-66.8,20.5l-61-13.4l-70-13.3c0,0-57.3-13.3-68.7-13.3   c-11.3,0-25.3,12-33.3,13.3s-36-4-50-8s-54-18.7-54-18.7s-12-2.7-19.3-2.7s-14,5.3-19.3,7.3c-5.3,2-16,2-16,2s-31.3,10-49.3,12.7   c-18,2.7-78,22-89.3,25.3c-11.3,3.3-26.7,6-36,8c-9.3,2-37.3,10.7-40.7,10.7c-3.3,0-79.3-30.7-79.3-30.7l-38.7-8.7l-26-3.3   c0,0-26.7-6.7-36.7-8s-76.7-31.3-76.7-31.3s-10,1.3-27.3-2.7c-17.3-4-43.3-16.7-43.3-16.7s-4,3.3-10.7,2c-6.7-1.3-20,2-20,2   l-32,0.7c0,0-9.3,4-18.7,5.3c-9.3,1.3-22,0.7-28,0.7s-22.7-12.7-34-14.7c-11.3-2-31.3-12-31.3-12s-27.3,0.7-40,2.7   c-12.7,2-22-7.3-46.7-3.3c-24.7,4-74.7,44-74.7,44S126,293.2,118,297.2s-41.3,8.7-48.7,8.7c-7.3,0-22,0-36,0.7   C19.3,307.2,0,321.8,0,321.8V512l1-1h2052.5V366.5v-112C2053.5,254.5,2021.5,258.5,2015,259.5z"/>
	<path class="st5" d="M0,482.1c0,0,220.1-61.5,233.6-61.5c0,0,36.4,2.4,46.9,2.4s147-8.5,147-8.5L444,413l12-5l71.5-0.5   c0,0,11.5-2.5,16.5-3.5s50-5,50-5s23.5,1,31.5-0.5s21-6,21-6s39-1,43.5-1s26.5,0,30.5-0.5s36.5-5,41.5-6.5s13.5-5,18-6s31-4,31-4   l165-5l50,0.5l132-2.5l29.5-1.5c0,0,28.5-10,33.5-11.5s28-10,28-10s8.5-1,12.5-1s7-3.5,11-3s19,0.5,19,0.5s11,3.5,31.5,4.5   s61.5-7.5,61.5-7.5s23.3,2.6,38.5-1c80-19.2,137.3,5.5,232.7,10.8c23,1.3,67,0.7,94,0c26.7-0.7,58.2,13.5,80.7,10s18.6-6.8,30-5.3   c16,2,31,10,42,10c12.7,0,34-1.3,34-1.3s48.7,4.5,54.7,6s37.5,2.3,44,1.3s18.5-2.7,18.5-2.7V486H0V482.1z"/>
	<path class="st6" d="M0.7,148.5c14.5-0.6,23.6-2,33.3-13.3C22.6,139.2,11.6,143.3,0.7,148.5z"/>
	<path class="st6" d="M106,143.2c20.6-3.6,37.6-3.6,57.3,3.3C144.2,144.1,125.2,144.8,106,143.2z"/>
	<path class="st6" d="M196.7,154.5c10-2.5,18.4-6.7,28-2.7c3.7,1.6,5.8,1.9,10.1,3c5.3,1.3,7.6,3.6,7.9,9   c-8.8-1.8-16.4-2.7-25.3-3.3C210.2,160,204.1,156.4,196.7,154.5z"/>
	<path class="st7" d="M237.3,149.2c12.7-5.7,23.5-9.6,37.1-12.3c6.7-1.4,14-3.9,20.6-2.9c5.9,0.9,13,7.2,18.5,6.9   c7.6-0.5,8.8-7.7,14-11c5.7-3.7,15.4-5,21.8-7.1c8.1-2.6,16.8-4.5,24.6-8c4.5-2,7.8-5.7,12.2-7.8c13.7-6.6,30-9,43.3-16.9   c3.9-2.3,6.7-5.9,10.6-8.1c5.6-3.2,12.7-5.3,18.7-8c11.4-5.2,23.5-13.6,35.3-17.4c13.1-4.2,28.8-2.6,42.3-4.5   c13.7-1.9,27.4-5.7,40.9-8.8c18.2-4.3,29-6.6,46.2,2.1c-2.2,0.7-4.4,1.3-6.7,2c5.3,2.5,41.5,2.4,33.3,12c5.8,0.5,12.8,2.8,7.3,10   c3.7-1.5,7.2-4.7,8.7,0.7c-2,0.2-4,1.3-6,1.3c2.5,2,5.3,5.5,8,7c3.4,1.9,6,1.6,10.4,2.2c8.4,1.2,16.6,4.6,24.7,7.2   c15.6,4.9,31.4,9.1,47.2,13.5c29.6,8.3,53.7,23.8,81.2,36.9c17,8,32.8,15.5,48.4,25.9c-20.3-3.1-42.8-3.8-62.5-9.6   c-2.1-0.6-5-2.8-6.8-3.1c-4.2-0.7-9,1.7-13.3,1.1c-4.8-0.7-9.2-3.9-14-4.4c-5-0.5-11.1,1.3-16.1,1.9c11,3.2,23.3,4.4,33.6,9.1   c11.1,5.1,20.4,8.9,32.4,11.6c-12.2,7.3-28.8,2.7-41.6-0.2c-11.3-2.6-16.4-3.6-27.7-1.8c2.4,2.7,5.8,4.5,9.3,5.3   c-2.4,7-12,2.8-16.7,0c1.5-0.8,2.5-2.6,4-3.3c-11.5-5.7-17.8-8.1-30.6-8.9c-10.2-0.6-20,1.5-30.1,2.9c2.2-2,4.4-4,6.7-6   c-8.9,0-17.8,0-26.7,0c11.6-10.8-15.4-8.3-18.8-8c-6,0.4-6.5-0.2-12.2,3c-4.8,2.8-7.7,4.1-13.2,4.9c-18.5,2.5-37.1-1.4-54.5-7.9   c2.2,0.3,6.8-0.2,5.3-3.3c-0.7-1.5-8.3-2.8-9.9-3.5c-7.6-3.5-6.4-5.3-8-13.1c-1.3-6.1-1.9-10.8-2.6-16.6c-0.6-5.1-3-13.7-10.2-11.5   c1.8,6.2,3.6,12.4,5.3,18.7c-9.3-5.4-17-9-24.7-16.7c-2.7,7.1-3.2,10.5-2.7,18c-2.2-0.4-4.4-0.9-6.7-1.3c2.4,2.4,4.9,4.9,7.3,7.3   c-7.9-3.2-11.1-4.7-19.3-3.3c5.9,3.8,11.3,6.3,14.7,12.7c-7.5-0.8-13.6-4-20.6-5.1c-3-0.5-4.5,1.2-7.4,1.1   c-3.3-0.2-7.5-2.4-10.7-3.3c14.9,11.7,33.1,10.3,50,18c-11.3,0-21.9-4.1-33.1-5.9c-4.2-0.7-8.8-1.3-12.3-2.4   c-4.1-1.3-1.2-3.5-7.6-3c-2.8,0.2-4.8,0.4-7.1,2.7c8.6,2.5,13.2,6.6,21.3,8.7c-6.4,0.4-12.9,0.9-19.3,1.3c7.5,3,28.8,7.5,31.3,16.7   c-9.3,0.8-15.4-2.4-24.2-5.8c-2.6-1-6.4-3.4-9.2-3.5c-0.9,0-1.8,3.3-2.7,3.3c-1.8,0.1-3.8-1.1-5.7-1.3c-8-0.9-13.2-0.2-20.9,0.8   c-6.3,0.8-13.3-1-20.1-1.5c6.4,14-30,4.2-32.9,3.5c-13.6-3-27.2-5.9-40.8-8.9c-28.8-6.3-57.6-9.7-86.9-12.6   c15.9,2.7,31.1,3.3,44.7,12c-7-0.2-14.9,0.7-21.8-0.6c-6.2-1.1-9.2-2.7-16.3-2.5C264.4,149.9,250.9,149.5,237.3,149.2z"/>
	<path class="st7" d="M981.3,77.8c8.7-4.7,17.5-9,26-14c7.6-4.4,15.6-12.9,24.9-13.1c8.5-0.2,18.4,4.3,26.8,6.2   c9.4,2.1,17.4,3.6,27,3.8c19.4,0.5,36.4,0.6,55.3,5.7c16.7,4.5,37.8,7.2,53.3-1.3c-3.6,0.2-7.1,0.4-10.7,0.7   c14.1-6.5,20.6-8.8,36.2-8c11.6,0.6,27.1-1.1,38.2,1.4c5.4,1.2,10.1,5.4,15.5,6.7c7.1,1.7,11.7,0.3,18.4,3.6   c11.5,5.8,23,9.6,35.7,11.7c-0.7,1.2-0.6,2.8-1.3,4c27.8,0,55.9,0.4,83.7-1.4c30.9-2,55-7.7,82-22.8c12.9-7.2,22.2-12.1,37-13.1   c5.4-0.4,10.2,0.6,15.6-0.4c7.8-1.4,15.4-4.3,23.2-5.6c14.8-2.6,28.8-3.3,43.3-7.3c12.2-3.4,24.9-10.5,37.3-11.2   c7.9-0.5,16.2,2.9,23.7,0.1c8.3-3.1,13.9-6.6,22.9-8.5c15.5-3.4,31-6.4,46.7-8.4c-2.2,1.3-4.4,2.7-6.7,4c1.2,1.1,2,3,3.3,4   c-4.6-1.3-16.3-4.6-13.3,4.7c-2.2-1.1-4.4-2.2-6.7-3.3c1.6,1.3,2.6,3.2,4,4.7c-4.6,2.5-9,1.7-14,1.3c4.7,2.4,9.3,4.9,14,7.3   c-5.6-1.1-11.1-2.2-16.7-3.3c4.7,3.3,9.3,6.7,14,10c-3.4,5.6-5.9,3.1-10.7,0.7c4.9,7.7,8.4,11,16,16c-11.4-3.3-17-9.5-26.7-16   c13.2,17.9,25.1,35.2,46,44.7c-0.4-2.2-0.9-4.4-1.3-6.7c4,0.4,8,0.9,12,1.3c-4.8-7.5-5-11.7-0.6-19.9c1.6-3,6.8-6.8,7.3-10.1   c0.6-3.9-3.5-6.1-4.1-9.3c-1.1-5.4,2.4-16.9,5.6-21.6c3.9-5.7,10.3-7.7,16.8-10.9c7.9-3.9,10.1-2.4,18.4,0.3c4,1.3,8.4,3.2,12.6,4   c3.7,0.7,9.5-0.5,12.6,1.2c3.4,1.9,7.3,7.4,11.9,10.7c7,4.9,14,9.9,21.1,14.8c-7.3-3.1-14.7-6.2-22-9.3   c7.8,13.9,16.3,24.6,28.2,35.5c9.5,8.7,22.3,14.7,33.1,21.9c-6.7-1.6-13.3-3.1-20-4.7c26,18.6,55.5,29.7,87.7,29.3   c16.9-0.2,34.2-3.3,51-4.9c14-1.4,25.5-6.8,38.8-11.7c-0.5,12.5-0.5,25.1-1.1,37.6c-0.4,9.5-0.8,18.9-1.2,28.4   c-0.2,3.6,1,11.1-0.6,14.4c-4.3,8.9-22.9,13.1-31.6,14.1c-4.3,0.5-13.5-1.9-17.1,0.2c-3.9,2.3-7.5,12-10,16   c1.9,0.5,3.4,2.3,5.3,2.7c-8.6,6.9-16.9,15.4-26.6,20.5c-20.8,10.9-44.7,15.4-67.7,18.4c-11.7,1.5-21.1-2.6-32.8-1.6   c-13.4,1.2-22.1-0.7-34.8-4.6c18.7-2.4,35.6-4.9,50.6-16.9c5.8-4.6,16.2-9.7,21.1-15c2.7-2.9,3.2-7.9,5.5-11.2   c2.1-3.1,5.5-5.7,8.1-8.3c-4-2-8-4-12-6c-3.5,7.6-3.6,8.6-11.8,10.5c-5.2,1.2-10.4,2.4-15.6,3.5c5,1.7,10.3,2.6,14,6.7   c-7.7,7.7-10.8,8.9-22,9.3c-7.7,0.3-15.6-0.6-23.3-1.3c4-1.6,8-3.1,12-4.7c-4.1-5.5-12.7-3.3-18.7-3.3c2.9-2.8,6.6-5,10.7-5.3   c-10.4-5.5-18.2-6.2-30-7.3c1.1,2.9,2.2,5.8,3.3,8.7c-4.3-1.4-7.4-2.3-10.8-5.2c-5.3-4.6-4.4-4.4-0.5-10.1   c-5.1-0.2-10.8,0.4-15.8-0.5c-6.3-1.2-5.4,0.1-8.9-6.2c4.4-0.7,8.9-1.3,13.3-2c-9.3-1-16-0.8-25.3,0.7c2.4,0.7,4.9,1.3,7.3,2   c-10.4,0.3-18.4-1.1-26.7,5.3c5.6,0,12.4-2,15.3,4c-10.7-1.1-21.3-2.2-32-3.3c2.7-0.9,5.3-1.8,8-2.7c-0.3-5.3-5.9-5.7-10-7.3   c4.3-6.5,7.5-7.5,14.7-10.7c-2.6-3.1-4.7-6.7-8.2-8.1c-4.6-1.9-12.5-1.1-17.5-1.5c-11.7-1-23.3-2-35-3c8.6,2.1,17.1,4.2,25.7,6.3   c9.7,2.4,11.6,1.7,16.3,10.4c-15.2,0-29.6-3.3-44.7-0.7c2.9,1.8,5.8,3.6,8.7,5.3c-5.8-0.9-11.7-2.1-17.6-2.7   c-4.1-0.4-16.4-3.2-19.8-1.3c-4.2,2.4-5.1,11.4-8.7,14.7c-4.1,3.8-12.9,5.7-18,8c2,0.2,4,1.5,6,2c-21.4,16.4-42.1,42-72.2,38.1   c-14-1.8-7.1-8.3-9.9-15.3c-0.8-1.9-3.9-2.8-4.6-4.7c-0.9-2.5,0.7-6.6,0.5-9.3c-0.3-4.7-2-9.5-3.2-14.1c-3.6,4.5-7.2,8.9-10.3,13.8   c-4.8,7.5-3.7,8.6-12.3,6.2c2.4-2,4.9-4,7.3-6c-3.9-5.6-6.4,1-10.7,2c-3.4,0.8-8.5-0.6-11.3-2.7c17.3-13.2,28.8-37.2,50-45.3   c11.5-4.4,19.5-0.3,31.1,4c12.5,4.7,22.1,9.4,34.3,1.3c-6-2.4-12-4.9-18-7.3c3.1-0.7,6.2-1.3,9.3-2c-6-3.3-12-6.7-18-10   c6.2-1.8-2.4-26.3-7.3-6.7c-3.4-7.3-4.3-8.1-0.7-15.3c-17.7-2.3-40.9-10.2-58-3.3c10.3,6.4,15.6,13.7,20.7,24.7   c-4.8-0.8-19.1-1.1-22-6.7c-1.6-3.1,0.2-7.1-2-11c-2-3.7-4.2-7-9-6.1c-7.2,1.3-3.6,12.9-13.9,10.5c-7.8-1.8-1.6-3.2-10.5,0.6   c-3.6,1.6-6.6-0.7-8.7,4c4.2,1.1,8.4,2.2,12.7,3.3c-7.9,0-12-0.2-18.6,3c-5.7,2.8-10.4,4-16.8,5c7.6,2.1,37.7,14.6,24,25.3   c5.9,2.7,8,4.2,12,9.3c-10.2,0.7-17.5-2-27-5.6c-3.9-1.5-11.4-2.3-14.8-4.2c-4-2.2-0.1-1.3-2.8-4.7c-1.4-1.7,0-3.3-4-3.5   c2.1-5.8,4.9-9.6,0.3-14.9c-3-3.4-11.7-7-16.1-8.4c-15.8-5.1-38.8-0.8-51.7-13.7c-3.7-3.7-3.4-5.8-7.3-8.5   c-5.2-3.6-10.7-4.6-16.3-4.2c-3.6,0.3-4.4,1.9-6.9,0.5c-2.5-1.3-3.5-6.4-5.5-8.4c-3.6-3.8-9-5.5-13.8-7.8c3.6,2.9,7.1,5.8,10.7,8.7   c-9.4-2.4-18.4-4.7-28-6c2.4,2.4,4.9,4.9,7.3,7.3c-7.7,2.9-11.9,4.8-20,2c-6-2-11.3-6-17.4-7.6c-15.6-4-33.3-4.8-49.2-7   c5.4-2.2,10.6-5.5,16.7-4.7c-2.1-0.6-5.7-0.8-7.4-2c-1.2-0.9-2.4-3.5-2.6-3.7c-2.7-1.6-8-2.2-12.3-2.8c-11.1-1.6-19.4-3.1-30.4-0.9   c5.6,1.7,13.7,2.2,16.7,8c-4.8,2.6-7.2,4-12.7,4c-1.1,0-2.2-2.7-3.3-2.7c-1.8,0-3.5,2.5-5.3,2.7c-8.6,0.9-18.9-1.8-27.3-3.3   c4.2,2,14.9,3.9,12,10c-7.3-1.3-14.7-2.7-22-4c9.6,2.8,19.9,4.9,29.2,8.6c8.5,3.4,16.2,9.1,24.7,12.7c9.7,4.1,17.6,3.2,27.3,5.6   c9.6,2.4,19.9,8.8,28.8,13.1c-5.8,0-11.6,0-17.3,0c3.2,0.7,21.5,2.3,17.4,7.5c-1.7,2.1-17.9-2.3-21.4-2.8c7.8,3.3,15.6,6.7,23.3,10   c-2.2,1.1-4.4,2.2-6.7,3.3c5.8,2.1,8.7,3.9,13.3,8c-4.2-0.7-8.4-1.3-12.7-2c15.1,9.8,31.2,15.2,49.3,16.7   c3.4,0.3,10.5-0.5,13.6,0.7c3.2,1.2,5,4.9,7.7,7.3c6.2,5.5,14,9.9,20.7,14.7c-6.5-0.2-13.8,0.5-20.3-0.7   c-8.6-1.5-17.2-5.9-25.7-8.1c-26.1-7-53.2-7.1-80.1-6.6c3.6-2.9,7.1-5.8,10.7-8.7c-3.3,0.2-6.7,0.4-10,0.7c4.2-2.7,8.4-5.3,12.7-8   c-3.8-0.7-7.6-1.3-11.3-2c2.7-2.2,5.3-4.4,8-6.7c-4.9,1.8-12.8,6.4-17.5,5.3c-2.7-0.6-7.1-5.3-9.4-6.9c-5.2-3.6-10.5-7-16.1-10   c-22.4-12-49.4-12.2-73.6-19.1c-6.1-1.7-12.6-5.2-18.8-6c-7.5-1-15.4,1.8-22.9,1.1c-11.9-1-24.1-12.2-34.4-18.5   c2.7-3.1,5.3-6.2,8-9.3c-14.9-0.8-27.8-6-42.4-8.6C1008.1,79,994.4,78.9,981.3,77.8z"/>
</g>
<g id="Layer_2">
	<rect x="1852.2" y="320.8" class="st8" width="40.9" height="177.7"/>
	<g>
		<polygon class="st9" points="101.8,405.4 84.1,405.4 84.1,456.9 57.2,456.9 57.2,506 90.2,506 90.2,498 101.8,498 101.8,502.4     162.9,502.4 162.9,374.2 101.8,374.2   "/>
		<polygon class="st9" points="349.4,344.1 319,344.1 319,510.5 374.5,510.5 374.5,498.6 427.6,498.6 427.6,291.2 349.4,291.2   "/>
		<rect x="559.5" y="280.8" class="st9" width="78.3" height="226.7"/>
		<polygon class="st9" points="760.8,327.5 682.6,327.5 682.6,505.7 760.8,505.7 760.8,489.6 830.1,489.6 830.1,353.6 760.8,353.6       "/>
		<rect x="466.2" y="316.7" class="st9" width="78.3" height="185.7"/>
		<polygon class="st9" points="1027,351.4 960.8,351.4 960.8,320.4 906.9,320.4 906.9,498.6 948.7,498.6 948.7,512 1027,512     1144.1,512 1144.1,333.8 1027,333.8   "/>
		<rect x="1191.7" y="293.3" class="st9" width="52.2" height="218"/>
		<rect x="1350.3" y="221" class="st9" width="52.2" height="293.7"/>
		<rect x="1541.5" y="244.8" class="st9" width="52.2" height="262.6"/>
		<rect x="1615.3" y="267.3" class="st9" width="52.2" height="238.8"/>
		<rect x="1716.1" y="248.1" class="st9" width="52.2" height="260"/>
		<polygon class="st9" points="2026.9,428.4 1989.6,428.4 1989.6,401.1 1937.5,401.1 1937.5,428.4 1925.7,428.4 1925.7,369.4     1844,369.4 1844,499.3 1925.1,499.3 1925.7,499.3 1937.5,499.3 1937.5,500 1989.6,500 1989.6,499.3 2026.9,499.3   "/>
	</g>
	<polygon class="st8" points="337.5,492.8 337.5,488.6 340.3,488.6 340.3,482 337.5,482 337.5,477.8 340.3,477.8 340.3,471.3    337.5,471.3 337.5,467.1 340.3,467.1 340.3,460.5 337.5,460.5 337.5,456.3 340.3,456.3 340.3,449.8 337.5,449.8 337.5,445.6    340.3,445.6 340.3,439.1 337.5,439.1 337.5,434.9 340.3,434.9 340.3,428.3 337.5,428.3 337.5,424.1 340.3,424.1 340.3,417.6    337.5,417.6 337.5,413.4 340.3,413.4 340.3,406.8 337.5,406.8 337.5,402.6 340.3,402.6 340.3,396.1 337.5,396.1 337.5,391.9    340.3,391.9 340.3,385.4 337.5,385.4 337.5,381.2 340.3,381.2 340.3,374.6 337.5,374.6 337.5,370.4 340.3,370.4 340.3,363.9    337.5,363.9 337.5,359.7 340.3,359.7 340.3,353.1 337.5,353.1 337.5,348.9 340.3,348.9 340.3,342.4 337.5,342.4 337.5,338.2    340.3,338.2 340.3,331.7 337.5,331.7 337.5,327.5 340.3,327.5 340.3,320.9 337.5,320.9 337.5,316.7 340.3,316.7 340.3,310.2    337.5,310.2 337.5,306 340.3,306 340.3,299.4 337.5,299.4 337.5,295.2 340.3,295.2 340.3,285.2 287.5,285.2 287.5,278.2    286.4,278.2 286.4,267.2 283.4,267.2 283.4,278.2 278.5,278.2 278.5,262.5 273.5,262.5 273.5,278.2 268.4,278.2 268.4,267.2    265.4,267.2 265.4,278.2 263.9,278.2 263.9,285.2 261.5,285.2 261.5,278.2 252.5,278.2 252.5,285.2 232.3,285.2 232.3,281.7    228.9,281.7 228.9,285.2 221.8,285.2 221.8,295.2 224.6,295.2 224.6,299.4 221.8,299.4 221.8,306 224.6,306 224.6,310.2    221.8,310.2 221.8,316.7 224.6,316.7 224.6,320.9 221.8,320.9 221.8,327.5 224.6,327.5 224.6,331.7 221.8,331.7 221.8,338.2    224.6,338.2 224.6,342.4 221.8,342.4 221.8,348.9 224.6,348.9 224.6,353.1 221.8,353.1 221.8,359.7 224.6,359.7 224.6,363.9    221.8,363.9 221.8,370.4 224.6,370.4 224.6,374.6 221.8,374.6 221.8,381.2 224.6,381.2 224.6,385.4 221.8,385.4 221.8,391.9    224.6,391.9 224.6,396.1 221.8,396.1 221.8,402.6 224.6,402.6 224.6,406.8 221.8,406.8 221.8,413.4 224.6,413.4 224.6,417.6    221.8,417.6 221.8,424.1 224.6,424.1 224.6,428.3 221.8,428.3 221.8,434.9 224.6,434.9 224.6,439.1 221.8,439.1 221.8,445.6    224.6,445.6 224.6,449.8 221.8,449.8 221.8,456.3 224.6,456.3 224.6,460.5 221.8,460.5 221.8,467.1 224.6,467.1 224.6,471.3    221.8,471.3 221.8,477.8 224.6,477.8 224.6,482 221.8,482 221.8,488.6 224.6,488.6 224.6,492.8 221.8,492.8 221.8,498.6    340.3,498.6 340.3,492.8  "/>
	<path class="st8" d="M1317.8,273.6v-3.4h24.5V263h-24.5v-1.9H1268v-11.3h-4.2v5.6h-4.2v5.6h-13.5h-2.6h-17.4v3.5v2v7h-10v224.9   h134.2V273.6H1317.8z M1237.1,266.6h6.4v7h-6.4V266.6z"/>
	<polygon class="st8" points="1519.3,134.5 1519.3,127.4 1509.6,127.4 1509.6,124.1 1506.1,124.1 1506.1,127.4 1492.9,127.4    1492.9,134.5 1482.6,134.5 1482.6,157 1471.7,157 1471.7,498.6 1556,498.6 1556,165.4 1556,157 1556,134.5  "/>
	<polygon class="st8" points="685.6,288.8 685.6,284.3 690.4,284.3 690.4,279.2 685.6,279.2 685.6,271 665.5,271 665.5,266.3    656.5,266.3 656.5,271 613.5,271 613.5,288.8 613.5,291.6 613.5,498.6 708.8,498.6 708.8,288.8  "/>
	<g>
		<polygon class="st10" points="389.2,349.4 387.4,349.4 387.4,351.6 389.2,351.6 389.2,353.8 387.4,353.8 387.4,356 389.2,356     389.2,358.2 387.4,358.2 387.4,360.3 389.2,360.3 389.2,362.6 387.4,362.6 387.4,364.7 389.2,364.7 389.2,370.9 365.6,370.9     365.6,373.1 364.2,373.1 364.2,375.2 365.6,375.2 365.6,383.5 364.2,383.5 364.2,385.7 365.6,385.7 365.6,393.9 364.2,393.9     364.2,396.1 365.6,396.1 365.6,404.4 364.2,404.4 364.2,406.6 365.6,406.6 365.6,414.8 364.2,414.8 364.2,417 365.6,417     365.6,425.3 364.2,425.3 364.2,427.4 365.6,427.4 365.6,435.7 364.2,435.7 364.2,437.9 365.6,437.9 365.6,446.2 364.2,446.2     364.2,448.3 365.6,448.3 365.6,456.6 364.2,456.6 364.2,458.8 365.6,458.8 365.6,467.1 364.2,467.1 364.2,469.2 365.6,469.2     365.6,477.5 364.2,477.5 364.2,479.7 365.6,479.7 365.6,487.9 364.2,487.9 364.2,490.1 365.6,490.1 365.6,498.6 412.8,498.6     412.8,370.9 412.8,347.3 389.2,347.3   "/>
		<polygon class="st10" points="194.9,288.5 191,288.5 191,307.2 187.8,307.2 187.8,304.3 182,304.3 182,307.2 176.2,307.2     176.2,301.4 166.6,301.4 166.6,307.2 149.2,307.2 149.2,498.6 232.9,498.6 232.9,307.2 194.9,307.2   "/>
		<polygon class="st10" points="580.3,139.6 571.3,139.6 571.3,142.4 565.7,142.4 565.7,139.6 556.7,139.6 556.7,142.4 551.1,142.4     551.1,139.6 542.1,139.6 542.1,142.4 536.6,142.4 536.6,139.6 527.5,139.6 527.5,142.4 519.7,142.4 519.7,323.4 503.4,323.4     503.4,320.5 490.2,320.5 490.2,323.4 487.1,323.4 487.1,498.6 519.7,498.6 538.2,498.6 545.1,498.6 580.1,498.6 588.2,498.6     588.2,142.4 580.3,142.4   "/>
		<path class="st10" d="M886.3,273.9h-24.5v-3h-3.4v-4.3H853v4.3h-7.5v3h-8.2v3h-6v-6h-5.2v6H791v16.8h5.6v6.9H791v111.9h-39v-15    h-5.1v-4.5h5.1v-10.3h-66.9v10.3h5.1v4.5h-5.1v15h-89.8v4.3h1.1v2.6h-1.1v79.3H791h50.8H915V300.5h-5.6v-6.9h5.6v-16.8h-28.8    V273.9z M612.8,419.3h-7.7v-2.6h7.7V419.3z M629.3,419.3h-7.7v-2.6h7.7V419.3z M645.8,419.3h-7.7v-2.6h7.7V419.3z M662.3,419.3    h-7.7v-2.6h7.7V419.3z M678.7,419.3h-7.7v-2.6h7.7V419.3z M766,419.3h-7.7v-2.6h7.7V419.3z M782.5,419.3h-7.7v-2.6h7.7V419.3z"/>
		<polygon class="st10" points="1034.3,363.9 1007.3,363.9 1007.3,372.2 975.7,372.2 975.7,329.7 971.2,329.7 971.2,372.2     963.5,372.2 963.5,498.6 1041.4,498.6 1041.4,372.2 1034.3,372.2   "/>
		<polygon class="st10" points="1198.6,307.5 1174.4,307.5 1174.4,302.3 1158.3,302.3 1158.3,307.5 1108.4,307.5 1108.4,314.2     1076.6,314.2 1076.6,498.6 1209.2,498.6 1209.2,314.2 1198.6,314.2   "/>
		<polygon class="st10" points="1462.1,181.5 1427.3,181.5 1427.3,191.2 1415.1,191.2 1415.1,181.5 1393.2,181.5 1393.2,175.7     1377.8,175.7 1377.8,191.2 1377.8,197.6 1377.8,498.6 1508.4,498.6 1508.4,337.5 1503.3,337.5 1503.3,324.6 1508.4,324.6     1508.4,322 1503.3,322 1503.3,309.1 1508.4,309.1 1508.4,191.2 1462.1,191.2   "/>
		<polygon class="st10" points="1830.7,252.4 1830.7,245.8 1823.7,245.8 1823.7,252.4 1811.9,252.4 1811.9,238 1809.5,238     1809.5,252.4 1777.3,252.4 1777.3,269.6 1762.2,269.6 1762.2,286.2 1742.2,286.2 1742.2,316.6 1732.5,316.6 1732.5,498.6     1742.2,498.6 1762.2,498.6 1777.3,498.6 1801.6,498.6 1870.1,498.6 1870.1,252.4   "/>
		<polygon class="st10" points="1705.2,263.1 1699.4,263.1 1699.4,256.2 1690.6,256.2 1690.6,222.3 1688,222.3 1688,256.2     1679.2,256.2 1679.2,263.1 1673.5,263.1 1673.5,267.8 1655.9,267.8 1655.9,498.6 1722.8,498.6 1722.8,267.8 1705.2,267.8   "/>
		<polygon class="st10" points="1607,279.4 1602.3,279.4 1602.3,273 1591.2,273 1591.2,279.4 1586.4,279.4 1586.4,282.5     1571.8,282.5 1571.8,498.6 1621.6,498.6 1621.6,282.5 1607,282.5   "/>
	</g>
	<rect y="496.8" class="st11" width="2052.5" height="35.7"/>
</g>
<g id="_x3C__x21_--_Generator:_Adobe_Illustrator_21.0.2_x2C__SVG_Export_Plug-In__--_x3E_">
	<g>
		<path class="st12" d="M732.5,465.1C732.5,465.1,732.5,465.1,732.5,465.1C732.5,465.1,732.5,465.1,732.5,465.1    C732.5,465.1,732.5,465.1,732.5,465.1z"/>
		<path class="st13" d="M1981.2,485.7v-25.2c2.3,0.3,4.2,0.7,5.5,1.5c3.3-4,10.2-5.3,11.3-4.6c-7.2-4.2-13.9-12-16.5-15.1v-2.9    c0-0.6-0.5-1.1-1.1-1.1c-0.6,0-1.1,0.5-1.1,1.1v3c-1.4,1.8-3.8,5-6.5,8.2c-3.4-3.3-6.2-6.5-7.7-8.3v-2.9c0-0.6-0.5-1.1-1.1-1.1    c-0.6,0-1.1,0.5-1.1,1.1v3c-1.4,1.8-3.8,5-6.5,8.2c-3.4-3.3-6.2-6.5-7.7-8.3v-2.9c0-0.6-0.5-1.1-1.1-1.1c-0.6,0-1.1,0.5-1.1,1.1v3    c-1.4,1.8-3.8,5-6.5,8.2c-3.4-3.3-6.2-6.5-7.7-8.3v-2.9c0-0.6-0.5-1.1-1.1-1.1s-1.1,0.5-1.1,1.1v3c-1.4,1.8-3.8,5-6.5,8.2    c-3.4-3.3-6.2-6.5-7.7-8.3v-2.9c0-0.6-0.5-1.1-1.1-1.1c-0.6,0-1.1,0.5-1.1,1.1v3c-1.4,1.8-3.8,5-6.5,8.2c-3.4-3.3-6.2-6.5-7.7-8.3    v-2.9c0-0.6-0.5-1.1-1.1-1.1s-1.1,0.5-1.1,1.1v3c-1.4,1.8-3.8,5-6.5,8.2c-3.4-3.3-6.2-6.5-7.7-8.3v-2.9c0-0.6-0.5-1.1-1.1-1.1    c-0.6,0-1.1,0.5-1.1,1.1v3c-1.4,1.8-3.8,5-6.5,8.2c-3.4-3.3-6.2-6.5-7.7-8.3v-2.9c0-0.6-0.5-1.1-1.1-1.1c-0.6,0-1.1,0.5-1.1,1.1v3    c-1.4,1.8-3.8,5-6.5,8.2c-3.4-3.3-6.2-6.5-7.7-8.3v-2.9c0-0.6-0.5-1.1-1.1-1.1c-0.6,0-1.1,0.5-1.1,1.1v3c-1.4,1.8-3.8,5-6.5,8.2    c-3.4-3.3-6.2-6.5-7.7-8.3v-2.9c0-0.6-0.5-1.1-1.1-1.1c-0.6,0-1.1,0.5-1.1,1.1v3c-1.5,2-4.4,5.7-7.4,9.3c0-0.1,0.1-0.2,0.1-0.3    c0.1-0.2,0.1-0.4,0.1-0.5c0.2,0,0.4-0.1,0.5-0.3c0.1-0.3-0.6-0.7-0.7-0.8c0,0,0,0,0,0c-0.1-0.1-0.2-0.2-0.3-0.3c0,0,0-0.1-0.1-0.2    l-0.1-0.1c1.3-0.8,0.9-3.1-0.7-3.6c0.7-0.5,1.2-1.3,1.1-2.3c0-0.2-0.1-0.4-0.2-0.5c-0.1-0.4-0.5-0.6-0.8-0.8V442    c0-0.4-0.4-0.8-0.6-1c-0.2-0.2-0.5-0.4-0.7-0.6c0.3,0,0.6-0.1,1-0.1c0.1,0,0.7-0.1,0.7-0.4c0-0.3-0.3-0.5-0.5-0.7    c-0.1-0.1-0.4-0.2-0.6-0.2c0.1-0.1,0.1-0.2,0.2-0.3c0.2-0.2-0.1-0.6-0.2-0.8c-0.3-0.5-0.6-0.9-1-1.3c-0.2-0.2-0.3-0.3-0.5-0.4    c0.2-0.1,0.3-0.2,0.2-0.4c0-0.6-1.7-0.6-2.2-0.6l0-0.1c0-0.1,0-0.1,0-0.2l0,0c0.4-0.7,0-1.4-0.6-1.9c0.4,0,0.9,0,0.3-0.3    c-0.4-0.3-1-0.5-1.5-0.6c0.3-0.6-0.7-1-1.2-1c-0.1,0-0.2,0-0.3,0c0.2-0.2,0.4-0.4,0.5-0.6c0.1,0,0.2-0.1,0.4-0.1    c1-0.1-0.2-1.7-0.4-2c-0.6-0.7-1.6-1.5-2.6-1.3c-0.1,0-0.2,0-0.3,0.1c-0.4-0.4-1.5-1.2-2-1.3c0,0,0,0,0,0    c-0.5-0.6-1.2-0.9-1.9-0.6c0,0,0,0,0,0c-0.4-0.2-0.7-0.3-0.9-0.2c0,0-0.1,0.1-0.1,0.1c-0.1,0-0.2,0-0.3-0.1    c-0.1-0.2-0.2-0.4-0.3-0.6c-0.4-0.6-1.2-0.5-1.8-0.2c-0.2,0.1-0.4,0.3-0.6,0.5c-0.1,0-0.1-0.1-0.2-0.1c-0.3-0.1-1-0.3-0.9,0.3    c0,0.1,0.1,0.3,0.2,0.4c-0.2-0.2-0.5-0.3-0.8-0.4l0-0.1c0,0,0,0.1,0,0.1c-0.3-0.1-0.5-0.1-0.8,0c-0.1,0-0.1,0.1-0.2,0.1    c-0.2-0.1-0.3-0.2-0.5-0.2c-0.1,0-0.4-0.2-0.5,0c-0.1,0.1,0.1,0.4,0.1,0.5c0.2,0.3,0.4,0.5,0.7,0.7c0,0,0,0,0,0    c-0.4-0.1-0.9-0.3-1-0.3c-0.7,0-0.3,0.2,0.3,0.5c-0.3,0.1-0.6,0.2-0.7,0.3c-0.2,0-0.3,0-0.5,0.1c-0.1,0-0.2,0-0.2,0.1    c-0.3,0.2-0.4,0.5-0.4,0.8c0,0.2,0.1,0.5,0.1,0.7c-0.4,0.3-0.6,0.8-0.6,1.2c-0.1-0.2-0.3-0.3-0.5-0.4c-0.2-0.1-0.1,0.2-0.1,0.2    c0,0.2,0.1,0.4,0.2,0.6c-0.5,0-1,0.2-1.2,0.6c0,0.1-0.1,0.2-0.1,0.2c-0.3-0.2-0.7-0.5-0.6-0.2c0,0.2,0.1,0.4,0.2,0.6    c0.1,0.3,0.3,0.6,0.6,0.8c-0.3,0.1-0.4,0.4-0.4,0.8c-0.2,0-0.3,0-0.4,0c-0.4,0.1-0.7,0.3-1,0.5c-0.2,0.2-0.4,0.5-0.5,0.8    c-0.3,0-0.5,0.1-0.3,0.5c0.1,0.2,0.1,0.4,0.2,0.6c0,0.1,0.1,0.3,0.2,0.4c-0.5,0.5-0.6,1.2-0.4,1.9c-0.1,0.1-0.3,0.3-0.4,0.4    c-0.2,0.1-0.4,0.4-0.4,0.6c-0.2,0.4-0.3,0.7-0.4,1.1c-0.1-0.1-0.1-0.1-0.2-0.2c-0.1,0-0.2-0.1-0.2,0c0,0.3,0.2,0.5,0.3,0.8    c0,0,0.1,0.1,0.1,0.1c0,0.1,0,0.2,0,0.3h0c-0.7,0.1-1.2,0.7-0.9,1.4c0.1,0.2,0.1,0.5,0.2,0.7c0.1,0.2,0.2,0.5,0.4,0.6    c-0.3,0.1-0.6,0.4-0.5,0.8c0,0.5,0.1,1,0.3,1.5c0.1,0.2,0.2,0.3,0.4,0.4c0,0.1,0,0.1,0,0.2v0c-0.2-0.2-0.4-0.5-0.7-0.7    c0,0-1-0.8-1-0.4c0,0,0,0,0,0c-0.2-0.2-0.4-0.3-0.6-0.4c-0.7-0.3-1.4-0.5-2.1-0.7c0,0,0-0.1,0-0.1c0-0.5-0.3-0.9-0.7-1.2    c0,0,0,0,0.1,0c0.8-0.3,1.7-1.3,1.3-2.2c-0.3-0.8-1.2-0.8-1.9-0.7c0.1-0.3,0.2-0.5,0.4-0.8c0.5-0.8,0.4-1.9-0.6-2.3    c-0.9-0.4-2,0.1-2.6,0.8c0.3-0.8,0.7-1.6,1-2.4c0.3-0.8-1.5-0.4-1.7-0.3c-0.1,0-0.3,0.1-0.4,0.2c-0.4-0.1-0.8-0.1-1.3-0.1    c-0.3-0.5-1.1-0.8-1.6-0.8c-1,0-2,0.6-2.2,1.6c-1.2-0.7-3.4-0.8-3.2,0.4c0,0.2,0.1,0.3,0.1,0.5c-0.2,0-0.3,0-0.5,0.1    c-0.5,0.1-1.9,0.8-1.3,1.6c0.2,0.3,0.5,0.6,0.7,0.9c-0.2-0.1-0.5-0.2-0.7-0.2c-0.1,0-1.8-0.5-1.5,0c0.3,0.6,0.7,1.1,1.2,1.5    c-0.1,0.1-0.2,0.3-0.3,0.5c-0.3-0.1-0.7-0.1-1-0.1c-0.2-0.1-0.4-0.1-0.6-0.1c0,0-0.1,0-0.1,0c-0.2-0.3-0.4-0.5-0.7-0.6    c-0.5-0.2-0.2,0.9,0,1.4c-0.1,0.3-0.1,0.6,0,0.9c-0.1,0-0.1,0-0.2,0c-0.1-0.1-0.2-0.1-0.3-0.1h-0.3c-0.9,0-1.9,0.3-2.7,0.7    c-0.3,0.1-0.6,0.3-0.8,0.6c-0.1,0.2,0.2,0.3,0.3,0.3h0.3c0,0,0.1,0,0.1,0c0.3,0.4,0.5,0.8,0.8,1.2c0,0.1,0.1,0.1,0.1,0.2    c0,0-0.1,0-0.1,0c0,0,0.3,0.5,0.8,1.2c-0.6,0.1-1.2,0.4-1.4,0.8c-0.3,0-0.6,0-0.8,0.2c-0.1,0-0.2,0.1-0.3,0.2v-15.3h1.7v-0.7h-0.6    v-0.5h0.6v-0.7h-1.7v-1.1h0.5v-0.6h0.6v-0.6h1.2v-0.7h-2.3v-4.6h0.5v-0.6h0.6V422h0.6v-0.6h0.6v-0.6h0.6v-0.6h0.6v-0.7h-2.9V416    v-0.8v-1.3h-1.4v-0.6h-1.9v0.6h-1.5v0.6l-16.2-2.6l-16.4,2.6v-0.6h-1.5v-0.6h-1.9v0.6h-1.4v1.3v0.8v3.5h-12v-1.4h-4v1.4h-7.5v-1.4    h-4v1.4h-7.5v-1.4h-4v1.4h-1.5v-6.8h0.3v-0.6h0.6v-0.6h0.6v-0.6h-1.9v-3.7h1v-0.5V406v-0.8v-0.8h-2.1v0.8h-0.9v0.8h-0.7v0.9h-15.2    v-1.1h-1v-2.7h-1v-14.7h0.4v-2h1.3v-3.1h-1.5V381h-5v-4h-2.8v-6.3h2.2v-4.9h-2.3v-1.5h-1.3v-2.7h1.3v-1.5h-2.6c0-0.3,0-0.6,0-0.9    c0-7.6-4.9-16.6-11.5-19.2v-0.6h-0.9v-6.9h0.7v-1.4h-1v-1.1h-0.7V329h-0.5v-0.9v-0.9h-1v-2.9h0.6v-0.9h-0.6v-2h-1v2h-0.6v0.9h0.6    v2.9h-1v0.9v0.9h-0.5v1.2h-0.7v1.1h-1v1.4h0.7v6.9h-0.9v0.7c-6.6,2.8-11.5,11.6-11.5,19.1c0,0.3,0,0.6,0,0.9h-2.6v1.5h1.3v2.7    h-1.3v1.5h-2.3v4.9h2.2v6.3h-2.9v4h-5v2.3h-1.5v3.1h1.3v2h0.4v14.7h-1v2.7h-1v1.1h-15.2V406h-0.7v-0.8h-0.9v-0.8h-2.1v0.8v0.8v0.7    v0.5h1v3.7h-1.9v0.6h0.6v0.6h0.6v0.6h0.3v6.8h-1.5v-1.4h-4v1.4h-7.5v-1.4h-4v1.4h-7.5v-1.4h-4v1.4h-12V416v-0.8v-1.3h-1.5v-0.6    h-1.9v0.6h-1.4v0.6l-16.4-2.6l-16.2,2.6v-0.6h-1.5v-0.6h-1.9v0.6h-1.4v1.3v0.8v3.5h-2.9v0.7h0.6v0.6h0.6v0.6h0.6v0.6h0.6v0.6h0.6    v0.6h0.5v4.6h-2.3v0.7h1.2v0.6h0.6v0.6h0.5v1.1h-1.7v0.7h0.6v0.5h-0.6v0.7h1.7v10.8c-0.5,0.2-0.8,0.6-0.9,1.1    c-0.4-0.2-0.9-0.4-1.4-0.4c-0.2-0.1-0.4-0.1-0.7-0.1c0.7-0.4,1.2-1,1.5-1.8c0.1-0.2,0.1-0.4,0.1-0.7c0.3,0,0.5-0.1,0.6-0.3    c0.1-0.4-0.7-0.8-0.9-0.9c0,0,0,0,0,0c-0.1-0.2-0.2-0.3-0.4-0.4c0-0.1,0-0.1-0.1-0.2l-0.1-0.1c1.6-1,1.1-3.7-0.9-4.4    c0.9-0.6,1.5-1.6,1.3-2.7c0-0.2-0.1-0.4-0.3-0.6c-0.1-0.4-0.6-0.8-1-0.9v-0.1c0-0.5-0.4-0.9-0.7-1.2c-0.3-0.3-0.6-0.5-0.9-0.7    c0.4,0,0.8-0.1,1.2-0.2c0.1,0,0.8-0.2,0.8-0.5c0-0.4-0.3-0.6-0.6-0.9c-0.2-0.2-0.4-0.2-0.7-0.3c0.1-0.1,0.2-0.2,0.3-0.3    c0.2-0.2-0.1-0.8-0.2-1c-0.3-0.6-0.8-1.1-1.3-1.5c-0.2-0.2-0.4-0.4-0.6-0.5c0.2-0.1,0.3-0.3,0.3-0.4c0-0.7-2-0.7-2.7-0.7l0-0.1    c0-0.1,0-0.1,0-0.2l0,0c0.5-0.8,0-1.7-0.7-2.3c0.5,0,1,0,0.4-0.4c-0.5-0.3-1.2-0.6-1.8-0.8c0.4-0.8-0.8-1.2-1.5-1.2    c-0.1,0-0.2,0-0.4,0c0.3-0.2,0.5-0.5,0.6-0.8c0.1,0,0.3-0.1,0.4-0.1c1.2-0.2-0.2-2.1-0.5-2.4c-0.7-0.8-2-1.8-3.2-1.6    c-0.1,0-0.2,0-0.3,0.1c-0.5-0.5-1.8-1.4-2.4-1.6c0,0,0,0,0,0c-0.5-0.7-1.5-1.1-2.3-0.7c0,0,0,0,0,0c-0.5-0.3-0.9-0.4-1.1-0.2    c-0.1,0.1-0.1,0.1-0.2,0.2c-0.1,0-0.2-0.1-0.3-0.1c-0.1-0.2-0.2-0.5-0.4-0.7c-0.5-0.7-1.5-0.6-2.2-0.2c-0.2,0.1-0.5,0.3-0.7,0.6    c-0.1,0-0.2-0.1-0.3-0.1c-0.4-0.2-1.3-0.4-1.1,0.4c0.1,0.2,0.1,0.4,0.2,0.5c-0.3-0.2-0.6-0.3-0.9-0.4l0-0.1c0,0,0,0.1,0,0.1    c-0.3-0.1-0.7-0.1-1,0c-0.1,0-0.2,0.1-0.2,0.1c-0.2-0.1-0.4-0.2-0.6-0.3c-0.1-0.1-0.5-0.2-0.6,0c-0.1,0.2,0.1,0.5,0.2,0.6    c0.3,0.3,0.5,0.6,0.8,0.9c0,0,0,0,0,0c-0.5-0.2-1-0.3-1.3-0.3c-0.8,0-0.4,0.3,0.3,0.6c-0.4,0.1-0.8,0.3-0.8,0.4    c-0.2,0-0.4,0-0.6,0.1c-0.2,0-0.2,0.1-0.2,0.1c-0.3,0.2-0.5,0.6-0.5,1c0,0.3,0.1,0.6,0.2,0.8c-0.5,0.4-0.7,0.9-0.7,1.5    c-0.2-0.2-0.4-0.4-0.6-0.5c-0.2-0.1-0.1,0.2-0.1,0.3c0.1,0.3,0.2,0.5,0.3,0.7c-0.6,0-1.2,0.2-1.4,0.8c0,0.1-0.1,0.2-0.1,0.3    c-0.3-0.3-0.8-0.6-0.8-0.3c0,0.3,0.1,0.5,0.2,0.7c0.2,0.4,0.4,0.7,0.7,1c-0.4,0.1-0.5,0.5-0.5,0.9c-0.2,0-0.4,0-0.5,0    c-0.4,0.1-0.9,0.3-1.2,0.6c-0.3,0.3-0.5,0.6-0.6,1c-0.3,0-0.6,0.1-0.4,0.6c0.1,0.3,0.2,0.5,0.3,0.8c0.1,0.2,0.1,0.3,0.3,0.5    c-0.3,0.3-0.4,0.6-0.5,1c0,0,0,0-0.1,0c-1.1-0.5-2.5,0.1-3.1,1c0.4-1,0.8-1.9,1.2-2.9c0.3-1-1.8-0.5-2.1-0.4    c-0.2,0.1-0.4,0.1-0.5,0.2c-0.4-0.2-1-0.2-1.5-0.1c-0.4-0.6-1.3-0.9-2-0.9c-1.2,0-2.4,0.7-2.6,1.9c-1.4-0.9-4.1-1-3.9,0.5    c0,0.2,0.1,0.4,0.1,0.6c-0.2,0-0.4,0.1-0.6,0.1c-0.6,0.2-2.3,1-1.6,1.9c0.3,0.4,0.6,0.7,0.9,1.1c-0.3-0.1-0.6-0.2-0.8-0.3    c-0.1,0-2.1-0.6-1.8,0c0.4,0.7,0.9,1.3,1.5,1.8c-0.2,0.2-0.3,0.4-0.3,0.6c-0.4-0.1-0.8-0.2-1.3-0.2c-0.2-0.1-0.5-0.1-0.7-0.1    c0,0-0.1,0-0.1,0c-0.3-0.3-0.5-0.6-0.9-0.7c-0.6-0.2-0.2,1.1,0,1.6c-0.1,0.3-0.1,0.7,0,1.1c-0.1,0-0.1,0-0.2,0    c-0.1-0.1-0.2-0.1-0.3-0.1v-52.7h-24.5v-4.1h-14.2V367h-11.6v-11.3h-9v7.1h-36v-7.1h-23.2v-6.4h-17.4v6.4h-32.8v22.7h-12.9v56.3    c-0.1-0.2-0.2-0.4-0.3-0.4c-0.6-0.6-1.4-1.3-2.3-1.2c-0.1,0-0.2,0-0.3,0.1c-0.3-0.4-1.3-1.1-1.8-1.2c0,0,0,0,0,0    c-0.4-0.5-1.1-0.8-1.7-0.5c0,0,0,0,0,0c-0.3-0.2-0.6-0.3-0.8-0.1c0,0-0.1,0.1-0.1,0.1c-0.1,0-0.2,0-0.2-0.1    c-0.1-0.2-0.2-0.3-0.3-0.5c-0.4-0.5-1.1-0.5-1.6-0.2c-0.2,0.1-0.3,0.3-0.5,0.4c-0.1,0-0.1-0.1-0.2-0.1c-0.3-0.1-0.9-0.3-0.8,0.3    c0,0.1,0.1,0.3,0.1,0.4c-0.2-0.1-0.4-0.3-0.7-0.3l0-0.1c0,0,0,0,0,0.1c-0.2-0.1-0.5-0.1-0.7,0c-0.1,0-0.1,0-0.2,0.1    c-0.1-0.1-0.3-0.2-0.4-0.2c-0.1,0-0.4-0.1-0.5,0c-0.1,0.1,0.1,0.4,0.1,0.5c0.2,0.2,0.4,0.5,0.6,0.7c0,0,0,0,0,0    c-0.4-0.1-0.8-0.2-0.9-0.2c-0.6,0-0.3,0.2,0.3,0.4c-0.3,0.1-0.6,0.2-0.6,0.3c-0.1,0-0.3,0-0.4,0.1c-0.1,0-0.2,0-0.2,0.1    c-0.2,0.2-0.4,0.4-0.4,0.8c0,0.2,0.1,0.4,0.1,0.6c-0.4,0.3-0.5,0.7-0.5,1.1c-0.1-0.2-0.3-0.3-0.4-0.4c-0.1-0.1-0.1,0.2-0.1,0.2    c0,0.2,0.1,0.4,0.2,0.6c-0.4,0-0.9,0.2-1.1,0.6c0,0.1-0.1,0.1-0.1,0.2c-0.3-0.2-0.6-0.4-0.6-0.2c0,0.2,0.1,0.4,0.2,0.5    c0.1,0.3,0.3,0.5,0.5,0.7c-0.3,0.1-0.4,0.4-0.4,0.7c-0.1,0-0.3,0-0.4,0c-0.3,0.1-0.6,0.2-0.9,0.5c-0.2,0.2-0.4,0.5-0.4,0.7    c-0.2,0-0.4,0.1-0.3,0.4c0.1,0.2,0.1,0.4,0.2,0.6c0,0.1,0.1,0.3,0.2,0.4c-0.4,0.4-0.5,1-0.3,1.7c-0.1,0.1-0.2,0.2-0.3,0.4    c-0.2,0.1-0.3,0.3-0.4,0.5c-0.2,0.3-0.3,0.6-0.4,1c-0.1-0.1-0.1-0.1-0.2-0.2c-0.1,0-0.2-0.1-0.2,0c0,0.3,0.1,0.5,0.3,0.7    c0,0,0,0.1,0.1,0.1c0,0.1,0,0.2,0,0.3c0,0,0,0,0,0c-0.6,0-1,0.6-0.8,1.2c0.1,0.2,0.1,0.4,0.2,0.6c0.1,0.2,0.2,0.4,0.4,0.6    c-0.3,0.1-0.5,0.3-0.5,0.7c0,0.5,0.1,0.9,0.3,1.3c0.1,0.2,0.2,0.3,0.3,0.4c0,0.1,0,0.1,0,0.2v0c-0.2-0.2-0.4-0.4-0.6-0.6    c0,0-0.9-0.7-0.9-0.4c0,0.1,0.1,0.2,0.1,0.3c0,0.2,0.2,0.4,0.3,0.5c0.2,0.2,0.5,0.5,0.7,0.7c0,0,0.6,0.4,0.8,0.5    c-0.1,0.1-0.2,0.1-0.2,0.2c-0.8,0.2-2.2,0.8-1.2,0.8c0.1,0,0.4-0.1,0.6-0.1l0,0c-1.1,0.2-1.1,1.4-0.4,2c-0.9,0.2-1.8,1-1.2,1.7    c0.1,0.1,0.3,0.2,0.5,0.2c-0.1,0.3-0.2,0.6-0.1,1c0.1,0.6,0.6,1,1.2,1.3c-0.1,0.4-0.1,0.8,0.1,1.2c0.3,0.6,0.7,1.1,1.3,1.4    c-0.5,0.1-1,0.5-0.4,1c0.5,0.5,1.3,0.8,2.1,0.9c0,0,0,0,0,0c0,0-0.1,0.1-0.1,0.1c-0.6,0-0.7,0.2-0.2,0.5c-0.1,0.2-0.2,0.5-0.2,0.7    c-0.1,0.5,0.1,1,0.3,1.4c0,0,0,0,0,0c0,0,0,0,0,0c0.1,0.1,0.2,0.3,0.3,0.4l0,0c0.1,0.1,0.1,0.1,0.2,0.2c0.2,0.3,0.9,0.6,1.2,0.7    c0.1,0,0.3,0,0.4,0c-0.2,0.7-0.1,1.4,0.7,1.7c0.3,0.7,1.2,1.3,1.9,1.3c0.2,0,0.5,0,0.7,0c0.5,0,1-0.2,1.4-0.4    c0.1-0.1,0.2-0.1,0.3-0.2c0,0,0.1,0.1,0.1,0.1c0.5,0.3,1,0.4,1.5,0.4c0,2,0.3,4.1,0.3,6.1c-0.1,3.3-0.2,6.5-0.6,9.8h-16    c-0.1-1.2-0.2-2.5-0.2-3.7c0-1.3,0.2-2.6,0.2-4c0.1,0,0.2-0.1,0.3-0.1c0,0,0.2-0.1,0.3-0.2c0.4,0,0.7,0.1,1.1,0    c0.4,0.2,0.9,0.3,1.3,0.3c0.5-0.1,0.8-0.4,0.9-0.8c0.2-0.1,0.5-0.3,0.7-0.5c0.1-0.1,0.3-0.1,0.4-0.2c0.1-0.1,0.1-0.2,0.1-0.3    c0.1-0.1,0.1-0.1,0.1-0.2c0.1-0.1,0.1-0.1,0.2-0.2c0.2-0.3,0.3-0.7,0.1-0.9c0-0.1,0-0.1,0-0.2c0-0.1-0.1-0.2-0.2-0.2    c0.8-0.7,1.4-1.5,1.8-2.5c0.3-0.6-0.3-1.1-0.8-1.2c-0.1,0-0.2,0-0.3,0c-0.1-0.2-0.4-0.4-0.7-0.4c0,0-0.1,0-0.1,0    c0-0.1,0-0.1,0-0.2c1.1-0.8,1.8-2.2,1.5-3.6c-0.1-0.7-0.7-0.9-1.2-0.8c0,0,0,0,0,0c0.1,0,0.3-0.1,0.4-0.1c0.4-0.1,0.2-0.8-0.2-1.3    c0-0.1,0.1-0.1,0.1-0.2c0.1-0.1,0-0.2-0.2-0.4c0.4-0.5,0-1.2-0.5-1.4c-0.4-0.2-0.9-0.3-1.3-0.4c0,0,0,0,0-0.1    c0-0.3-0.2-0.5-0.4-0.7c0,0,0,0,0,0c0.5-0.2,1-0.8,0.8-1.3c-0.2-0.5-0.7-0.5-1.2-0.4c0.1-0.2,0.1-0.3,0.2-0.5    c0.3-0.5,0.2-1.1-0.3-1.4c-0.5-0.2-1.2,0-1.6,0.5c0.2-0.5,0.4-0.9,0.6-1.4c0.2-0.5-0.9-0.2-1-0.2c-0.1,0-0.2,0.1-0.3,0.1    c-0.2-0.1-0.5-0.1-0.8,0c-0.2-0.3-0.6-0.5-1-0.5c-0.4,0-0.7,0.2-1,0.4v-50.9v-3.4v-4.8h-86.8v8.3h17.2v25.4    c-0.5-0.1-1.1-0.1-1.4,0l0-0.1c0-0.1,0-0.1,0-0.2l0,0c0.5-0.7,0-1.5-0.6-2c0.5,0,0.9,0,0.4-0.4c-0.5-0.3-1-0.5-1.6-0.7    c0.3-0.7-0.7-1.1-1.3-1.1c-0.1,0-0.2,0-0.3,0c0.3-0.2,0.4-0.4,0.5-0.7c0.1,0,0.3-0.1,0.4-0.1c1-0.2-0.2-1.9-0.4-2.1    c-0.7-0.7-1.7-1.6-2.8-1.4c-0.1,0-0.2,0-0.3,0.1c-0.4-0.5-1.6-1.3-2.1-1.4c0,0,0,0,0,0c-0.5-0.6-1.3-1-2.1-0.6c0,0,0,0,0,0    c-0.4-0.2-0.8-0.3-0.9-0.2c-0.1,0.1-0.1,0.1-0.1,0.2c-0.1,0-0.2-0.1-0.3-0.1c-0.1-0.2-0.2-0.4-0.3-0.6c-0.5-0.6-1.3-0.6-1.9-0.2    c-0.2,0.1-0.4,0.3-0.6,0.5c-0.1,0-0.2-0.1-0.2-0.1c-0.4-0.2-1.1-0.3-0.9,0.3c0,0.2,0.1,0.3,0.2,0.5c-0.2-0.2-0.5-0.3-0.8-0.4    l0-0.1c0,0,0,0.1,0,0.1c-0.3-0.1-0.6-0.1-0.9,0c-0.1,0-0.2,0.1-0.2,0.1c-0.2-0.1-0.3-0.2-0.5-0.3c-0.1,0-0.4-0.2-0.6,0    c-0.1,0.1,0.1,0.4,0.1,0.5c0.2,0.3,0.5,0.5,0.7,0.8c0,0,0,0,0,0c-0.5-0.2-0.9-0.3-1.1-0.3c-0.7,0-0.3,0.3,0.3,0.5    c-0.3,0.1-0.7,0.3-0.7,0.4c-0.2,0-0.3,0-0.5,0.1c-0.2,0-0.2,0.1-0.2,0.1c-0.3,0.2-0.5,0.5-0.4,0.9c0,0.2,0.1,0.5,0.1,0.7    c-0.4,0.3-0.6,0.8-0.6,1.3c-0.2-0.2-0.3-0.3-0.5-0.5c-0.2-0.1-0.1,0.2-0.1,0.2c0.1,0.2,0.1,0.4,0.3,0.7c-0.5,0-1,0.2-1.3,0.7    c0,0.1-0.1,0.2-0.1,0.3c-0.3-0.2-0.7-0.5-0.7-0.3c0,0.2,0.1,0.4,0.2,0.6c0.2,0.3,0.4,0.6,0.6,0.9c-0.3,0.1-0.4,0.4-0.4,0.8    c-0.2,0-0.3,0-0.5,0c-0.4,0.1-0.8,0.3-1.1,0.5c-0.2,0.2-0.4,0.6-0.5,0.9c-0.3,0-0.5,0.1-0.4,0.5c0.1,0.2,0.2,0.5,0.2,0.7    c0.1,0.2,0.1,0.3,0.2,0.5c-0.5,0.5-0.6,1.2-0.4,2c-0.2,0.1-0.3,0.3-0.4,0.4c-0.2,0.2-0.4,0.4-0.4,0.6c-0.2,0.4-0.3,0.8-0.4,1.2    c-0.1-0.1-0.2-0.1-0.2-0.2c-0.1-0.1-0.2-0.2-0.2,0c0,0.3,0.2,0.6,0.3,0.8c0,0,0.1,0.1,0.1,0.1c0,0.1,0,0.2,0,0.4c0,0,0,0,0,0    c-0.7,0.1-1.2,0.7-1,1.5c0.1,0.3,0.1,0.5,0.2,0.8c0.1,0.3,0.2,0.5,0.4,0.7c-0.3,0.1-0.6,0.4-0.6,0.8c0,0.6,0.1,1,0.4,1.6    c0.1,0.2,0.2,0.3,0.4,0.5c0,0.1,0,0.1,0,0.2v0c-0.2-0.2-0.5-0.5-0.7-0.7c0,0-1.1-0.8-1-0.5c0,0.1,0.1,0.2,0.1,0.3    c0,0.2,0.3,0.5,0.4,0.6c0.3,0.3,0.5,0.6,0.9,0.8c0,0,0.7,0.5,0.9,0.5c-0.1,0.1-0.2,0.1-0.3,0.2c-1,0.3-2.6,1-1.4,1    c0.1,0,0.4-0.1,0.7-0.2l0.1,0.1c-1.3,0.2-1.4,1.7-0.5,2.4c-0.5,0.1-1,0.4-1.3,0.7v-20.2v-5.5v-8.3v-5.5h-9.6v5.5h-41.3v8.3h-23.4    v17.4c-0.3,0-0.7,0-0.8,0l0-0.1c0,0,0-0.1,0-0.1v0c0.4-0.6,0-1.2-0.5-1.7c0.4,0,0.8,0,0.3-0.3c-0.4-0.2-0.9-0.4-1.3-0.6    c0.3-0.6-0.6-0.9-1.1-0.9c-0.1,0-0.2,0-0.3,0c0.2-0.2,0.4-0.3,0.4-0.6c0.1,0,0.2-0.1,0.3-0.1c0.9-0.1-0.1-1.5-0.4-1.8    c-0.6-0.6-1.4-1.3-2.3-1.2c-0.1,0-0.2,0-0.3,0.1c-0.3-0.4-1.3-1.1-1.8-1.2c0,0,0,0,0,0c-0.4-0.5-1.1-0.8-1.7-0.5c0,0,0,0,0,0    c-0.3-0.2-0.6-0.3-0.8-0.1c0,0-0.1,0.1-0.1,0.1c-0.1,0-0.2,0-0.2-0.1c-0.1-0.2-0.2-0.3-0.3-0.5c-0.4-0.5-1.1-0.5-1.6-0.2    c-0.2,0.1-0.3,0.3-0.5,0.4c-0.1,0-0.1-0.1-0.2-0.1c-0.3-0.1-0.9-0.3-0.8,0.3c0,0.1,0.1,0.3,0.1,0.4c-0.2-0.1-0.4-0.3-0.7-0.3    l0-0.1c0,0,0,0,0,0.1c-0.2-0.1-0.5-0.1-0.7,0c-0.1,0-0.1,0-0.2,0.1c-0.1-0.1-0.3-0.2-0.4-0.2c-0.1,0-0.4-0.1-0.5,0    c-0.1,0.1,0.1,0.4,0.1,0.5c0.2,0.2,0.4,0.5,0.6,0.7c0,0,0,0,0,0c-0.4-0.1-0.8-0.2-0.9-0.2c-0.6,0-0.3,0.2,0.3,0.4    c-0.3,0.1-0.6,0.2-0.6,0.3c-0.1,0-0.3,0-0.4,0.1c-0.1,0-0.2,0-0.2,0.1c-0.2,0.2-0.4,0.4-0.4,0.8c0,0.2,0.1,0.4,0.1,0.6    c-0.4,0.3-0.5,0.7-0.5,1.1c-0.1-0.2-0.3-0.3-0.4-0.4c-0.1-0.1-0.1,0.2-0.1,0.2c0,0.2,0.1,0.4,0.2,0.6c-0.4,0-0.9,0.2-1.1,0.6    c0,0.1-0.1,0.1-0.1,0.2c-0.3-0.2-0.6-0.4-0.6-0.2c0,0.2,0.1,0.4,0.2,0.5c0.1,0.3,0.3,0.5,0.5,0.7c-0.3,0.1-0.4,0.4-0.4,0.7    c-0.1,0-0.3,0-0.4,0c-0.3,0.1-0.6,0.2-0.9,0.5c-0.2,0.2-0.4,0.5-0.4,0.7c-0.2,0-0.4,0.1-0.3,0.4c0.1,0.2,0.1,0.4,0.2,0.6    c0,0.1,0.1,0.3,0.2,0.4c-0.4,0.4-0.5,1-0.3,1.7c-0.1,0.1-0.2,0.2-0.3,0.4c-0.2,0.1-0.3,0.3-0.4,0.5c-0.2,0.3-0.3,0.6-0.4,1    c-0.1-0.1-0.1-0.1-0.2-0.2c-0.1,0-0.2-0.1-0.2,0c0,0.3,0.1,0.5,0.3,0.7c0,0,0,0.1,0.1,0.1c0,0.1,0,0.2,0,0.3c0,0,0,0,0,0    c-0.6,0-1,0.6-0.8,1.2c0.1,0.2,0.1,0.4,0.2,0.6c0.1,0.2,0.2,0.4,0.4,0.6c-0.3,0.1-0.5,0.3-0.5,0.7c0,0.5,0.1,0.9,0.3,1.3    c0.1,0.2,0.2,0.3,0.3,0.4c0,0.1,0,0.1,0,0.2v0c-0.2-0.2-0.4-0.4-0.6-0.6c0,0-0.9-0.7-0.9-0.4c0,0.1,0.1,0.2,0.1,0.3    c0,0.2,0.2,0.4,0.3,0.5c0.2,0.2,0.5,0.5,0.7,0.7c0,0,0.6,0.4,0.8,0.5c-0.1,0.1-0.2,0.1-0.2,0.2c-0.8,0.2-2.2,0.8-1.2,0.8    c0.1,0,0.4-0.1,0.6-0.1l0,0c-1.1,0.2-1.1,1.4-0.4,2c-0.9,0.2-1.8,1-1.2,1.7c0.1,0.1,0.3,0.2,0.5,0.2c-0.1,0.3-0.2,0.6-0.1,1    c0.1,0.6,0.6,1,1.2,1.3c-0.1,0.4-0.1,0.8,0.1,1.2c0.3,0.6,0.7,1.1,1.3,1.4c-0.5,0.1-1,0.5-0.4,1c0.5,0.5,1.3,0.8,2.1,0.9    c0,0,0,0,0,0c0,0-0.1,0.1-0.1,0.1c-0.6,0-0.7,0.2-0.2,0.5c-0.1,0.2-0.2,0.5-0.2,0.7c-0.1,0.5,0.1,1,0.3,1.4c0,0,0,0,0,0    c0,0,0,0,0,0c0.1,0.1,0.2,0.3,0.3,0.4l0,0c0.1,0.1,0.1,0.1,0.2,0.2c0.2,0.3,0.9,0.6,1.2,0.7c0.1,0,0.3,0,0.4,0    c-0.2,0.7-0.1,1.4,0.7,1.7c0.3,0.7,1.2,1.3,1.9,1.3c0.2,0,0.5,0,0.7,0c0.5,0,1-0.2,1.4-0.4c0.1-0.1,0.2-0.1,0.3-0.2    c0,0,0.1,0.1,0.1,0.1c0.5,0.3,1,0.4,1.5,0.4c0,2,0.3,4.1,0.3,6.1c-0.1,3.3-0.2,6.5-0.6,9.8h-24.2v-13.2c0.2,0,0.3,0,0.5,0    c0.6-0.1,1-0.5,1.2-1.1c0.3-0.2,0.6-0.4,0.9-0.6c0.2-0.1,0.4-0.2,0.6-0.3c0.1-0.1,0.2-0.2,0.2-0.4c0.1-0.1,0.1-0.1,0.2-0.2    c0.1-0.1,0.1-0.2,0.2-0.3c0.3-0.4,0.3-0.9,0.1-1.2c0-0.1,0-0.2,0-0.3c0-0.2-0.1-0.3-0.2-0.3c1-0.9,1.8-2,2.4-3.3    c0.4-0.8-0.3-1.5-1-1.6c-0.1,0-0.3,0-0.4,0c-0.2-0.3-0.6-0.5-0.9-0.5c0,0-0.1,0-0.1,0c0-0.1,0-0.2,0-0.3c1.5-1.1,2.4-2.9,2-4.7    c-0.2-0.9-0.9-1.2-1.6-1c0,0,0,0,0-0.1c0.2,0,0.4-0.1,0.6-0.1c0.6-0.1,0.3-1-0.3-1.8c0.1-0.1,0.1-0.1,0.2-0.2    c0.1-0.1,0-0.3-0.3-0.5c0.5-0.6,0-1.5-0.6-1.8c-0.6-0.2-1.1-0.4-1.7-0.5c0,0,0,0,0-0.1c0-0.4-0.2-0.7-0.5-0.9c0,0,0,0,0.1,0    c0.6-0.2,1.3-1,1-1.7c-0.3-0.6-1-0.7-1.5-0.6c0.1-0.2,0.2-0.4,0.3-0.6c0.4-0.6,0.3-1.5-0.4-1.8c-0.7-0.3-1.6,0.1-2.1,0.7    c0.3-0.6,0.5-1.3,0.8-1.9c0.2-0.6-1.2-0.3-1.4-0.2c-0.1,0-0.2,0.1-0.4,0.1c-0.3-0.1-0.6-0.1-1-0.1c-0.3-0.4-0.9-0.6-1.3-0.6    c-0.8,0-1.6,0.5-1.7,1.3c-0.9-0.6-2.7-0.7-2.6,0.3c0,0.1,0.1,0.3,0.1,0.4c-0.1,0-0.3,0-0.4,0.1c-0.3,0.1-0.8,0.3-1,0.7v-4.9h-20.6    v11.2h-16.7v-16.3h-42.5v16.3h-7.1v-11.2h-19.3v11.2h-16.1v-8.2h-20.6v8.2h-5c0.7-0.9,0.3-2.5-1-2.9c0.6-0.5,1.1-1.2,1-2    c0-0.2-0.1-0.3-0.2-0.5c-0.1-0.3-0.4-0.6-0.7-0.7v-0.1c0-0.3-0.3-0.7-0.5-0.9c-0.2-0.2-0.4-0.4-0.7-0.5c0.3,0,0.6-0.1,0.9-0.1    c0.1,0,0.6-0.1,0.6-0.3c0-0.3-0.2-0.5-0.4-0.6c-0.1-0.1-0.3-0.2-0.5-0.2c0.1-0.1,0.1-0.2,0.2-0.3c0.2-0.2-0.1-0.6-0.2-0.7    c-0.2-0.4-0.6-0.8-0.9-1.1c-0.1-0.1-0.3-0.3-0.4-0.4c0.1-0.1,0.2-0.2,0.2-0.3c0-0.5-1.5-0.5-2-0.5l0-0.1c0,0,0-0.1,0-0.1l0,0    c0.4-0.6,0-1.2-0.5-1.7c0.4,0,0.8,0,0.3-0.3c-0.4-0.2-0.9-0.4-1.3-0.6c0.3-0.6-0.6-0.9-1.1-0.9c-0.1,0-0.2,0-0.3,0    c0.2-0.2,0.4-0.3,0.4-0.6c0.1,0,0.2-0.1,0.3-0.1c0.9-0.1-0.2-1.5-0.4-1.8c-0.6-0.6-1.4-1.3-2.3-1.2c-0.1,0-0.2,0-0.3,0.1    c-0.3-0.4-1.3-1.1-1.8-1.2c0,0,0,0,0,0c-0.4-0.5-1.1-0.8-1.7-0.5c0,0,0,0,0,0c-0.3-0.2-0.6-0.3-0.8-0.1c0,0-0.1,0.1-0.1,0.1    c-0.1,0-0.2,0-0.2-0.1c-0.1-0.2-0.2-0.3-0.3-0.5c-0.4-0.5-1.1-0.5-1.6-0.2c-0.2,0.1-0.3,0.3-0.5,0.4c-0.1,0-0.1-0.1-0.2-0.1    c-0.3-0.1-0.9-0.3-0.8,0.3c0,0.1,0.1,0.3,0.1,0.4c-0.2-0.1-0.4-0.3-0.7-0.3l0-0.1c0,0,0,0,0,0.1c-0.2-0.1-0.5-0.1-0.7,0    c-0.1,0-0.1,0-0.2,0.1c-0.1-0.1-0.3-0.2-0.4-0.2c-0.1,0-0.4-0.1-0.5,0c-0.1,0.1,0.1,0.4,0.1,0.5c0.2,0.2,0.4,0.5,0.6,0.7    c0,0,0,0,0,0c-0.4-0.1-0.8-0.2-0.9-0.2c-0.6,0-0.3,0.2,0.3,0.4c-0.3,0.1-0.6,0.2-0.6,0.3c-0.1,0-0.3,0-0.4,0.1    c-0.1,0-0.2,0-0.2,0.1c-0.2,0.2-0.4,0.4-0.4,0.8c0,0.2,0.1,0.4,0.1,0.6c-0.4,0.3-0.5,0.7-0.5,1.1c-0.1-0.2-0.3-0.3-0.4-0.4    c-0.1-0.1-0.1,0.2-0.1,0.2c0,0.2,0.1,0.4,0.2,0.6c-0.4,0-0.9,0.2-1.1,0.6c0,0.1-0.1,0.1-0.1,0.2c-0.3-0.2-0.6-0.4-0.6-0.2    c0,0.2,0.1,0.4,0.2,0.5c0.1,0.3,0.3,0.5,0.5,0.7c-0.3,0.1-0.4,0.4-0.4,0.7c-0.1,0-0.3,0-0.4,0c-0.3,0.1-0.6,0.2-0.9,0.5    c-0.2,0.2-0.4,0.5-0.4,0.7c-0.2,0-0.4,0.1-0.3,0.4c0.1,0.2,0.1,0.4,0.2,0.6c0,0.1,0.1,0.3,0.2,0.4c-0.4,0.4-0.5,1-0.3,1.7    c-0.1,0.1-0.2,0.2-0.3,0.4c-0.2,0.1-0.3,0.3-0.4,0.5c-0.2,0.3-0.3,0.6-0.4,1c-0.1-0.1-0.1-0.1-0.2-0.2c-0.1,0-0.2-0.1-0.2,0    c0,0.3,0.1,0.5,0.3,0.7c0,0,0,0.1,0.1,0.1c0,0.1,0,0.2,0,0.3h0c-0.6,0-1,0.6-0.8,1.2c0.1,0.2,0.1,0.4,0.2,0.6    c0.1,0.2,0.2,0.4,0.4,0.6c-0.3,0.1-0.5,0.3-0.5,0.7c0,0.5,0.1,0.9,0.3,1.3c0.1,0.2,0.2,0.3,0.3,0.4c0,0.1,0,0.1,0,0.2v0    c-0.2-0.2-0.4-0.4-0.6-0.6c0,0-0.9-0.7-0.9-0.4c0,0.1,0.1,0.2,0.1,0.3c0,0.2,0.2,0.4,0.3,0.5c0.2,0.2,0.5,0.5,0.7,0.7    c0,0,0.6,0.4,0.8,0.5c-0.1,0.1-0.2,0.1-0.2,0.2c-0.8,0.2-2.2,0.8-1.2,0.8c0.1,0,0.4-0.1,0.6-0.1l0,0c-1.1,0.2-1.1,1.4-0.4,2    c-0.9,0.2-1.8,1-1.2,1.7c0.1,0.1,0.3,0.2,0.5,0.2c-0.1,0.3-0.2,0.6-0.1,1c0.1,0.6,0.6,1,1.2,1.3c-0.1,0.4-0.1,0.8,0.1,1.2    c0.3,0.6,0.7,1.1,1.3,1.4c-0.5,0.1-1,0.5-0.4,1c0.5,0.5,1.3,0.8,2.1,0.9c0,0,0,0,0,0c0,0-0.1,0.1-0.1,0.1c-0.6,0-0.7,0.2-0.2,0.5    c-0.1,0.2-0.2,0.5-0.2,0.7c-0.1,0.5,0.1,1,0.3,1.4c0,0,0,0,0,0c0,0,0,0,0,0c0.1,0.1,0.2,0.3,0.3,0.4l0,0c0.1,0.1,0.1,0.1,0.2,0.2    c0.2,0.3,0.9,0.6,1.2,0.7c0.1,0,0.3,0,0.4,0c-0.2,0.7-0.1,1.4,0.7,1.7c0.3,0.7,1.2,1.3,1.9,1.3c0.2,0,0.5,0,0.7,0    c0.5,0,1-0.2,1.4-0.4c0.1-0.1,0.2-0.1,0.3-0.2c0,0,0.1,0.1,0.1,0.1c0.5,0.3,1,0.4,1.5,0.4c0,2,0.3,4.1,0.3,6.1    c-0.1,3.3-0.2,6.5-0.6,9.8h-23.3c-0.1-0.2-0.4-0.6-0.4-0.7c-0.6-0.8-1.2-1.5-2-2.1h1.2c0.2,0-1.3-2.5-2.2-2.6    c-0.5,0-1.2-0.2-1.7-0.3c0.2-0.1,0.4-0.1,0.6-0.2c0,0-0.1-0.1-0.2-0.3c1.4-0.3,2.8-0.7,4.2-1c0,0-0.8-1.4-1.6-2.2    c0-0.1-0.1-0.2-0.2-0.3c0,0,0.1-0.1,0.1-0.1c0.1-0.1,0.1-0.1,0.2-0.2c0.1-0.2,0.2-0.4,0.2-0.6c0.2-0.1,0.5-0.2,0.8-0.2    c0,0,0,0,0,0c0.6,0,1.3,0,2-0.1c0.3,0-0.4-0.9-1-1.6h0.9c0,0,0-0.1,0-0.2c0.8-0.1,1.6-0.2,2.4-0.1c0,0,0-0.2-0.2-0.4    c0.7-0.3,1.5-0.5,2.2-0.9c0.3-0.2-1.7-2.4-2.2-2.5c-0.2-0.3-0.5-0.8-0.8-1.2c0.6-0.2,1.2-0.5,1.8-0.8c0.2-0.1-1.1-1.7-1.9-2.3    l0-1.1c0.1,0,0.2-0.1,0.2-0.2c0-0.1,0-0.1,0.1-0.2c0.6-0.1,1.1-0.2,1-0.4c-0.1-0.2-0.3-0.5-0.4-0.7c0.6-0.2,0.5-0.4,0.2-0.5    c0.4-0.1,0.6-0.2,0.3-0.3c-0.3-0.1-0.5-0.1-0.8-0.2c-0.2-0.1-0.5-0.2-0.7-0.3c0,0,0,0-0.1-0.1c0.6,0,3.5-0.3,2.6-0.6    c-0.7-0.3-1.4-0.4-2-0.5c-0.8-0.2-1.6-0.5-2.5-0.8c0,0-0.1,0-0.1,0c0.1-0.1,0-0.2-0.2-0.3c-0.6-0.4-0.5-0.8,0.2-1.1    c0.4-0.4-1.9-0.5-2.1-0.5c1.8-0.2,2.3,0.3,2.8-1.7c0.1-0.3-0.7-0.4-1.4-0.4c0,0,0,0,0,0c-0.5-0.6-0.9-1-1.7-1.1    c-0.2,0-0.4,0-0.6,0c0.1-0.4-0.2-1-0.6-1.4c0.1-0.1,0.2-0.2,0.4-0.2c0.4-0.2,0.2-0.6-0.2-0.6c0,0,0,0-0.1,0    c0.2-0.1,0.3-0.3,0.5-0.5c0.1-0.1,0.1-0.2,0-0.2c0.2-0.2,0.3-0.4,0.3-0.6c0,0,0.1-0.1,0.1-0.1c0.1-0.2,0.1-0.3-0.1-0.3    c0.3-0.1,0.5-0.5,0-0.6c-0.2,0-0.3,0-0.5,0c-0.3-0.4-0.7-0.7-1.1-0.8c0.3-0.1,0.5-0.2,0.2-0.3c-0.3-0.1-0.7-0.3-1-0.5    c0.2-0.1,0.3-0.1,0.4-0.3c0.1-0.2,0.1-0.4-0.2-0.4c-0.2,0-0.3-0.1-0.4-0.3c0.3-0.1,0.5-0.2,0.5-0.5c0-0.2,0-0.4-0.1-0.6    c0,0,0-0.1-0.1-0.1c0,0,0-0.1,0-0.1c0.2-0.1,0.3-0.3,0.2-0.5c-0.1-0.1-0.1-0.1-0.2-0.2c0.1-0.1,0.2-0.3,0.1-0.4    c0,0-0.1-0.1-0.1-0.1c0,0,0,0-0.1-0.1c0,0,0,0,0,0c0,0,0,0,0,0c0,0,0,0-0.1,0c0,0,0,0,0,0c-0.1,0-0.2,0-0.3,0    c0.1-0.1,0.2-0.1,0.2-0.1c0-0.1-0.5,0.2-0.5,0.2c-0.1,0,0-0.2,0-0.3c0.1-0.1,0.2-0.2,0.3-0.3c0,0,0,0,0,0c-0.2,0-0.4,0.1-0.5,0.2    c-0.1,0-0.1,0-0.1-0.1c0.1,0,0.1-0.1,0.2-0.1c0,0,0.4-0.2,0.1-0.2c-0.2,0-0.4,0.1-0.5,0.1c0.1-0.1,0.2-0.3,0.3-0.4    c0.2,0,0.5-0.1,0.7-0.2c0.2-0.1,0.2-0.3,0-0.3c-0.2,0-0.3,0-0.5,0c0.1-0.1,0.2-0.1,0.3-0.2c0.3-0.3,0-0.5-0.3-0.6c0,0,0,0,0.1,0    c0.6-0.3-0.2-0.9-0.6-0.8c0,0-0.1,0-0.1,0.1c0,0,0,0,0,0c0,0,0,0,0,0c-0.1-0.1-0.3-0.2-0.5-0.2c-0.1-0.1-0.2-0.1-0.3-0.2    c0,0,0,0,0-0.1c0-0.1,0.1-0.1,0.1-0.2c0.1-0.1,0.1-0.2,0-0.3c0,0,0.1,0,0.1,0c0.3-0.2,0.3-0.4,0.1-0.6c0-0.1-0.2-0.5-0.4-0.7    c0-0.1,0-0.2,0-0.2c0.3,0,0.5-0.2,0.4-0.4c0.3-0.2,0-0.6-0.3-0.7c-0.2-0.1-0.3-0.4-0.4-0.5c-0.1-0.1-0.2-0.2-0.2-0.3    c-0.1-0.3-0.1-0.5-0.1-0.5c-0.1-0.3-0.4-0.5-0.6-0.6c0.2-0.2-0.4-0.6-0.6-0.6c0,0-0.1,0-0.1,0c0,0,0,0,0,0    c-0.1-0.1-0.2-0.2-0.2-0.3c0-0.1-0.1-0.1-0.2-0.2c-0.1-0.2-0.4-0.4-0.6-0.4c-0.2,0-0.3,0-0.5,0c0,0-0.1-0.1-0.1-0.1c0,0,0,0,0,0    c0.6-0.3,0.1-1.1-0.4-1.1c0,0-0.1-0.1-0.1-0.1c0.1-0.2,0.2-0.4,0.1-0.6c-0.1-0.4-0.4-0.7-0.8-0.7c-0.1,0-0.3,0-0.4,0.1    c0,0-0.1,0-0.1,0c0,0,0,0-0.1,0c-0.2-0.1-0.3-0.2-0.5-0.3c-0.1-0.1-0.1-0.3-0.2-0.4c-0.2-0.4-0.9-0.7-1.1-0.1c0,0,0,0.1,0,0.1    c-0.1,0-0.1,0-0.1,0.1v0.7c-0.7,0.1-1.3,0.5-1.5,1.1c-0.2,0.5-0.3,0.9-0.4,1.3c-0.9,0.7-1.6,1.7-2.7,1.9c-0.5,0.1-0.3,0.7,0,0.9    c0,0,0.1,0.1,0.1,0.1c-0.1,0.2-0.2,0.3-0.3,0.5c-0.2-0.1-0.3-0.2-0.4,0.1c0,0-0.1,0-0.1,0c-0.3-0.2-0.4,0.2-0.3,0.4    c0,0-0.1,0-0.1-0.1c-0.5-0.6-0.7,0.1-0.4,0.6c0.1,0.1,0.1,0.1,0.2,0.2c0,0,0,0,0,0c-0.3-0.1-0.5,0-0.7,0.2    c-0.3-0.2-0.3,0.1-0.3,0.4c0,0,0,0,0,0c-0.1,0.3,0.2,1,0.5,1c0,0,0,0.1,0.1,0.1c0,0,0,0.1-0.1,0.1c-0.3,0.1-0.7,0.3-0.6,0.6    c0.1,0.1,0.2,0.2,0.3,0.4c0,0.1,0,0.1,0.1,0.1h0c0.1,0.1,0.2,0.1,0.3,0.2c-0.1,0-0.3,0.1-0.4,0.1c-0.2,0.1-0.2,0.2-0.1,0.4    c-0.2,0.1-0.3,0.1-0.4,0.3c-0.2,0.2-0.1,0.6,0.1,0.8c0,0,0,0.1,0,0.1c0,0.1,0.1,0.2,0.1,0.3c-0.1,0-0.1,0.1-0.2,0.1    c-0.3,0-0.6,0.1-0.8,0.4c-0.3,0-0.6,0-0.9-0.1c-0.2,0-1.2,0.4-0.9,0.7c0.3,0.2,0.6,0.4,1,0.6c-0.2,0.1-0.4,0.3-0.7,0.5    c-0.4,0.3,0,0.4,0.4,0.3c0,0.2,0,0.4,0.1,0.6c-0.4,0.6-0.2,1.3,0.4,1.7c-0.4,0.4-0.7,0.8-0.9,1.4c-0.1,0.1-0.1,0.1-0.2,0.2    c-0.3,0-0.5-0.1-0.8-0.1c-0.7-0.1-0.8,0.6-0.6,1.3c-0.7,0.5,0.4,2.8,1.2,3.1c0.5,0.2,1.1,0.4,1.6,0.7c0,0,0,0,0,0    c0,0,0.1,0,0.1,0.1c0,0.1,0,0.3,0,0.5c-0.7,0.2-1.4,0.4-2.2,0.5c-1.6,0.2-2,2.1-0.7,2.6c-0.8,0.5-1.6,1-2.4,1.6    c-1.1,0.9-0.4,1.8,0.8,1.7l-0.6,0.4c-0.4,0.4-0.4,0.7-0.3,0.9c-0.8,0.8-1.7,1.5-2.5,2.3c0,0-0.1-0.1-0.1-0.1    c-0.6-0.5-1.2-0.9-1.9-1.3c1-0.4,0.8-1.9-0.5-2c-0.6-0.1-1.2-0.2-1.7-0.4c0-0.1,0-0.2,0-0.4c0,0,0,0,0.1,0c0,0,0,0,0,0    c0.4-0.2,0.8-0.4,1.2-0.6c0.6-0.2,1.5-2,0.9-2.4c0.1-0.5,0.1-1.1-0.5-1c-0.2,0-0.4,0.1-0.6,0.1c0-0.1-0.1-0.1-0.1-0.2    c-0.2-0.4-0.4-0.8-0.7-1.1c0.5-0.3,0.6-0.9,0.3-1.3c0.1-0.2,0.1-0.3,0.1-0.5c0.3,0.1,0.7,0.1,0.3-0.2c-0.2-0.2-0.4-0.3-0.6-0.4    c0.3-0.1,0.5-0.3,0.8-0.5c0.3-0.2-0.5-0.5-0.7-0.5c-0.2,0-0.5,0.1-0.7,0.1c-0.1-0.2-0.4-0.3-0.6-0.3c0,0-0.1-0.1-0.1-0.1    c0-0.1,0.1-0.1,0.1-0.2c0,0,0-0.1,0-0.1c0.2-0.2,0.3-0.5,0.1-0.7c-0.1-0.1-0.2-0.2-0.3-0.2c0-0.1,0-0.3-0.1-0.3    c-0.1,0-0.2-0.1-0.3-0.1c0.1-0.1,0.1-0.1,0.2-0.2h0c0.1,0,0.1-0.1,0.1-0.1c0.1-0.1,0.2-0.2,0.2-0.3c0.1-0.2-0.2-0.4-0.5-0.4    c0,0,0-0.1,0-0.1c0,0,0-0.1,0.1-0.1c0.3,0,0.5-0.5,0.4-0.8c0,0,0,0,0,0c0.1-0.2,0-0.4-0.2-0.3c-0.2-0.2-0.3-0.3-0.5-0.2    c0,0,0,0,0,0c0,0,0.1-0.1,0.1-0.2c0.3-0.3,0.1-0.9-0.3-0.4c0,0,0,0-0.1,0.1c0.1-0.2,0-0.5-0.3-0.3c0,0-0.1,0-0.1,0    c-0.1-0.2-0.2-0.1-0.3,0c-0.1-0.1-0.1-0.3-0.2-0.4c0,0,0-0.1,0.1-0.1c0.2-0.2,0.4-0.6,0-0.7c-0.9-0.1-1.5-1-2.1-1.5    c-0.1-0.3-0.2-0.7-0.3-1c-0.2-0.5-0.6-0.8-1.1-0.9v-0.5c0-0.1,0-0.1-0.1-0.1c0,0,0-0.1,0-0.1c-0.1-0.5-0.7-0.3-0.8,0.1    c0,0.1-0.1,0.2-0.1,0.3c-0.1,0-0.3,0.1-0.4,0.2c0,0,0,0,0,0c0,0-0.1,0-0.1,0c-0.1-0.1-0.2-0.1-0.3-0.1c-0.3,0-0.6,0.2-0.6,0.6    c0,0.2,0,0.3,0.1,0.5c0,0,0,0.1-0.1,0.1c-0.4,0-0.7,0.6-0.3,0.8c0,0,0,0,0,0c0,0-0.1,0-0.1,0.1c-0.1,0-0.2,0-0.4,0    c-0.1,0-0.4,0.1-0.5,0.3c0,0-0.1,0.1-0.1,0.1c-0.1,0.1-0.1,0.2-0.2,0.3c0,0,0,0,0,0c0,0-0.1,0-0.1,0c-0.1,0-0.6,0.3-0.5,0.5    c-0.2,0.1-0.4,0.3-0.5,0.5c0,0-0.1,0.2-0.1,0.4c-0.1,0.1-0.1,0.1-0.2,0.2c-0.1,0.1-0.2,0.4-0.3,0.4c-0.2,0.1-0.5,0.4-0.2,0.5    c-0.1,0.2,0.1,0.3,0.3,0.3c0,0.1,0,0.1,0,0.2c-0.1,0.1-0.4,0.4-0.3,0.5c-0.1,0.1-0.2,0.3,0.1,0.5c0,0,0.1,0,0.1,0    c0,0.1,0,0.2,0,0.3c0,0.1,0.1,0.1,0.1,0.1c0,0,0,0,0,0c-0.1,0-0.1,0.1-0.2,0.1c-0.1,0-0.3,0-0.4,0.1c0,0,0,0,0,0c0,0,0,0,0,0    c0,0-0.1,0-0.1,0c-0.4-0.1-0.9,0.3-0.5,0.6c0,0,0,0,0,0c-0.3,0.1-0.5,0.3-0.2,0.5c0.1,0.1,0.1,0.1,0.2,0.1c-0.1,0-0.3,0-0.4,0    c-0.2,0-0.2,0.2,0,0.2c0.2,0.1,0.4,0.1,0.5,0.2c0.1,0.1,0.1,0.2,0.2,0.4c-0.1,0-0.3,0-0.4,0c-0.2,0,0.1,0.1,0.1,0.1    c0.1,0,0.1,0.1,0.2,0.1c0,0,0,0-0.1,0c-0.1-0.1-0.3-0.1-0.4-0.1c0,0,0,0,0,0c0.1,0.1,0.2,0.2,0.3,0.2c0,0.1,0.1,0.3,0,0.3    c0,0-0.4-0.2-0.4-0.2c0,0,0,0.1,0.1,0.1c-0.1,0-0.2,0-0.2,0c0,0,0,0,0,0c0,0,0,0,0,0c0,0,0,0,0,0c0,0,0,0,0,0c0,0,0,0-0.1,0.1    c0,0-0.1,0.1-0.1,0.1c-0.1,0.1,0,0.2,0.1,0.3c0,0.1-0.1,0.1-0.1,0.2c-0.1,0.1,0,0.3,0.1,0.4c0,0,0,0.1,0,0.1c0,0-0.1,0-0.1,0.1    c0,0.1-0.1,0.3-0.1,0.4c0,0.2,0.2,0.3,0.4,0.4c-0.1,0.1-0.1,0.2-0.3,0.2c-0.2,0-0.3,0.2-0.1,0.3c0.1,0.1,0.2,0.2,0.3,0.2    c-0.1,0-0.2,0.1-0.2,0.1c-0.7-0.5-1.4-1-2.2-1.4c1.5-0.6,1.1-2.9-0.8-3.1c-0.9-0.1-1.7-0.3-2.5-0.6c0-0.2,0-0.4,0-0.5    c0,0,0.1,0,0.1-0.1c0,0,0,0,0,0c0.6-0.3,1.2-0.6,1.8-0.8c0.9-0.3,2.2-3,1.4-3.6c0.2-0.8,0.1-1.6-0.7-1.5c-0.3,0-0.6,0.1-1,0.1    c-0.1-0.1-0.1-0.2-0.2-0.2c-0.3-0.6-0.7-1.2-1.1-1.6c0.7-0.4,0.9-1.3,0.5-2c0.1-0.2,0.2-0.5,0.1-0.8c0.4,0.1,1,0.1,0.5-0.3    c-0.3-0.2-0.6-0.4-0.8-0.6c0.4-0.2,0.8-0.4,1.1-0.7c0.4-0.3-0.8-0.8-1-0.8c-0.4,0.1-0.7,0.1-1.1,0.1c-0.2-0.3-0.6-0.5-0.9-0.4    c-0.1-0.1-0.1-0.1-0.2-0.1c0.1-0.1,0.1-0.2,0.2-0.4c0,0,0-0.1,0-0.1c0.3-0.3,0.4-0.7,0.2-1c-0.2-0.1-0.3-0.2-0.5-0.3    c0.1-0.2,0.1-0.4-0.1-0.5c-0.2-0.1-0.3-0.1-0.5-0.2c0.1-0.1,0.2-0.1,0.3-0.2h0c0.1,0,0.1-0.1,0.1-0.2c0.1-0.1,0.2-0.3,0.4-0.4    c0.2-0.3-0.3-0.5-0.7-0.7c0,0,0-0.1-0.1-0.1c0-0.1,0.1-0.1,0.1-0.2c0.5,0,0.8-0.7,0.6-1.1c0,0,0,0,0,0c0.1-0.3,0-0.7-0.3-0.5    c-0.2-0.2-0.5-0.4-0.8-0.3c0,0,0,0,0,0c0-0.1,0.1-0.1,0.2-0.2c0.4-0.5,0.2-1.4-0.4-0.7c0,0-0.1,0.1-0.1,0.1c0.1-0.3,0-0.7-0.4-0.5    c-0.1,0-0.1,0-0.2,0c-0.1-0.3-0.3-0.2-0.5-0.1c-0.1-0.2-0.2-0.4-0.3-0.6c0,0,0.1-0.1,0.1-0.1c0.3-0.3,0.5-1-0.1-1.1    c-1.4-0.2-2.2-1.4-3.2-2.2c-0.1-0.5-0.2-1-0.4-1.6c-0.2-0.7-0.9-1.1-1.7-1.3v-0.8c0-0.1-0.1-0.1-0.1-0.1c0,0,0-0.1,0-0.1    c-0.1-0.7-1.1-0.4-1.3,0.1c-0.1,0.2-0.1,0.3-0.2,0.5c-0.2,0.1-0.4,0.2-0.6,0.3c0,0,0,0-0.1,0c0,0-0.1,0-0.1,0    c-0.1-0.1-0.3-0.2-0.5-0.1c-0.5,0.1-0.8,0.4-0.9,0.8c0,0.2,0,0.5,0.1,0.7c0,0-0.1,0.1-0.1,0.1c-0.6,0-1.1,0.9-0.4,1.2c0,0,0,0,0,0    c0,0-0.1,0.1-0.1,0.1c-0.2,0-0.4,0-0.5,0c-0.2,0-0.6,0.2-0.7,0.4c-0.1,0.1-0.1,0.1-0.2,0.2c-0.1,0.1-0.2,0.3-0.3,0.4c0,0,0,0,0,0    c-0.1,0-0.1,0-0.2,0c-0.2,0-0.9,0.4-0.7,0.7c-0.3,0.2-0.6,0.4-0.7,0.7c0,0-0.1,0.3-0.2,0.6c-0.1,0.1-0.2,0.2-0.3,0.3    c-0.1,0.2-0.2,0.6-0.5,0.6c-0.3,0.1-0.7,0.6-0.4,0.8c-0.1,0.2,0.2,0.4,0.5,0.4c0,0.1,0,0.2,0,0.3c-0.2,0.2-0.5,0.6-0.5,0.8    c-0.2,0.2-0.2,0.5,0.1,0.7c0,0,0.1,0,0.1,0.1c0,0.1-0.1,0.2,0,0.4c0,0.1,0.1,0.1,0.2,0.2c0,0,0,0,0,0.1c-0.1,0.1-0.2,0.1-0.3,0.2    c-0.2,0-0.4,0-0.5,0.2c0,0,0,0,0,0c0,0,0,0,0,0c0,0-0.1-0.1-0.1-0.1c-0.5-0.2-1.4,0.5-0.7,0.9c0,0,0,0,0.1,0    c-0.4,0.1-0.7,0.4-0.4,0.7c0.1,0.1,0.2,0.1,0.3,0.2c-0.2,0-0.4-0.1-0.6,0c-0.3,0.1-0.3,0.2-0.1,0.4c0.3,0.1,0.5,0.2,0.8,0.3    c0.1,0.2,0.2,0.4,0.3,0.5c-0.2,0-0.4,0-0.6-0.1c-0.3-0.1,0.1,0.2,0.2,0.2c0.1,0,0.2,0.1,0.2,0.1c0,0-0.1,0-0.1,0.1    c-0.2-0.1-0.4-0.2-0.6-0.2c0,0,0,0,0,0c0.1,0.1,0.2,0.2,0.4,0.3c0.1,0.2,0.1,0.4,0,0.4c0,0-0.6-0.3-0.6-0.2c0,0,0.1,0.1,0.2,0.2    c-0.1,0-0.3,0-0.3,0c0,0,0,0,0,0c0,0,0,0-0.1,0c0,0,0,0,0,0c0,0,0,0,0,0c0,0-0.1,0.1-0.1,0.1c0,0-0.1,0.1-0.1,0.1    c-0.1,0.2-0.1,0.4,0.1,0.5c0,0.1-0.1,0.2-0.2,0.3c-0.2,0.2,0,0.4,0.2,0.6c0,0.1,0,0.1,0,0.2c0,0-0.1,0.1-0.1,0.1    c-0.1,0.2-0.1,0.4-0.1,0.7c0,0.3,0.3,0.5,0.6,0.6c-0.1,0.1-0.2,0.3-0.4,0.3c-0.3,0-0.4,0.3-0.2,0.5c0.1,0.2,0.3,0.3,0.5,0.3    c-0.4,0.2-0.8,0.4-1.2,0.5c-0.3,0.2-0.2,0.3,0.2,0.4c-0.5,0.1-1,0.5-1.3,1c-0.2,0-0.4,0-0.6,0c-0.6,0.1-0.4,0.5,0,0.7    c-0.1,0.1-0.2,0.2-0.1,0.4c0,0,0.1,0.1,0.1,0.1c0,0.3,0.1,0.5,0.3,0.7c0,0.1,0,0.2,0.1,0.3c0.2,0.2,0.4,0.4,0.6,0.6c0,0,0,0-0.1,0    c-0.5,0-0.8,0.4-0.3,0.7c0.2,0.1,0.3,0.2,0.4,0.3c-0.5,0.5-0.8,1.1-0.7,1.6c-0.2,0-0.5,0-0.7,0c-0.4,0-0.6,0.2-0.9,0.3    c-0.2-0.2-0.4-0.4-0.8-0.5c0.7-0.5,1.1-1.2,1-2c0-0.2-0.1-0.3-0.2-0.5c-0.1-0.3-0.4-0.6-0.7-0.7v-0.1c0-0.3-0.3-0.7-0.6-0.9    c-0.2-0.2-0.4-0.4-0.7-0.5c0.3,0,0.6-0.1,0.9-0.1c0.1,0,0.6-0.1,0.6-0.4c0-0.3-0.2-0.5-0.4-0.6c-0.1-0.1-0.3-0.2-0.5-0.2    c0.1-0.1,0.1-0.2,0.2-0.3c0.2-0.2-0.1-0.6-0.2-0.7c-0.3-0.4-0.6-0.8-0.9-1.1c-0.1-0.1-0.3-0.3-0.4-0.4c0.1-0.1,0.2-0.2,0.2-0.3    c0-0.6-1.5-0.5-2-0.5l0-0.1c0-0.1,0-0.1,0-0.1l0,0c0.4-0.6,0-1.3-0.6-1.7c0.4,0,0.8,0,0.3-0.3c-0.4-0.2-0.9-0.4-1.3-0.6    c0.3-0.6-0.6-0.9-1.1-0.9c-0.1,0-0.2,0-0.3,0c0.2-0.2,0.4-0.4,0.4-0.6c0.1,0,0.2-0.1,0.3-0.1c0.9-0.1-0.2-1.6-0.4-1.8    c-0.6-0.6-1.5-1.3-2.4-1.2c-0.1,0-0.2,0-0.3,0.1c-0.3-0.4-1.3-1.1-1.8-1.2c0,0,0,0,0,0c-0.4-0.5-1.1-0.8-1.7-0.5c0,0,0,0,0,0    c-0.3-0.2-0.7-0.3-0.8-0.1c0,0-0.1,0.1-0.1,0.1c-0.1,0-0.2,0-0.2-0.1c-0.1-0.2-0.2-0.4-0.3-0.5c-0.4-0.5-1.1-0.5-1.6-0.2    c-0.2,0.1-0.3,0.3-0.5,0.5c-0.1,0-0.1-0.1-0.2-0.1c-0.3-0.1-0.9-0.3-0.8,0.3c0,0.1,0.1,0.3,0.2,0.4c-0.2-0.1-0.4-0.3-0.7-0.3    l0-0.1c0,0,0,0,0,0.1c-0.2-0.1-0.5-0.1-0.7,0c-0.1,0-0.1,0-0.2,0.1c-0.1-0.1-0.3-0.2-0.5-0.2c-0.1,0-0.4-0.1-0.5,0    c-0.1,0.1,0.1,0.4,0.1,0.5c0.2,0.2,0.4,0.5,0.6,0.7c0,0,0,0,0,0c-0.4-0.1-0.8-0.2-0.9-0.2c-0.6,0-0.3,0.2,0.3,0.4    c-0.3,0.1-0.6,0.2-0.6,0.3c-0.1,0-0.3,0-0.4,0.1c-0.1,0-0.2,0-0.2,0.1c-0.2,0.2-0.4,0.4-0.4,0.8c0,0.2,0.1,0.4,0.1,0.6    c-0.4,0.3-0.5,0.7-0.5,1.1c-0.1-0.2-0.3-0.3-0.5-0.4c-0.1-0.1-0.1,0.2-0.1,0.2c0,0.2,0.1,0.4,0.2,0.6c-0.4,0-0.9,0.2-1.1,0.6    c0,0.1-0.1,0.1-0.1,0.2c-0.3-0.2-0.6-0.4-0.6-0.2c0,0.2,0.1,0.4,0.2,0.5c0.1,0.3,0.3,0.5,0.5,0.8c-0.3,0.1-0.4,0.4-0.4,0.7    c-0.1,0-0.3,0-0.4,0c-0.3,0.1-0.6,0.2-0.9,0.5c-0.2,0.2-0.4,0.5-0.4,0.8c-0.2,0-0.4,0.1-0.3,0.4c0.1,0.2,0.1,0.4,0.2,0.6    c0,0.1,0.1,0.3,0.2,0.4c-0.4,0.4-0.5,1.1-0.3,1.7c-0.1,0.1-0.2,0.2-0.4,0.4c-0.2,0.1-0.3,0.3-0.4,0.5c-0.2,0.3-0.3,0.7-0.4,1    c-0.1-0.1-0.1-0.1-0.2-0.2c-0.1,0-0.2-0.1-0.2,0c0,0.3,0.1,0.5,0.3,0.7c0,0,0,0.1,0.1,0.1c0,0.1,0,0.2,0,0.3c0,0,0,0,0,0    c-0.6,0-1.1,0.6-0.9,1.2c0.1,0.2,0.1,0.4,0.2,0.7c0.1,0.2,0.2,0.4,0.4,0.6c-0.3,0.1-0.5,0.4-0.5,0.7c0,0.5,0.1,0.9,0.3,1.3    c0.1,0.2,0.2,0.3,0.3,0.4c0,0.1,0,0.1,0,0.2v0c-0.2-0.2-0.4-0.4-0.6-0.6c0,0-0.9-0.7-0.9-0.4c0,0.1,0.1,0.2,0.1,0.3    c0,0.2,0.2,0.4,0.3,0.5c0.2,0.3,0.5,0.5,0.7,0.7c0,0,0.6,0.5,0.8,0.5c-0.1,0.1-0.2,0.1-0.2,0.2c-0.8,0.2-2.2,0.8-1.2,0.8    c0.1,0,0.4-0.1,0.6-0.1l0,0c-1.1,0.2-1.2,1.5-0.4,2c-0.9,0.2-1.9,1.1-1.2,1.7c0.1,0.1,0.3,0.2,0.5,0.2c-0.1,0.3-0.2,0.7-0.1,1    c0.1,0.6,0.6,1.1,1.2,1.3c-0.1,0.4-0.1,0.8,0.1,1.3c0.3,0.6,0.8,1.1,1.3,1.5c-0.6,0.2-1,0.5-0.4,1c0.6,0.5,1.3,0.8,2.1,0.9    c0,0,0,0,0,0c0,0-0.1,0.1-0.1,0.1c-0.6,0-0.7,0.2-0.3,0.5c-0.1,0.2-0.2,0.5-0.2,0.7c-0.1,0.5,0.1,1,0.3,1.4c0,0,0,0,0,0    c0.1,0.1,0.2,0.3,0.3,0.4l0,0c0.1,0.1,0.1,0.1,0.2,0.2c0.2,0.3,0.9,0.6,1.3,0.7c0.1,0,0.3,0,0.4,0c-0.2,0.7-0.1,1.4,0.7,1.7    c0.3,0.7,1.2,1.3,1.9,1.3c0.2,0,0.5,0,0.7,0c0.5,0,1-0.2,1.5-0.4c0.1-0.1,0.2-0.1,0.3-0.2c0,0,0.1,0.1,0.1,0.1    c0.5,0.3,1,0.4,1.5,0.4c0,2.1,0.3,4.1,0.3,6.2c-0.1,3.3-0.3,6.7-0.6,10H720c-0.5-0.6-1.1-1.2-1.7-1.7h1.6c0.2,0-1.7-3.3-2.8-3.3    c-0.7,0-1.5-0.3-2.1-0.4c0.3-0.1,0.5-0.2,0.8-0.2c0,0-0.1-0.2-0.2-0.4c1.8-0.4,3.6-0.9,5.5-1.3c0,0-1.1-1.9-2.1-2.8    c-0.1-0.3-0.4-0.8-0.8-1.2c0.7-0.2,1.5-0.5,2.2-0.7c0,0,0,0,0,0c0.8,0,1.7,0,2.6-0.2c0.4-0.1-0.5-1.2-1.3-2.1h1.1    c0,0,0-0.1-0.1-0.2c1-0.2,2-0.2,3.1-0.1c0.1,0,0-0.2-0.2-0.5c1-0.3,1.9-0.7,2.8-1.2c0.4-0.2-2.2-3-2.9-3.3c-0.2-0.4-0.6-1-1.1-1.6    c0.8-0.3,1.5-0.6,2.3-1c0.3-0.1-1.4-2.3-2.4-3l0-1.4c0.2,0,0.3-0.1,0.3-0.3c0-0.1,0-0.2,0.1-0.3c0.7-0.1,1.4-0.2,1.2-0.5    c-0.2-0.3-0.3-0.6-0.5-0.9c0.8-0.2,0.7-0.5,0.2-0.6c0.5-0.1,0.8-0.3,0.4-0.4c-0.4-0.1-0.7-0.2-1.1-0.3c-0.3-0.1-0.6-0.2-1-0.4    c0,0-0.1-0.1-0.1-0.1c0.8,0.1,4.5-0.4,3.4-0.8c-0.9-0.3-1.8-0.6-2.6-0.7c-1.1-0.3-2.1-0.7-3.2-1c0,0-0.1,0-0.1,0    c0.1-0.1,0-0.2-0.3-0.3c-0.7-0.6-0.6-1,0.2-1.4c0.6-0.6-2.5-0.6-2.8-0.6c2.3-0.2,3,0.4,3.6-2.2c0.1-0.4-0.9-0.5-1.8-0.5    c0,0,0,0,0,0c-0.6-0.8-1.2-1.3-2.2-1.4c-0.3,0-0.5,0-0.8-0.1c0.1-0.6-0.2-1.3-0.7-1.8c0.1-0.1,0.3-0.2,0.5-0.3    c0.5-0.3,0.2-0.8-0.3-0.7c0,0-0.1,0-0.1,0c0.2-0.2,0.4-0.4,0.6-0.6c0.1-0.1,0.1-0.2,0.1-0.3c0.2-0.2,0.3-0.5,0.3-0.8    c0,0,0.1-0.1,0.1-0.1c0.2-0.2,0.1-0.4-0.1-0.4c0.4-0.2,0.7-0.6,0-0.8c-0.2-0.1-0.4-0.1-0.6,0c-0.4-0.5-0.9-0.9-1.5-1.1    c0.4-0.1,0.6-0.3,0.2-0.4c-0.4-0.2-0.9-0.4-1.3-0.6c0.2-0.1,0.4-0.2,0.5-0.3c0.2-0.3,0.1-0.5-0.2-0.6c-0.2,0-0.3-0.2-0.5-0.3    c0.3-0.1,0.7-0.3,0.7-0.6c0-0.2-0.1-0.5-0.1-0.7c0-0.1-0.1-0.1-0.1-0.1c0-0.1,0-0.1,0-0.2c0.2-0.2,0.4-0.4,0.2-0.6    c-0.1-0.1-0.2-0.2-0.2-0.3c0.2-0.2,0.3-0.4,0.1-0.6c0,0-0.1-0.1-0.1-0.1c0,0,0-0.1-0.1-0.1c0,0,0,0,0,0c0,0,0,0,0,0    c0,0,0,0-0.1-0.1c0,0,0,0,0,0c-0.1,0-0.2,0-0.4,0c0.1-0.1,0.2-0.2,0.2-0.2c-0.1-0.1-0.7,0.2-0.7,0.3c-0.1,0,0-0.2,0-0.4    c0.2-0.1,0.3-0.3,0.4-0.4c0,0,0,0,0,0c-0.2,0-0.5,0.1-0.7,0.2c-0.1,0-0.1,0-0.2-0.1c0.1-0.1,0.2-0.1,0.3-0.2c0,0,0.5-0.3,0.2-0.2    c-0.2,0.1-0.5,0.1-0.7,0.1c0.1-0.2,0.3-0.4,0.4-0.6c0.3-0.1,0.6-0.1,0.9-0.3c0.2-0.1,0.2-0.3-0.1-0.4c-0.2,0-0.4,0-0.7,0    c0.1-0.1,0.2-0.1,0.4-0.2c0.4-0.3,0.1-0.7-0.4-0.8c0,0,0,0,0.1,0c0.8-0.4-0.2-1.2-0.8-1c-0.1,0-0.1,0.1-0.2,0.1c0,0,0,0,0,0    c0,0,0,0,0,0c-0.2-0.2-0.4-0.2-0.6-0.2c-0.1-0.1-0.2-0.2-0.4-0.2c0,0,0-0.1,0-0.1c0.1-0.1,0.1-0.1,0.2-0.2c0.1-0.2,0.1-0.3,0-0.4    c0,0,0.1,0,0.1-0.1c0.4-0.2,0.3-0.6,0.1-0.8c0.1-0.2-0.3-0.6-0.5-0.9c0-0.1,0-0.2,0-0.3c0.4,0,0.7-0.2,0.6-0.5    c0.4-0.2-0.1-0.7-0.4-0.9c-0.3-0.1-0.4-0.5-0.5-0.7c-0.1-0.1-0.2-0.2-0.3-0.4c-0.1-0.4-0.2-0.6-0.2-0.7c-0.2-0.4-0.5-0.6-0.8-0.8    c0.2-0.3-0.5-0.7-0.7-0.8c-0.1,0-0.1,0-0.2,0c0,0,0,0,0,0c-0.1-0.1-0.2-0.3-0.3-0.4c-0.1-0.1-0.1-0.1-0.2-0.2    c-0.1-0.3-0.6-0.5-0.8-0.5c-0.2,0-0.4,0-0.6-0.1c-0.1,0-0.1-0.1-0.2-0.1c0,0,0,0,0,0c0.7-0.4,0.2-1.4-0.5-1.4    c0-0.1-0.1-0.1-0.1-0.1c0.1-0.2,0.2-0.5,0.2-0.8c-0.1-0.5-0.5-0.9-1-0.9c-0.2,0-0.4,0-0.5,0.2c0,0-0.1,0-0.1,0c0,0,0,0-0.1,0    c-0.2-0.1-0.4-0.3-0.6-0.3c-0.1-0.2-0.1-0.4-0.2-0.5c-0.2-0.5-1.2-0.9-1.4-0.1c0,0,0,0.1,0,0.1c-0.1,0-0.1,0-0.1,0.2v0.9    c-0.8,0.2-1.6,0.6-1.9,1.4c-0.2,0.6-0.3,1.2-0.5,1.7c-1.1,0.9-2,2.2-3.5,2.5c-0.7,0.1-0.4,0.9-0.1,1.2c0.1,0,0.1,0.1,0.1,0.1    c-0.1,0.2-0.2,0.4-0.3,0.7c-0.2-0.2-0.4-0.2-0.6,0.1c-0.1,0-0.1,0-0.2,0c-0.4-0.3-0.6,0.2-0.4,0.6c0,0-0.1-0.1-0.1-0.1    c-0.7-0.8-0.9,0.2-0.5,0.7c0.1,0.1,0.2,0.2,0.2,0.3c0,0,0,0,0,0c-0.3-0.1-0.6,0-0.9,0.3c-0.4-0.2-0.4,0.1-0.3,0.5c0,0,0,0,0,0    c-0.2,0.4,0.2,1.3,0.7,1.2c0,0.1,0.1,0.1,0.1,0.2c0,0-0.1,0.1-0.1,0.1c-0.4,0.1-0.9,0.4-0.8,0.7c0.1,0.2,0.3,0.3,0.4,0.5    c0,0.1,0,0.2,0.2,0.2h0c0.1,0.1,0.2,0.2,0.3,0.3c-0.2,0.1-0.4,0.1-0.5,0.2c-0.2,0.1-0.2,0.3-0.1,0.5c-0.2,0.1-0.4,0.2-0.6,0.3    c-0.3,0.3-0.1,0.8,0.2,1.1c0,0,0,0.1,0,0.1c0.1,0.2,0.1,0.3,0.2,0.4c-0.1,0-0.1,0.1-0.2,0.1c-0.3,0-0.8,0.2-1,0.5    c-0.4,0-0.8,0-1.2-0.1c-0.3-0.1-1.6,0.5-1.1,0.8c0.4,0.3,0.8,0.5,1.2,0.7c-0.3,0.2-0.6,0.4-0.9,0.7c-0.6,0.5,0,0.5,0.5,0.4    c0,0.3,0,0.6,0.1,0.8c-0.5,0.8-0.3,1.7,0.5,2.2c-0.5,0.5-0.9,1.1-1.2,1.8c-0.1,0.1-0.1,0.2-0.2,0.3c-0.4,0-0.7-0.1-1.1-0.1    c-0.9-0.1-1,0.7-0.8,1.7c-0.9,0.7,0.6,3.6,1.5,4c0.7,0.3,1.4,0.6,2,0.9c0,0,0,0,0,0c0,0,0.1,0,0.1,0.1c0,0.2,0,0.4,0,0.6    c-0.9,0.3-1.8,0.5-2.8,0.6c-2.1,0.2-2.6,2.7-0.9,3.4c-1.1,0.6-2.1,1.3-3.1,2.1c-1.5,1.1-0.6,2.3,1.1,2.2l-0.7,0.6    c-0.6,0.5-0.6,0.9-0.3,1.2c-1.4,1.2-2.8,2.3-3.9,3.8c-0.5,0.6-0.1,1.1,0.5,1.3c0,0,0,0,0,0c-0.3,0.3-0.4,0.7-0.4,1    c-0.1,0-0.2-0.1-0.3-0.1c-0.1,0-0.3,0-0.4,0c-0.2-0.3-0.5-0.4-0.8-0.5c0,0-0.1,0-0.1,0c0-0.1,0-0.2,0-0.3c1.3-1,2.2-2.6,1.8-4.2    c-0.2-0.8-0.8-1.1-1.4-0.9c0,0,0,0,0-0.1c0.2,0,0.4-0.1,0.5-0.1c0.5-0.1,0.2-0.9-0.3-1.6c0-0.1,0.1-0.1,0.1-0.2    c0.1-0.1,0-0.2-0.3-0.4c0.4-0.5,0-1.4-0.6-1.7c-0.5-0.2-1-0.4-1.5-0.5c0,0,0,0,0-0.1c0-0.3-0.2-0.6-0.5-0.8c0,0,0,0,0,0    c0.6-0.2,1.2-0.9,0.9-1.6c-0.2-0.5-0.9-0.6-1.4-0.5c0.1-0.2,0.2-0.4,0.3-0.6c0.4-0.6,0.3-1.4-0.4-1.6c-0.7-0.3-1.4,0.1-1.9,0.6    c0.2-0.6,0.5-1.1,0.7-1.7c0.2-0.6-1.1-0.3-1.2-0.2c-0.1,0-0.2,0.1-0.3,0.1c-0.3-0.1-0.6-0.1-0.9-0.1c-0.2-0.4-0.8-0.6-1.2-0.6    c-0.7,0-1.4,0.4-1.6,1.1c-0.7-0.4-1.9-0.5-2.2-0.1c-0.1-0.1-0.3-0.2-0.4-0.3v-0.1c0-0.3-0.3-0.6-0.5-0.8c-0.2-0.2-0.4-0.4-0.6-0.5    c0.3,0,0.5-0.1,0.8-0.1c0.1,0,0.6-0.1,0.6-0.3c0-0.2-0.2-0.4-0.4-0.6c-0.1-0.1-0.3-0.2-0.5-0.2c0-0.1,0.1-0.2,0.2-0.2    c0.2-0.2-0.1-0.5-0.1-0.7c-0.2-0.4-0.5-0.7-0.9-1.1c-0.1-0.1-0.3-0.2-0.4-0.4c0.1-0.1,0.2-0.2,0.2-0.3c0-0.5-1.4-0.5-1.8-0.5    l0-0.1c0,0,0-0.1,0-0.1l0,0c0.4-0.6,0-1.2-0.5-1.6c0.4,0,0.7,0,0.3-0.3c-0.4-0.2-0.8-0.4-1.2-0.5c0.2-0.5-0.5-0.8-1-0.8    c-0.1,0-0.2,0-0.3,0c0.2-0.1,0.3-0.3,0.4-0.5c0.1,0,0.2-0.1,0.3-0.1c0.8-0.1-0.1-1.4-0.3-1.7c-0.5-0.6-1.3-1.2-2.2-1.1    c-0.1,0-0.2,0-0.2,0c-0.3-0.4-1.2-1-1.7-1.1c0,0,0,0,0,0c-0.4-0.5-1-0.8-1.6-0.5c0,0,0,0,0,0c-0.3-0.2-0.6-0.3-0.7-0.1    c0,0-0.1,0.1-0.1,0.1c-0.1,0-0.1,0-0.2-0.1c-0.1-0.2-0.1-0.3-0.3-0.5c-0.4-0.5-1-0.4-1.5-0.2c-0.1,0.1-0.3,0.2-0.5,0.4    c-0.1,0-0.1-0.1-0.2-0.1c-0.3-0.1-0.9-0.2-0.7,0.3c0,0.1,0.1,0.2,0.1,0.4c-0.2-0.1-0.4-0.2-0.6-0.3l0-0.1c0,0,0,0,0,0.1    c-0.2-0.1-0.5-0.1-0.7,0c-0.1,0-0.1,0-0.2,0.1c-0.1-0.1-0.3-0.2-0.4-0.2c-0.1,0-0.3-0.1-0.4,0c-0.1,0.1,0,0.3,0.1,0.4    c0.2,0.2,0.4,0.4,0.6,0.6c0,0,0,0,0,0c-0.4-0.1-0.7-0.2-0.9-0.2c-0.5,0-0.2,0.2,0.2,0.4c-0.3,0.1-0.5,0.2-0.5,0.3    c-0.1,0-0.3,0-0.4,0.1c-0.1,0-0.2,0-0.2,0.1c-0.2,0.1-0.4,0.4-0.4,0.7c0,0.2,0.1,0.4,0.1,0.6c-0.3,0.3-0.5,0.6-0.5,1    c-0.1-0.1-0.3-0.3-0.4-0.4c-0.1-0.1-0.1,0.2-0.1,0.2c0,0.2,0.1,0.3,0.2,0.5c-0.3,0-0.6,0.1-0.8,0.3c-0.4-0.5-1.1-0.5-1.7-0.4    c0.1-0.3,0.2-0.5,0.4-0.8c0.5-0.8,0.4-1.9-0.6-2.3c-0.9-0.4-2,0.1-2.6,0.8c0.3-0.8,0.7-1.6,1-2.4c0.3-0.8-1.5-0.4-1.7-0.3    c-0.1,0-0.3,0.1-0.4,0.2c-0.4-0.1-0.8-0.1-1.3-0.1c-0.3-0.5-1.1-0.8-1.7-0.8c-1,0-2,0.6-2.2,1.6c-1.2-0.7-3.4-0.8-3.3,0.4    c0,0.2,0.1,0.3,0.1,0.5c-0.2,0-0.3,0-0.5,0.1c-0.5,0.1-1.9,0.8-1.3,1.6c0.2,0.3,0.5,0.6,0.7,0.9c-0.2-0.1-0.5-0.2-0.7-0.2    c-0.1,0-1.8-0.5-1.5,0c0.3,0.6,0.8,1.1,1.2,1.5c-0.1,0.2-0.2,0.3-0.3,0.5c-0.3-0.1-0.7-0.1-1-0.1c-0.2-0.1-0.4-0.1-0.6-0.1    c0,0-0.1,0-0.1,0c-0.2-0.3-0.5-0.5-0.7-0.6c-0.5-0.2-0.2,0.9,0,1.4c-0.1,0.3-0.1,0.6,0,0.9c-0.1,0-0.1,0-0.2,0    c-0.1-0.1-0.2-0.1-0.3-0.1h-0.3c-0.9,0-1.9,0.3-2.7,0.7c-0.3,0.1-0.6,0.3-0.8,0.6c-0.1,0.2,0.2,0.3,0.3,0.3h0.3c0,0,0.1,0,0.1,0    c0.3,0.4,0.5,0.8,0.8,1.2c0,0.1,0.1,0.1,0.1,0.2c0,0-0.1,0-0.1,0c0,0,0.3,0.6,0.8,1.2c-0.6,0.1-1.2,0.5-1.5,0.8    c-0.3,0-0.6,0-0.8,0.2c-0.8,0.2-0.6,1.2-0.3,1.7c-0.3,0-0.6,0-0.9,0.1c-0.3,0.1-0.4,0.3-0.4,0.6v0.1c0,0.3,0.5,0.7,0.7,0.8    c0.2,0.1,0.4,0.2,0.7,0.3c0,0,0,0.1,0.1,0.1c-0.5-0.2-1-0.3-1,0.1v0.3c0,0.2,0.1,0.4,0.2,0.5c-0.4,0.2-0.6,0.6-0.7,1    c-1.2-0.4-2.4-0.6-3.6-0.6c-0.6,0-1.3,0.1-1.9,0.2h-45.1c-0.1,0-0.2,0-0.3,0c-0.1,0-0.1,0-0.2,0h-0.3l0,0c-0.9,0-1.7,0.2-2.5,0.4    c-1.3-0.5-2.6-0.7-3.9-0.7c-0.6,0-1.3,0.1-1.9,0.2H518c-0.1,0-0.2,0-0.3,0c-0.1,0-0.1,0-0.2,0h-0.3l0,0c-3.1,0.2-6.1,1.6-8.7,4.3    c-0.7,0.7-1.3,1.5-2,2.3c0-0.2-0.3-0.3-0.7-0.3c0.5-0.3,0.8-0.7,1-1.2c0.1-0.2,0.1-0.3,0.1-0.4c0.2,0,0.3-0.1,0.4-0.2    c0.1-0.3-0.5-0.6-0.6-0.6c0,0,0,0,0,0c-0.1-0.1-0.2-0.2-0.3-0.3c0,0,0-0.1,0-0.1l-0.1-0.1c1.1-0.7,0.7-2.5-0.6-3    c0.6-0.4,1-1.1,0.9-1.9c0-0.2-0.1-0.3-0.2-0.4c-0.1-0.3-0.4-0.5-0.7-0.6v-0.1c0-0.3-0.3-0.6-0.5-0.8c-0.2-0.2-0.4-0.4-0.6-0.5    c0.3,0,0.5-0.1,0.8-0.1c0.1,0,0.6-0.1,0.6-0.3c0-0.2-0.2-0.4-0.4-0.6c-0.1-0.1-0.3-0.2-0.5-0.2c0-0.1,0.1-0.2,0.2-0.2    c0.2-0.2-0.1-0.5-0.1-0.7c-0.2-0.4-0.5-0.7-0.9-1.1c-0.1-0.1-0.3-0.2-0.4-0.4c0.1-0.1,0.2-0.2,0.2-0.3c0-0.5-1.4-0.5-1.8-0.5    l0-0.1c0,0,0-0.1,0-0.1l0,0c0.4-0.6,0-1.2-0.5-1.6c0.4,0,0.7,0,0.3-0.3c-0.4-0.2-0.8-0.4-1.2-0.5c0.2-0.5-0.5-0.8-1-0.8    c-0.1,0-0.2,0-0.3,0c0.2-0.1,0.3-0.3,0.4-0.5c0.1,0,0.2-0.1,0.3-0.1c0.8-0.1-0.1-1.4-0.3-1.7c-0.5-0.6-1.3-1.2-2.2-1.1    c-0.1,0-0.2,0-0.2,0c-0.3-0.4-1.2-1-1.7-1.1c0,0,0,0,0,0c-0.4-0.5-1-0.8-1.6-0.5c0,0,0,0,0,0c-0.3-0.2-0.6-0.3-0.7-0.1    c0,0-0.1,0.1-0.1,0.1c-0.1,0-0.1,0-0.2-0.1c-0.1-0.2-0.1-0.3-0.3-0.5c-0.4-0.5-1-0.4-1.5-0.2c-0.1,0.1-0.3,0.2-0.5,0.4    c-0.1,0-0.1-0.1-0.2-0.1c-0.3-0.1-0.9-0.2-0.7,0.3c0,0.1,0.1,0.2,0.1,0.4c-0.2-0.1-0.4-0.2-0.6-0.3l0-0.1c0,0,0,0,0,0.1    c-0.2-0.1-0.5-0.1-0.7,0c-0.1,0-0.1,0-0.2,0.1c-0.1-0.1-0.3-0.2-0.4-0.2c-0.1,0-0.3-0.1-0.4,0c-0.1,0.1,0,0.3,0.1,0.4    c0.2,0.2,0.4,0.4,0.6,0.6c0,0,0,0,0,0c-0.4-0.1-0.7-0.2-0.9-0.2c-0.5,0-0.2,0.2,0.2,0.4c-0.3,0.1-0.5,0.2-0.5,0.3    c-0.1,0-0.3,0-0.4,0.1c-0.1,0-0.2,0-0.2,0.1c-0.2,0.1-0.4,0.4-0.4,0.7c0,0.2,0.1,0.4,0.1,0.6c-0.3,0.3-0.5,0.6-0.5,1    c-0.1-0.1-0.3-0.3-0.4-0.4c-0.1-0.1-0.1,0.2-0.1,0.2c0,0.2,0.1,0.3,0.2,0.5c-0.4,0-0.8,0.2-1,0.5c0,0.1-0.1,0.1-0.1,0.2    c-0.2-0.2-0.6-0.4-0.5-0.2c0,0.2,0.1,0.3,0.2,0.5c0.1,0.2,0.3,0.5,0.5,0.7c-0.3,0.1-0.3,0.3-0.3,0.6c-0.1,0-0.3,0-0.4,0    c-0.3,0.1-0.6,0.2-0.8,0.4c-0.2,0.2-0.3,0.4-0.4,0.7c-0.2,0-0.4,0.1-0.3,0.4c0.1,0.2,0.1,0.4,0.2,0.5c0,0.1,0.1,0.2,0.2,0.4    c-0.1,0.1-0.2,0.2-0.2,0.3c0,0,0,0,0,0c-0.3-0.1-0.7-0.1-1-0.1c-0.3-0.4-0.9-0.6-1.4-0.6c-0.4,0-0.8,0.1-1.2,0.4V176.3    c0-6.1-1.6-11.8-4.5-16.8c-6.1-10.8-18-18-31.6-18v-23.6c-19.6,0-35.5,22.9-36,41.7h0v264.5c-0.8,0.1-1.6,0.5-2.1,1.2    c0.4-1,0.8-1.9,1.2-2.9c0.3-1-1.8-0.5-2.1-0.4c-0.2,0.1-0.4,0.1-0.5,0.2c-0.4-0.2-1-0.2-1.5-0.1c-0.4-0.6-1.3-0.9-2-0.9    c-1.2,0-2.4,0.7-2.6,1.9c-1.4-0.9-4.1-1-3.9,0.5c0,0.2,0.1,0.4,0.1,0.6c-0.2,0-0.4,0.1-0.6,0.1c-0.6,0.2-2.3,1-1.6,1.9    c0.3,0.4,0.6,0.7,0.9,1.1c-0.3-0.1-0.6-0.2-0.8-0.3c-0.1,0-2.1-0.6-1.8,0c0.4,0.7,0.9,1.3,1.5,1.8c-0.2,0.2-0.3,0.4-0.3,0.6    c-0.4-0.1-0.8-0.2-1.3-0.2c-0.2-0.1-0.5-0.1-0.7-0.1c0,0-0.1,0-0.1,0c-0.3-0.3-0.5-0.6-0.9-0.7c-0.6-0.2-0.2,1.1,0,1.6    c-0.1,0.3-0.1,0.7,0,1.1c-0.1,0-0.1,0-0.2,0c-0.1-0.1-0.2-0.1-0.3-0.1h-0.3c-0.9,0-1.8,0.2-2.6,0.6c-0.2-0.2-0.4-0.4-0.6-0.5    c0.4,0,0.8-0.1,1.2-0.2c0.1,0,0.8-0.2,0.8-0.5c0-0.3-0.3-0.6-0.6-0.9c-0.2-0.2-0.4-0.2-0.7-0.3c0.1-0.1,0.2-0.2,0.3-0.3    c0.2-0.2-0.1-0.8-0.2-0.9c-0.3-0.6-0.8-1.1-1.3-1.5c-0.2-0.2-0.4-0.4-0.6-0.5c0.2-0.1,0.3-0.3,0.3-0.4c0-0.7-2-0.7-2.7-0.7l0-0.1    c0-0.1,0-0.1,0-0.2l0,0c0.5-0.8,0-1.7-0.7-2.3c0.5,0,1,0,0.4-0.4c-0.5-0.3-1.2-0.6-1.8-0.8c0.4-0.8-0.8-1.2-1.5-1.2    c-0.1,0-0.2,0-0.4,0c0.3-0.2,0.5-0.5,0.6-0.8c0.1,0,0.3-0.1,0.5-0.1c1.2-0.2-0.2-2.1-0.5-2.4c-0.8-0.8-2-1.8-3.2-1.6    c-0.1,0-0.2,0-0.3,0.1c-0.5-0.5-1.8-1.4-2.4-1.6c0,0,0,0,0,0c-0.6-0.7-1.5-1.1-2.3-0.7c0,0,0,0,0,0c-0.5-0.3-0.9-0.4-1.1-0.2    c-0.1,0.1-0.1,0.1-0.2,0.2c-0.1,0-0.2-0.1-0.3-0.1c-0.1-0.2-0.2-0.5-0.4-0.7c-0.5-0.7-1.5-0.6-2.2-0.2c-0.2,0.1-0.5,0.3-0.7,0.6    c-0.1,0-0.2-0.1-0.3-0.2c-0.4-0.2-1.3-0.3-1.1,0.4c0.1,0.2,0.1,0.4,0.2,0.5c-0.3-0.2-0.6-0.3-0.9-0.4l0-0.1c0,0,0,0.1,0,0.1    c-0.3-0.1-0.7-0.1-1,0c-0.1,0-0.2,0.1-0.2,0.1c-0.2-0.1-0.4-0.2-0.6-0.3c-0.1-0.1-0.5-0.2-0.6,0c-0.1,0.2,0.1,0.5,0.2,0.6    c0.3,0.3,0.5,0.6,0.8,0.9c0,0,0,0,0,0c-0.5-0.2-1-0.3-1.3-0.3c-0.8,0-0.4,0.3,0.3,0.6c-0.4,0.1-0.8,0.3-0.8,0.4    c-0.2,0-0.4,0-0.6,0.1c-0.2,0-0.2,0.1-0.2,0.1c-0.3,0.2-0.5,0.6-0.5,1c0,0.3,0.1,0.5,0.2,0.8c-0.5,0.4-0.7,0.9-0.7,1.5    c-0.2-0.2-0.4-0.4-0.6-0.5c-0.2-0.1-0.1,0.2-0.1,0.3c0.1,0.3,0.2,0.5,0.3,0.7c-0.6,0-1.2,0.2-1.4,0.8c0,0.1-0.1,0.2-0.1,0.3    c-0.3-0.3-0.8-0.6-0.8-0.3c0,0.3,0.1,0.5,0.2,0.7c0.2,0.4,0.4,0.7,0.7,1c-0.4,0.1-0.5,0.5-0.5,0.9c-0.2,0-0.4,0-0.5,0    c-0.4,0.1-0.9,0.3-1.2,0.6c-0.3,0.3-0.5,0.6-0.6,1c-0.3,0-0.6,0.1-0.4,0.6c0.1,0.3,0.2,0.5,0.3,0.8c0.1,0.2,0.1,0.3,0.3,0.5    c-0.6,0.5-0.7,1.4-0.5,2.2c-0.2,0.2-0.3,0.3-0.5,0.5c-0.3,0.2-0.4,0.4-0.5,0.7c-0.2,0.4-0.4,0.9-0.5,1.4c-0.1-0.1-0.2-0.1-0.3-0.2    c-0.1-0.1-0.3-0.2-0.2,0c0,0.4,0.2,0.6,0.3,1c0,0.1,0.1,0.1,0.1,0.1c0,0.1,0,0.3,0,0.4c0,0,0,0,0,0c-0.8,0.1-1.4,0.8-1.1,1.7    c0.1,0.3,0.2,0.6,0.3,0.9c0.1,0.3,0.3,0.6,0.5,0.8c-0.4,0.2-0.7,0.5-0.7,0.9c0,0.7,0.1,1.2,0.4,1.8c0.1,0.2,0.2,0.4,0.4,0.5    c0,0.1,0,0.1,0,0.2v0c-0.3-0.3-0.5-0.5-0.8-0.8c-0.1,0-1.3-0.9-1.2-0.5c0,0.1,0.1,0.2,0.1,0.3c0,0.2,0.3,0.5,0.5,0.7    c0.3,0.3,0.6,0.7,1,0.9c0.1,0,0.8,0.6,1.1,0.6c-0.1,0.1-0.2,0.2-0.3,0.2c-1.1,0.3-2.9,1.1-1.6,1.1c0.2,0,0.5-0.1,0.8-0.2l0.1,0.1    c-1.4,0.2-1.5,2-0.5,2.7c-1.2,0.2-2.5,1.4-1.6,2.3c0.2,0.2,0.4,0.3,0.7,0.3c-0.2,0.4-0.3,0.9-0.2,1.3c0.1,0.5,0.3,0.8,0.7,1.1    h-74.8v-23.3h-2.8v-8.2h-2v-1.8h-0.6v-1.3h-1.3v-1h-1.2v-1h-1.1v-0.6h-4.5v0.6h-1.1v1h-1.2v1h-1.3v1.3h-0.6v1.8h-2v8.2h-2.8V449    l-21.2-15.1L208.3,449v-23.5h-2.8v-8.2h-2v-1.8h-0.6v-1.3h-1.3v-1h-1.2v-1h-1.1v-0.6h-4.5v0.6h-1.1v1h-1.2v1h-1.3v1.3h-0.6v1.8h-2    v8.2h-2.8v23.3H100l-17.2,12.9c0.7-1,1-2.2,0.7-3.4c-0.2-0.9-0.9-1.2-1.7-1.1c0,0,0,0,0-0.1c0.2,0,0.4-0.1,0.6-0.1    c0.6-0.1,0.3-1-0.3-1.8c0.1-0.1,0.1-0.1,0.2-0.2c0.1-0.1,0-0.3-0.3-0.5c0.5-0.6,0-1.6-0.7-1.9c-0.6-0.2-1.2-0.4-1.7-0.6    c0,0,0,0,0-0.1c0-0.4-0.2-0.7-0.5-1c0,0,0,0,0.1,0c0.6-0.3,1.4-1.1,1-1.8c-0.3-0.6-1-0.7-1.6-0.6c0.1-0.2,0.2-0.4,0.3-0.6    c0.4-0.7,0.3-1.6-0.5-1.9c-0.7-0.3-1.7,0.1-2.1,0.7c0.3-0.6,0.6-1.3,0.8-2c0.2-0.7-1.2-0.3-1.4-0.3c-0.1,0-0.2,0.1-0.4,0.1    c-0.3-0.1-0.7-0.1-1-0.1c-0.3-0.4-0.9-0.6-1.4-0.6c-0.8,0-1.6,0.5-1.8,1.3c-1-0.6-2.8-0.7-2.7,0.3c0,0.1,0.1,0.3,0.1,0.4    c-0.1,0-0.3,0-0.4,0.1c-0.3,0.1-1.1,0.4-1.2,0.9c-0.1-0.3-0.6-0.5-0.8-0.6c0,0,0,0,0,0c-0.1-0.1-0.2-0.3-0.3-0.4    c0-0.1,0-0.1-0.1-0.2l-0.1-0.1c1.4-0.9,0.9-3.3-0.8-3.8c0.8-0.6,1.3-1.4,1.2-2.4c0-0.2-0.1-0.4-0.2-0.5c-0.1-0.4-0.5-0.7-0.9-0.8    V438c0-0.4-0.4-0.8-0.6-1.1c-0.2-0.2-0.5-0.5-0.8-0.6c0.3,0,0.7-0.1,1-0.2c0.1,0,0.7-0.2,0.7-0.4c0-0.3-0.3-0.6-0.5-0.8    c-0.1-0.1-0.4-0.2-0.6-0.3c0.1-0.1,0.1-0.2,0.2-0.3c0.2-0.2-0.1-0.7-0.2-0.8c-0.3-0.5-0.7-0.9-1.1-1.4c-0.2-0.2-0.3-0.3-0.5-0.5    c0.2-0.1,0.3-0.2,0.3-0.4c0-0.6-1.8-0.6-2.4-0.6l0-0.1c0-0.1,0-0.1,0-0.2l0,0c0.5-0.7,0-1.5-0.6-2c0.5,0,0.9,0,0.4-0.4    c-0.5-0.3-1-0.5-1.6-0.7c0.3-0.7-0.7-1.1-1.3-1.1c-0.1,0-0.2,0-0.3,0c0.3-0.2,0.4-0.4,0.5-0.7c0.1,0,0.3-0.1,0.4-0.1    c1-0.2-0.2-1.9-0.4-2.1c-0.7-0.7-1.7-1.6-2.8-1.4c-0.1,0-0.2,0-0.3,0.1c-0.4-0.5-1.6-1.3-2.1-1.4c0,0,0,0,0,0    c-0.5-0.6-1.3-1-2.1-0.6c0,0,0,0,0,0c-0.4-0.2-0.8-0.3-0.9-0.2c-0.1,0-0.1,0.1-0.1,0.2c-0.1,0-0.2,0-0.3-0.1    c-0.1-0.2-0.2-0.4-0.3-0.6c-0.5-0.6-1.3-0.6-1.9-0.2c-0.2,0.1-0.4,0.3-0.6,0.5c-0.1,0-0.2-0.1-0.2-0.1c-0.4-0.2-1.1-0.3-0.9,0.3    c0,0.2,0.1,0.3,0.2,0.5c-0.2-0.2-0.5-0.3-0.8-0.4l0-0.1c0,0,0,0.1,0,0.1c-0.3-0.1-0.6-0.1-0.9,0c-0.1,0-0.2,0.1-0.2,0.1    c-0.2-0.1-0.3-0.2-0.5-0.3c-0.1-0.1-0.4-0.2-0.6,0c-0.1,0.2,0.1,0.4,0.1,0.5c0.2,0.3,0.5,0.5,0.7,0.8c0,0,0,0,0,0    c-0.5-0.2-0.9-0.3-1.1-0.3c-0.7,0-0.3,0.3,0.3,0.5c-0.3,0.1-0.7,0.3-0.7,0.4c-0.2,0-0.3,0-0.5,0.1c-0.2,0-0.2,0.1-0.2,0.1    c-0.3,0.2-0.5,0.5-0.5,0.9c0,0.2,0.1,0.5,0.1,0.7c-0.4,0.3-0.6,0.8-0.6,1.3c-0.2-0.2-0.3-0.3-0.5-0.5c-0.2-0.1-0.1,0.2-0.1,0.2    c0.1,0.2,0.2,0.4,0.3,0.7c-0.5,0-1,0.2-1.3,0.7c0,0.1-0.1,0.2-0.1,0.3c-0.3-0.2-0.7-0.5-0.7-0.3c0,0.2,0.1,0.4,0.2,0.6    c0.2,0.3,0.4,0.6,0.6,0.9c-0.3,0.1-0.4,0.4-0.4,0.8c-0.2,0-0.3,0-0.5,0c-0.4,0.1-0.8,0.3-1.1,0.6c-0.2,0.2-0.4,0.5-0.5,0.9    c-0.3,0-0.5,0.1-0.4,0.5c0.1,0.2,0.2,0.5,0.2,0.7c0.1,0.2,0.1,0.3,0.2,0.5c-0.5,0.5-0.6,1.2-0.4,2c-0.2,0.1-0.3,0.3-0.4,0.4    c-0.2,0.2-0.4,0.4-0.4,0.6c-0.2,0.4-0.3,0.8-0.4,1.2c-0.1-0.1-0.2-0.1-0.2-0.2c-0.1-0.1-0.2-0.2-0.2,0c0,0.3,0.2,0.6,0.3,0.8    c0,0,0.1,0.1,0.1,0.1c0,0.1,0,0.2,0,0.4h0c-0.7,0.1-1.2,0.7-1,1.5c0.1,0.3,0.1,0.5,0.2,0.8c0.1,0.3,0.2,0.5,0.4,0.7    c-0.3,0.1-0.6,0.4-0.6,0.8c0,0.6,0.1,1,0.4,1.6c0.1,0.2,0.2,0.3,0.4,0.5c0,0.1,0,0.1,0,0.2v0c-0.2-0.2-0.5-0.5-0.7-0.7    c0,0-1.1-0.8-1-0.5c0,0.1,0.1,0.2,0.1,0.3c0,0.2,0.3,0.5,0.4,0.6c0.3,0.3,0.5,0.6,0.9,0.8c0,0,0.7,0.5,0.9,0.5    c-0.1,0.1-0.2,0.1-0.3,0.2c-1,0.3-2.6,1-1.4,1c0.1,0,0.4-0.1,0.7-0.2l0.1,0.1c-1.3,0.2-1.4,1.7-0.5,2.4c-1,0.2-2.2,1.3-1.4,2    c0.2,0.2,0.4,0.2,0.6,0.3c-0.2,0.4-0.3,0.8-0.2,1.2c0.2,0.8,0.7,1.2,1.4,1.5c-0.2,0.4-0.1,1,0.1,1.5c0.3,0.7,0.9,1.3,1.6,1.7    c-0.7,0.2-1.2,0.5-0.5,1.2c0.7,0.6,1.6,0.9,2.5,1.1c0,0,0,0,0,0c0,0-0.1,0.1-0.1,0.2c-0.7,0-0.8,0.3-0.3,0.6    c-0.1,0.3-0.2,0.6-0.2,0.9c-0.1,0.6,0.1,1.2,0.4,1.6c0,0,0,0,0,0c0,0,0,0,0,0c0.1,0.2,0.2,0.3,0.4,0.5l0,0    c0.1,0.1,0.1,0.2,0.2,0.3c0.3,0.4,1.1,0.7,1.5,0.8c0.2,0,0.3,0,0.5,0c-0.3,0.9-0.1,1.7,0.9,2.1c0.3,0.9,1.4,1.5,2.3,1.6    c0.3,0,0.6,0,0.8,0c0.6,0,1.2-0.2,1.7-0.5c0.1-0.1,0.2-0.1,0.3-0.2c0.1,0,0.1,0.1,0.2,0.1c0.6,0.3,1.1,0.4,1.8,0.5    c0.1,2.4,0.4,4.9,0.3,7.3c-0.1,4-0.3,8.1-0.7,12.1H0v35.7h2053.5v-35.7H1981.2z M1250.6,452.1c0,0-0.1,0-0.1,0    c0.1,0,0.2-0.1,0.3-0.1C1250.7,452,1250.7,452.1,1250.6,452.1z M1046.4,452.1c0,0-0.1,0-0.1,0c0.1,0,0.2-0.1,0.3-0.1    C1046.5,452,1046.5,452.1,1046.4,452.1z M848,452.1c0,0-0.1,0-0.1,0c0.1,0,0.2-0.1,0.3-0.1C848.1,452,848.1,452.1,848,452.1z     M729.8,451.4c0,0-0.1,0-0.1,0c0.1,0,0.2-0.1,0.3-0.1C729.9,451.3,729.8,451.4,729.8,451.4z M33.7,445.1c0,0-0.1,0-0.1-0.1    c0.1,0,0.2-0.1,0.3-0.1C33.8,445,33.8,445,33.7,445.1z M1834,460.6c2.2,0.3,4.1,0.7,5.3,1.4c0.6-0.7,1.2-1.3,1.9-1.8    c2.5,0,5.2,0,7.6,0.2c-0.2,0.1-0.4,0.3-0.6,0.4c0.2,0,0.5-0.1,0.8-0.1v25.1h-15.3v-25.2C1833.9,460.6,1833.9,460.6,1834,460.6z     M1850.2,460.6c0,0,0.1,0,0.1,0c2.2,0.3,4.1,0.7,5.3,1.4c0.6-0.7,1.2-1.3,1.9-1.8c2.5,0,5.2,0,7.6,0.2c-0.2,0.1-0.4,0.3-0.6,0.4    c0.2,0,0.5-0.1,0.8-0.1v25.1h-15.3V460.6z M1866.6,460.6c0,0,0.1,0,0.1,0c2.2,0.3,4.1,0.7,5.3,1.4c0.6-0.7,1.2-1.3,1.9-1.8    c2.5,0,5.2,0,7.6,0.2c-0.2,0.1-0.4,0.3-0.6,0.4c0.2,0,0.5-0.1,0.8-0.1v25.1h-15.3V460.6z M1883,460.6c0,0,0.1,0,0.1,0    c2.2,0.3,4.1,0.7,5.3,1.4c0.6-0.7,1.2-1.3,1.9-1.8c2.5,0,5.2,0,7.6,0.2c-0.2,0.1-0.4,0.3-0.6,0.4c0.2,0,0.5-0.1,0.8-0.1v25.1H1883    V460.6z M1899.3,460.6c0,0,0.1,0,0.1,0c2.2,0.3,4.1,0.7,5.3,1.4c0.6-0.7,1.2-1.3,1.9-1.8c2.5,0,5.2,0,7.6,0.2    c-0.2,0.1-0.4,0.3-0.6,0.4c0.2,0,0.5-0.1,0.8-0.1v25.1h-15.3V460.6z M1915.7,460.6c0,0,0.1,0,0.1,0c2.2,0.3,4.1,0.7,5.3,1.4    c0.6-0.7,1.2-1.3,1.9-1.8c2.5,0,5.2,0,7.6,0.2c-0.2,0.1-0.4,0.3-0.6,0.4c0.2,0,0.5-0.1,0.8-0.1v25.1h-15.3V460.6z M1932.1,460.6    c0,0,0.1,0,0.1,0c2.2,0.3,4.1,0.7,5.3,1.4c0.6-0.7,1.2-1.3,1.9-1.8c2.5,0,5.2,0,7.6,0.2c-0.2,0.1-0.4,0.3-0.6,0.4    c0.2,0,0.5-0.1,0.8-0.1v25.1h-15.3V460.6z M1948.4,460.6c0,0,0.1,0,0.1,0c2.2,0.3,4.1,0.7,5.3,1.4c0.6-0.7,1.2-1.3,1.9-1.8    c2.5,0,5.2,0,7.6,0.2c-0.2,0.1-0.4,0.3-0.6,0.4c0.2,0,0.5-0.1,0.8-0.1v25.1h-15.3V460.6z M1964.8,460.6c0,0,0.1,0,0.1,0    c2.2,0.3,4.1,0.7,5.3,1.4c0.6-0.7,1.2-1.3,1.9-1.8c2.6,0,5.4,0,7.9,0.2v25.3h-15.3V460.6z M1823.7,452.7c0,0-0.1,0.1-0.1,0.1    c0,0,0,0-0.1,0C1823.6,452.8,1823.6,452.7,1823.7,452.7z M1810.2,467.5c0.3,0.2,0.6,0.3,1,0.3c0.1,0,0.3,0,0.4,0    c0.5,0.4,1.1,0.7,1.6,0.7c0.4,0,0.2-0.5-0.2-1c0.4-0.1,0.7-0.3,1-0.6c0.6,0.3,1.3,0.5,2,0.5c0.2,0,0.4,0,0.6,0    c0.4,0,0.8-0.3,0.8-0.7c0-0.2-0.1-0.4-0.2-0.6c0.4,0.1,0.9,0.2,1.4,0.2c0.4,0,0.8,0,1.1,0c1,0,3-0.4,2.6-1.9    c-0.1-0.3-0.3-0.6-0.5-0.8c0,0,0.1,0,0.1,0c0.2-0.1,0.4-0.3,0.6-0.4c0.3-0.3,0.5-0.6,0.6-0.9V462c0,0,0-0.1,0-0.1    c0.3-0.2,0.6-0.5,0.7-0.9c0-0.3-0.1-0.5-0.2-0.7c2.9-0.1,6.1-0.1,9,0.2c-0.2,0.1-0.4,0.3-0.6,0.4c0.2,0,0.5-0.1,0.8-0.1v25.1H1810    c0.3-3.3,0.5-6.6,0.6-9.9C1810.6,473,1810.1,470.3,1810.2,467.5z M1795.3,458.5c-0.5,0.1-0.9,0.4-0.7,0.8    c-0.2-0.2-0.5-0.4-0.8-0.4c-0.2,0-0.4,0-0.5,0c-0.2-0.4-0.7-0.6-1.2-0.6c0,0-0.1,0-0.1,0c0-0.1,0-0.2,0-0.4    c0.7-0.5,1.3-1.1,1.7-1.8c0,0.3,0.1,0.5,0.2,0.8C1794.2,457.5,1794.7,458.1,1795.3,458.5z M1793.3,448.8c0,0,0-0.1-0.1-0.1    c0.1,0,0.3-0.1,0.5-0.1l0.1,0.1C1793.6,448.6,1793.4,448.7,1793.3,448.8z M1793.9,448.5c0.1,0,0.2-0.1,0.3-0.1    c-0.1,0-0.1,0.1-0.2,0.2C1793.9,448.5,1793.9,448.5,1793.9,448.5z M1792.9,446.3c0.2,0.3,0.5,0.5,0.8,0.8c0,0,0.6,0.5,0.9,0.5    c-0.1,0.1-0.2,0.1-0.3,0.2c-0.4,0.1-1,0.4-1.4,0.6c0,0-0.1-0.1-0.1-0.1c0.1-0.1,0.1-0.2,0.2-0.3c0.1-0.1-0.1-0.3-0.4-0.6    C1793,447.1,1793,446.7,1792.9,446.3C1792.9,446.3,1792.9,446.3,1792.9,446.3z M1792.5,450.6c0.2,0,0.3-0.1,0.5-0.1    c0,0,0.1,0.1,0.1,0.1C1792.9,450.6,1792.7,450.6,1792.5,450.6C1792.5,450.6,1792.5,450.6,1792.5,450.6z M1783,471.1    c0.2-0.1,0.4-0.2,0.6-0.2c0.1,0,0.3-0.1,0.6-0.3c0.6,0.1,1.2,0.1,1.8,0.1c0.6,0.4,1.5,0.5,2.2,0.4c0.7-0.1,1.3-0.7,1.5-1.4    c0.4-0.2,0.8-0.5,1.1-0.8c0.2-0.1,0.5-0.3,0.7-0.4c0.2-0.1,0.2-0.3,0.2-0.5c0.1-0.1,0.2-0.2,0.2-0.3c0.1-0.1,0.2-0.2,0.3-0.3    c0.4-0.5,0.4-1.1,0.2-1.6c0-0.1,0-0.2,0.1-0.4c0-0.2-0.1-0.3-0.3-0.4c1.2-1.2,2.3-2.6,3-4.2c0.2-0.5,0.1-0.9-0.1-1.3    c0.6,0.5,1.4,0.8,2.2,0.9c0,0,0,0,0,0c0,0-0.1,0.1-0.1,0.1c-0.7,0-0.8,0.3-0.3,0.5c-0.1,0.3-0.2,0.5-0.2,0.8    c-0.1,0.6,0.1,1.1,0.4,1.5c0,0,0,0,0,0c0,0,0,0,0,0c0.1,0.2,0.2,0.3,0.4,0.5l0,0c0.1,0.1,0.1,0.2,0.2,0.2c0.3,0.3,1,0.7,1.4,0.7    c0.1,0,0.3,0,0.4,0c-0.3,0.8-0.1,1.6,0.8,1.9c0.3,0.8,1.3,1.4,2.1,1.5c0.3,0,0.5,0,0.8,0c0.6,0,1.1-0.2,1.6-0.4    c0.1-0.1,0.2-0.1,0.3-0.2c0,0,0.1,0.1,0.1,0.1c0.5,0.3,1.1,0.4,1.6,0.4c0.1,2.3,0.3,4.6,0.3,6.9c-0.1,3.5-0.3,7-0.6,10.4h-23.4    c-0.3-2.7-0.5-5.4-0.5-8C1782.6,475.5,1783,473.3,1783,471.1z M1768.8,467.3C1768.8,467.3,1768.8,467.3,1768.8,467.3    c0.3,0.4,0.7,0.7,1.2,0.7c0.1,0.1,0.2,0.1,0.3,0.1c0.2,1.4,2.6,3.4,3.1,2c0.2-0.4,0.2-0.9,0.2-1.4c0.1,0,0.3,0,0.4-0.1    c0.3,0.3,0.7,0.4,1,0.6c0,0,0.1,0,0.1,0c0.1,0.3,0.2,0.6,0.4,0.8c0.2,0.3,0.5,0.5,0.8,0.5c0.4,0,0.8-0.1,1.3-0.2    c0.3-0.1,0.5-0.1,0.8-0.2c0.2,0.4,0.4,0.7,0.7,1c0,2.3-0.5,4.6-0.4,6.9c0.1,2.5,0.2,5,0.5,7.6h-12.2v-20.4    C1767.5,466.1,1768.1,466.8,1768.8,467.3z M1767.1,462.1c0.2,0.4,0.4,0.8,0.6,1.2c-0.2,0-0.4,0-0.6,0.1V462.1z M1767.9,458    c-0.1,0-0.2,0.1-0.3,0.1c-0.2,0-0.3-0.1-0.5-0.1V457C1767.3,457.3,1767.5,457.7,1767.9,458z M1767.3,451.5c-0.1,0-0.2-0.1-0.2-0.1    v-0.1c0.1,0,0.1,0.1,0.2,0.1C1767.2,451.5,1767.3,451.5,1767.3,451.5z M1767.1,449.5C1767.1,449.5,1767.1,449.5,1767.1,449.5    L1767.1,449.5C1767.1,449.5,1767.1,449.5,1767.1,449.5z M1661.6,388.4h1.4v14.7h-1.4V388.4z M1658,388.4h2v14.7h-2V388.4z     M1654.9,370.7h0.8v6.3h-0.8V370.7z M1621.6,370.7h0.8v6.3h-0.8V370.7z M1617.3,388.4h2v14.7h-2V388.4z M1614.3,388.4h1.4v14.7    h-1.4V388.4z M1491,461.8c0.3,0.2,0.7,0.4,1.2,0.4c0.2,0,0.3,0,0.5,0c0.6,0.5,1.3,0.8,1.9,0.8c0.5,0,0.2-0.6-0.2-1.2    c0.4-0.2,0.9-0.4,1.2-0.7c0.8,0.4,1.6,0.6,2.4,0.6c0.2,0,0.5,0,0.7,0c0.1,0,0.2,0,0.3,0c0.2,0.3,0.4,0.6,0.7,0.9    c-0.1,0-0.2,0.1-0.3,0.1c-0.1,0-0.3-0.1-0.4-0.1c-0.5,0-0.5,0.4-0.4,0.7c-0.1,0.2-0.2,0.5-0.1,0.8c0.2,1,0.5,1.9,1,2.8    c-0.5,0-1.2,0.2-1,0.7c0.4,1,1.1,1.9,1.9,2.5c0,0,0,0,0,0c0.2,0.4,0.6,0.5,0.9,0.6c0.1,0,0.2,0.1,0.3,0.1c0.1,1.2,2.1,2.8,2.6,1.6    c0.1-0.4,0.2-0.7,0.1-1.1c0.1,0,0.2,0,0.3-0.1c0.2,0.2,0.5,0.4,0.8,0.5c0,0,0.1,0,0.1,0c0.1,0.2,0.2,0.5,0.3,0.7    c0.2,0.2,0.4,0.4,0.7,0.4c0.3,0,0.7-0.1,1-0.1c0.2,0,0.4-0.1,0.6-0.2c0.1,0.3,0.3,0.6,0.6,0.8c0,1.9-0.4,3.8-0.4,5.7    c0.1,2.2,0.2,4.5,0.5,6.7h-18.5c0.5-4.6,0.8-9.2,0.9-13.8C1491.6,468.5,1491,465.2,1491,461.8z M1466.7,465.6    c0.2-0.1,0.5-0.2,0.7-0.3c0.1,0,0.4-0.2,0.7-0.4c0.7,0.1,1.5,0.1,2.2,0.1c0.8,0.5,1.8,0.6,2.7,0.5c0.9-0.1,1.6-0.8,1.8-1.7    c0.5-0.3,0.9-0.6,1.4-0.9c0.3-0.1,0.6-0.3,0.8-0.5c0.2-0.1,0.3-0.3,0.3-0.5c0.1-0.1,0.2-0.2,0.3-0.4c0.1-0.1,0.2-0.3,0.3-0.4    c0.1-0.2,0.2-0.3,0.3-0.5c0.2,0.2,0.4,0.4,0.8,0.6c0.4,1,1.6,1.7,2.6,1.8c0.3,0,0.6,0,1,0c0.7,0,1.4-0.2,2-0.5    c0.1-0.1,0.3-0.2,0.4-0.2c0.1,0,0.1,0.1,0.2,0.1c0.7,0.3,1.3,0.5,2,0.6c0.1,2.8,0.4,5.5,0.4,8.3c-0.1,4.8-0.4,9.7-0.9,14.5h-19.2    c-0.6-4-0.9-8.1-1-12.1C1466.2,470.9,1466.7,468.2,1466.7,465.6z M1455,464.4c0.2-0.5,0.2-1.1,0.2-1.7c0.2,0,0.3,0,0.5-0.1    c0.4,0.3,0.8,0.5,1.2,0.7c0.1,0,0.1,0,0.2,0.1c0.1,0.3,0.3,0.7,0.5,1c0.2,0.3,0.6,0.6,1,0.6c0.5,0,1-0.1,1.5-0.2    c0.3-0.1,0.6-0.2,1-0.2c0.2,0.4,0.5,0.9,0.9,1.2c0,2.8-0.6,5.6-0.5,8.4c0.1,3.8,0.4,7.7,1,11.6h-10.1V464    C1453.3,464.9,1454.6,465.4,1455,464.4z M1270.6,436c0.1,0,0.2,0,0.3-0.1v0.7c-0.1,0-0.3-0.1-0.4-0.1c-0.1,0-0.2,0-0.3,0    C1270.4,436.4,1270.5,436.2,1270.6,436z M1265.4,476.4c0-2.5-0.4-5-0.3-7.4c0.2,0.2,0.5,0.3,0.9,0.3c0.1,0,0.2,0,0.4,0    c0.5,0.4,1,0.6,1.4,0.6c0.4,0,0.2-0.4-0.2-0.9c0.3-0.1,0.6-0.3,0.9-0.5c0.6,0.3,1.2,0.4,1.7,0.4c0.2,0,0.3,0,0.5,0    c0,0,0.1,0,0.1,0v16.9h-6C1265.1,482.6,1265.3,479.5,1265.4,476.4z M1163.4,465.5c0.3,0.2,0.7,0.3,1.1,0.3c0.1,0,0.3,0,0.4,0    c0.6,0.4,1.1,0.7,1.7,0.7c0.5,0,0.2-0.5-0.2-1.1c0.4-0.2,0.8-0.4,1.1-0.6c0.3,0.1,0.6,0.3,0.9,0.4c0.1,0.4,0.3,0.7,0.5,1.1    c-0.5,0-1.2,0.2-1,0.7c0.4,1,1.1,1.9,1.9,2.5c0,0,0,0,0,0c0.2,0.4,0.6,0.5,0.9,0.6c0.1,0,0.2,0.1,0.3,0.1c0.1,1.2,2.1,2.8,2.6,1.6    c0.1-0.4,0.2-0.8,0.1-1.1c0.1,0,0.2,0,0.3-0.1c0.1,0.1,0.1,0.1,0.2,0.1v14.8h-11.2c0.4-3.8,0.6-7.5,0.7-11.3    C1163.9,471.5,1163.4,468.5,1163.4,465.5z M1146.3,445.1c-0.1,0.1-0.2,0.1-0.2,0.2c0,0-0.1,0-0.1-0.1    C1146.1,445.2,1146.2,445.2,1146.3,445.1z M1144.6,450c-0.2,0.4-0.3,0.8-0.2,1.2c0.2,0.8,0.7,1.2,1.4,1.5c-0.2,0.4-0.1,1,0.1,1.5    c0.3,0.7,0.9,1.3,1.6,1.7c-0.7,0.2-1.2,0.5-0.5,1.2c0.7,0.6,1.6,0.9,2.5,1.1c0,0,0,0,0,0c0,0.1-0.1,0.1-0.1,0.2    c-0.7,0.1-0.8,0.3-0.3,0.6c-0.1,0.3-0.2,0.6-0.2,0.9c-0.1,0.6,0.1,1.2,0.4,1.6c0,0,0,0,0,0c0,0,0,0,0,0c0.1,0.2,0.2,0.3,0.4,0.5    l0,0c0.1,0.1,0.1,0.2,0.2,0.3c0.3,0.4,1.1,0.7,1.5,0.8c0.2,0,0.3,0,0.5,0c-0.3,0.9-0.1,1.7,0.9,2.1c0.3,0.9,1.4,1.5,2.3,1.6    c0.3,0,0.6,0,0.8,0c0.6,0,1.2-0.2,1.7-0.5c0.1-0.1,0.2-0.1,0.3-0.2c0.1,0,0.1,0.1,0.2,0.1c0.6,0.3,1.1,0.4,1.8,0.5    c0.1,2.4,0.4,4.9,0.3,7.3c-0.1,3.9-0.3,7.9-0.7,11.9h-15.4v-35.9C1144.2,449.9,1144.4,450,1144.6,450z M1061.2,476.4    c0-2.5-0.4-5-0.3-7.4c0.2,0.2,0.5,0.3,0.9,0.3c0.1,0,0.2,0,0.4,0c0.5,0.4,1,0.6,1.4,0.6c0.4,0,0.2-0.4-0.2-0.9    c0.3-0.1,0.6-0.3,0.9-0.5c0.6,0.3,1.2,0.4,1.7,0.4c0.2,0,0.3,0,0.5,0c0.4,0,0.7-0.2,0.7-0.6c0-0.2-0.1-0.4-0.1-0.6    c0.4,0.1,0.8,0.2,1.2,0.2c0.3,0,0.7,0,1,0c0.1,0,0.2,0,0.3,0v17.9h-9.1C1061,482.6,1061.2,479.5,1061.2,476.4z M1023.1,446.7    c0.2,0.2,0.4,0.5,0.6,0.7c-0.2-0.1-0.4-0.1-0.5-0.2c0,0,0,0,0,0L1023.1,446.7C1023.1,446.7,1023.1,446.7,1023.1,446.7z     M862.8,476.4c0-2.5-0.4-5-0.3-7.4c0.2,0.2,0.5,0.3,0.9,0.3c0.1,0,0.2,0,0.4,0c0.5,0.4,1,0.6,1.4,0.6c0.4,0,0.2-0.4-0.2-0.9    c0.3-0.1,0.6-0.3,0.9-0.5c0.6,0.3,1.2,0.4,1.7,0.4c0.2,0,0.3,0,0.5,0c0.4,0,0.7-0.2,0.7-0.6c0-0.2-0.1-0.4-0.1-0.6    c0.4,0.1,0.8,0.2,1.2,0.2c0.3,0,0.7,0,1,0c0.1,0,0.1,0,0.2,0v17.9h-8.9C862.6,482.6,862.8,479.5,862.8,476.4z M831.3,484.7    c0.2,0.1,0.3,0.3,0.5,0.4c0.8,0.6,1.6,0.6,2.5,0.7h-2.9c-0.2-0.3-0.5-0.8-0.9-1.3C830.7,484.5,831,484.6,831.3,484.7z     M828.6,485.6c0.5,0.1,0.9,0.1,1.4,0.2h-1.4C828.6,485.7,828.6,485.6,828.6,485.6z M820.2,485.5c0.1,0.1,0.1,0.2,0.2,0.2h-2.6    c0.1-0.1,0.3-0.2,0.4-0.2C818.6,485.8,819.5,485.7,820.2,485.5z M814.6,485.7h-1c0.4-0.2,0.8-0.3,1.1-0.5    C814.6,485.4,814.6,485.6,814.6,485.7z M805.4,467.1C805.3,467.1,805.3,467.1,805.4,467.1c-0.1,0-0.1-0.1-0.2-0.1l0,0    C805.2,467,805.3,467.1,805.4,467.1C805.4,467.1,805.4,467.1,805.4,467.1z M807.8,470.1C807.8,470.1,807.8,470.1,807.8,470.1    c-0.1-0.1-0.1-0.1-0.1-0.1C807.8,470,807.8,470.1,807.8,470.1C807.8,470.1,807.8,470.1,807.8,470.1z M804.9,466.6    c0,0.1,0.1,0.2,0.2,0.2l-0.3-0.2C804.8,466.7,804.8,466.6,804.9,466.6z M801,482.4c0.3,0,0.6,0.1,0.9,0.1c0.6,0.1,1.4-0.2,1.1-0.9    c-0.1-0.2-0.3-0.5-0.4-0.7c0,0,0.1,0,0.1,0c0.4,0,0.9-0.3,0.8-0.7c0-0.1,0-0.1-0.1-0.2h0c0.4,0,1.1-0.4,0.7-0.9    c-0.1-0.1-0.2-0.3-0.3-0.4c0.1-0.1,0.1-0.2,0.1-0.4c-0.3-0.9-0.8-0.9-0.5-1.1c0.3,0.1,0.7,0.2,1.2,0.3c0.6,0.1,2.3-0.3,1.3-1.1    c-0.1-0.1-0.3-0.2-0.4-0.3c0.2-0.2,0.4-0.4,0.1-0.7c0,0,0,0,0,0c0.6,0,1.6-0.2,1-0.9c-0.4-0.5-0.7-0.8-1.1-1.2    c0.1-0.1,0.2-0.1,0.3-0.2c0.2,0,0.4,0,0.7,0c0.3,0,0.5-0.1,0.6-0.3c0.2,0,0.5,0.1,0.7,0.1c0,0,0,0,0,0c-0.3,0.4-0.1,0.7,0.2,0.9    c-0.2,0.1-0.4,0.3-0.5,0.4c-1.3,1,0.9,1.5,1.6,1.4c0.6-0.1,1.1-0.3,1.5-0.4c0.3,0.2-0.3,0.3-0.7,1.4c-0.1,0.2,0,0.4,0.1,0.5    c-0.1,0.2-0.3,0.3-0.4,0.5c-0.5,0.6,0.4,1.2,0.9,1.2h0c0,0.1,0,0.2-0.1,0.2c-0.2,0.6,0.6,0.9,1,0.9c0,0,0.1,0,0.1,0    c-0.2,0.3-0.3,0.5-0.5,0.8c-0.5,0.9,0.6,1.3,1.4,1.2c0.5,0,0.8-0.1,1.2-0.2c0.2,0.4,0.6,0.6,1.1,0.6c-1.2,0.6-2.4,1.4-3.7,2.2    c-0.7,0.5-0.8,0.9-0.5,1.1h-7.4c0.5-0.2,0.7-0.6-0.1-1.1c-1-0.7-1.9-1.3-2.9-1.7C800.5,482.8,800.8,482.7,801,482.4z M800.1,485.1    c0.5,0.2,1,0.4,1.5,0.6h-1.4C800.3,485.6,800.3,485.4,800.1,485.1z M795.8,485.3c0.5,0.2,1.2,0.2,1.5,0c0.2,0.1,0.4,0.3,0.7,0.4    c0,0,0,0,0,0h-2.6C795.6,485.6,795.7,485.4,795.8,485.3z M785.3,483.4c-0.5,0.4-0.9,0.8-1.3,1.3c-1.3-0.9-2.6-1.7-4-2.4    c0.6,0,1.1-0.2,1.3-0.7c0.4,0.1,0.9,0.1,1.4,0.2c0.8,0.1,2.1-0.3,1.6-1.4c-0.1-0.1-0.1-0.2-0.2-0.4c1,0.2,1.9,0.5,2.9,0.7    c-0.1,0.1-0.1,0.3-0.1,0.3c0.2,0,0.3,0.1,0.5,0.1c-0.4,0.1-0.9,0.2-1.3,0.2c-0.7,0-1.8,2-1.7,2H785.3z M783.7,479.4    c0.1,0,0.1,0,0.2,0c0,0,0.1,0,0.1,0c-0.1,0.1-0.1,0.2-0.2,0.2C783.8,479.5,783.8,479.5,783.7,479.4z M780.1,485.7    C780.1,485.7,780.1,485.7,780.1,485.7L780.1,485.7C780.1,485.7,780.1,485.7,780.1,485.7z M785,485.5c0.6,0,1.2-0.1,1.8-0.5    c0.1-0.1,0.3-0.2,0.4-0.3c0.2-0.1,0.4-0.1,0.7-0.2c-0.4,0.6-0.8,1.2-0.8,1.2c0.9-0.2,1.8-0.2,2.7-0.3c0.2,0.2,0.4,0.3,0.7,0.4    h-5.3C785.1,485.6,785,485.6,785,485.5z M761.6,484.7c-0.3,0.4-0.5,0.7-0.7,1h-1.2c0.1-0.1,0.3-0.1,0.4-0.2    c0.2-0.1,0.4-0.3,0.6-0.5C760.9,484.9,761.3,484.8,761.6,484.7z M757.8,452.6C757.8,452.6,757.7,452.6,757.8,452.6    C757.7,452.6,757.7,452.6,757.8,452.6C757.7,452.6,757.7,452.6,757.8,452.6z M744.8,476.2c0-2.5-0.4-5-0.3-7.6    c0.3,0.2,0.6,0.3,0.9,0.3c0.1,0,0.3,0,0.4,0c0.5,0.4,1,0.6,1.4,0.6c0.4,0,0.2-0.5-0.2-0.9c0.3-0.1,0.7-0.3,0.9-0.5    c0.5,0.2,1.1,0.4,1.6,0.4c-0.5,0.6-0.9,1.2-0.7,1.3c0.8,0.4,1.7,0.8,2.5,1.1c-0.2,0.3-0.3,0.5-0.2,0.5c0.9-0.1,1.9,0,2.8,0.1    c-0.1,0.1-0.1,0.2,0,0.2h1c-0.7,0.8-1.6,1.8-1.2,1.9c0.9,0.1,1.6,0.2,2.4,0.1c0,0,0,0,0,0c0.7,0.2,1.3,0.4,2,0.6    c-0.4,0.4-0.7,0.8-0.8,1.1c-0.9,0.8-1.9,2.5-1.9,2.5c1.7,0.4,3.3,0.8,5,1.1c-0.1,0.2-0.2,0.4-0.2,0.4c0.2,0,0.5,0.1,0.7,0.2    c-0.6,0.1-1.3,0.3-1.9,0.4c-1,0.1-2.7,3-2.6,3h1.4c-0.9,0.7-1.6,1.5-2.3,2.4c0,0-0.1,0.1-0.2,0.2h-11.2    C744.6,482.5,744.8,479.3,744.8,476.2z M682.1,465.2C682.2,465.2,682.2,465.2,682.1,465.2c0,0.1,0,0.2-0.1,0.3    C682.1,465.4,682.1,465.3,682.1,465.2C682.1,465.2,682.1,465.2,682.1,465.2z M673.3,473c0.1-0.1,0.3-0.1,0.4-0.2    c0,0,0.2-0.1,0.4-0.2c0.4,0,0.9,0.1,1.3,0.1c0.5,0.3,1,0.4,1.6,0.3c0.5-0.1,0.9-0.5,1-1c0.3-0.2,0.6-0.3,0.8-0.6    c0.2-0.1,0.3-0.2,0.5-0.3c0.1-0.1,0.2-0.2,0.2-0.3c0.1-0.1,0.1-0.1,0.2-0.2c0.1-0.1,0.1-0.2,0.2-0.2c0.3-0.3,0.3-0.8,0.1-1.1    c0-0.1,0-0.2,0-0.3c0-0.2-0.1-0.2-0.2-0.3c0.9-0.8,1.6-1.8,2.2-3c0-0.1,0-0.1,0.1-0.2c-0.1,0.6,0.5,1.1,1.3,1.2    c0.4,0,0.7,0.1,1.1,0.1c0.1,0.2,0.3,0.3,0.4,0.4c-0.6,0.5-1.2,1.2-1.8,1.9c-0.9,1.1,0.7,1.4,1.7,1.5c0,0,0,0,0,0    c-0.4,0.5-0.2,0.9,0.2,1.2c-0.2,0.2-0.5,0.4-0.7,0.6c-1.7,1.4,1.1,2,2.1,1.8c0.8-0.2,1.4-0.3,2-0.5c0.4,0.3-0.4,0.3-0.9,1.8    c-0.1,0.3,0,0.5,0.1,0.7c-0.2,0.2-0.3,0.4-0.5,0.6c-0.6,0.8,0.5,1.5,1.2,1.5h0c0,0.1-0.1,0.2-0.1,0.3c-0.2,0.8,0.8,1.2,1.4,1.2    c0.1,0,0.1,0,0.2,0c-0.2,0.3-0.4,0.7-0.6,1.1c-0.6,1.2,0.8,1.6,1.8,1.5c0.6-0.1,1.1-0.1,1.5-0.2c0.2,0.5,0.8,0.7,1.4,0.8    c-1.4,0.7-2.8,1.6-4.3,2.6h-15.9c0.1-0.1,0.1-0.1,0.1-0.2c-0.4-2.6-0.6-5.2-0.6-7.7C673,476.2,673.3,474.6,673.3,473z     M657.2,468.8c0.2,0.2,0.5,0.3,0.8,0.3c0.1,0,0.2,0,0.3,0c0.4,0.3,0.9,0.6,1.3,0.6c0.4,0,0.1-0.4-0.2-0.8c0.3-0.1,0.6-0.3,0.9-0.5    c0.5,0.2,0.9,0.4,1.4,0.4c0.3,0.6,0.8,1.2,1.4,1.6c0,0,0,0,0,0c0.2,0.3,0.5,0.5,0.8,0.5c0.1,0,0.2,0.1,0.2,0.1    c0.1,1,1.8,2.4,2.2,1.4c0.1-0.3,0.1-0.7,0.1-1c0.1,0,0.2,0,0.3,0c0.2,0.2,0.5,0.3,0.7,0.4c0,0,0.1,0,0.1,0    c0.1,0.2,0.2,0.4,0.3,0.6c0.1,0.2,0.4,0.3,0.6,0.4c0.3,0,0.6,0,0.9-0.1c0.2,0,0.4-0.1,0.6-0.1c0.1,0.3,0.3,0.5,0.5,0.7    c0,1.7-0.4,3.3-0.3,5c0.1,2.5,0.3,4.9,0.6,7.4c0,0.1,0.1,0.2,0.2,0.2h-14.2c0.4-3.3,0.6-6.6,0.6-9.9    C657.5,473.5,657.1,471.1,657.2,468.8z M640.1,468.9c0.2-0.1,0.4-0.2,0.6-0.2c0.1,0,0.3-0.1,0.6-0.3c0.6,0.1,1.2,0.1,1.8,0.1    c0.6,0.4,1.5,0.5,2.2,0.4c0.8-0.1,1.3-0.7,1.5-1.4c0.3-0.2,0.7-0.4,1-0.7c0,0,0.1,0,0.1,0c0.1,0,0.2,0,0.4,0    c-0.2,0.7-0.1,1.3,0.7,1.6c0.3,0.7,1.1,1.2,1.8,1.2c0.2,0,0.4,0,0.7,0c0.5,0,0.9-0.2,1.3-0.4c0.1,0,0.2-0.1,0.3-0.2    c0,0,0.1,0,0.1,0.1c0.4,0.2,0.9,0.3,1.4,0.4c0,1.9,0.3,3.8,0.3,5.7c-0.1,3.5-0.3,6.9-0.7,10.4h-12.2l0-0.1h0    c-0.5-3.8-1.2-6.9-2.1-9.6c0-0.1,0-0.3,0-0.4C639.7,473.3,640.1,471.1,640.1,468.9z M499.1,485.7c0.4-2.7,0.9-5.3,1.4-7.7h44.6    c-0.5,2.4-1,5-1.4,7.7H499.1z M503.3,469.1h14.9l-16.8,5.6C502,472.7,502.6,470.8,503.3,469.1z M568.4,454.2    c0.7,0.3,1.5,0.7,2.2,1.2l-5.8,1.5C566,455.8,567.2,454.9,568.4,454.2z M572.7,457.1c0.3,0.3,0.6,0.6,0.9,0.9h-5l4-1    C572.6,457.1,572.7,457.1,572.7,457.1z M635.9,479.6l-33-5.2c0.5-1.9,1.1-3.7,1.8-5.4h0V469c0.1-0.2,0.1-0.3,0.2-0.5l30.9,4.8    c0,0.1,0,0.1,0.1,0.2c-0.1,0.8-0.1,1.7-0.1,2.5C635.8,477.2,635.8,478.4,635.9,479.6z M623.6,462.2c0.5,1.1,1.2,2.1,2.2,2.8    c0,0,0,0,0,0c0.3,0.4,0.7,0.7,1.2,0.7c0.1,0.1,0.2,0.1,0.3,0.1c0.2,1.4,2.6,3.4,3.2,2c0.2-0.4,0.2-0.9,0.2-1.4    c0.1,0,0.3,0,0.4-0.1c0.3,0.3,0.7,0.5,1,0.6c0.1,0,0.1,0,0.2,0c0.1,0.3,0.2,0.6,0.4,0.8c0.2,0.3,0.5,0.5,0.9,0.5    c0.2,0,0.4,0,0.5,0c0.3,0.7,0.6,1.4,0.9,2.2L606,466c1-2.2,2.2-4.2,3.4-5.9h0v0c0,0,0,0,0.1-0.1L623.6,462.2z M603.3,465.5    l-17.5-5.4h20.3C605.1,461.7,604.2,463.6,603.3,465.5z M553.3,485.7c0.4-2.7,0.9-5.2,1.4-7.6l29.8,4.7c0.2,0.9,0.4,1.9,0.6,3    H553.3z M580.6,470.5l-2.9-0.5l1.3-0.4l1.5,0.5C580.5,470.3,580.6,470.4,580.6,470.5z M572.1,469.2l-0.7-0.1h1L572.1,469.2z     M566.7,471l-11.1,3.7c0.5-1.8,1.1-3.5,1.7-5.2L566.7,471z M552.8,475.1l-4.1-0.6c0.5-1.9,1.1-3.7,1.8-5.4h0V469    c0.1-0.2,0.1-0.3,0.2-0.5l3.9,0.6c-0.6,1.7-1.2,3.4-1.7,5.2C552.9,474.6,552.9,474.9,552.8,475.1z M583.8,480l-12.4-1.9h11.8    C583.4,478.7,583.6,479.3,583.8,480z M561.7,475.4l10.6-3.6l9.3,1.5c0.2,0.5,0.3,1,0.5,1.5c0.1,0.2,0.1,0.4,0.2,0.6H561.7z     M583.9,471.3l12.4,4.1h-10.9C584.9,474,584.4,472.6,583.9,471.3z M585.5,469.1H602c-0.6,1.6-1.1,3.2-1.6,5L585.5,469.1z     M598.6,466.6h-16.7c-0.1-0.2-0.2-0.4-0.2-0.6c-0.7-1.5-1.4-2.9-2.1-4.3l1.8-0.5L598.6,466.6z M577.4,463.5c0.6,1,1.1,2,1.6,3.1    H564l11.2-3.5L577.4,463.5z M575.3,460.1c0.1,0.1,0.2,0.2,0.3,0.4l-0.2,0.1l-2.7-0.4H575.3z M569.7,462.3l-10.8,3.4    c0.8-1.7,1.7-3.3,2.6-4.6L569.7,462.3z M555.6,466.6l-3.8-0.6c1-2.2,2.2-4.2,3.4-5.9h0v0c0,0,0,0,0-0.1l3.4,0.5    C557.5,462.4,556.5,464.4,555.6,466.6z M549.1,465.5l-17.5-5.4h20.3C550.9,461.7,550,463.6,549.1,465.5z M531.3,469.1h16.4    c-0.6,1.6-1.1,3.2-1.6,5L531.3,469.1z M542.1,475.4h-34.6l17.3-5.8L542.1,475.4z M544.4,466.6h-34.6l17.3-5.4L544.4,466.6z     M548.1,477l4.1,0.6c-0.6,2.6-1.1,5.2-1.4,8h-4.3C546.8,482.7,547.4,479.8,548.1,477z M587.6,485.7l0-0.1h0    c-0.4-2.9-0.9-5.3-1.5-7.6h13.2c-0.6,2.4-1,5-1.4,7.7H587.6z M602.3,477l33.9,5.3c0.1,1.1,0.2,2.3,0.4,3.4h-36    C601,482.7,601.6,479.8,602.3,477z M619.2,453.6c1.7,0,3.4,0.5,5.1,1.5c0.2,0.2,0.3,0.4,0.5,0.6c-0.1,0-0.2,0.1-0.3,0.1    c-0.2,0-0.3-0.1-0.5-0.1c-0.7,0-0.6,0.5-0.4,0.9c-0.1,0.3-0.2,0.6-0.1,0.9c0.1,0.7,0.3,1.4,0.6,2l-12.6-2c0.1-0.1,0.2-0.2,0.3-0.3    C614,454.9,616.6,453.6,619.2,453.6z M611.8,453.4c-0.6,0.5-1.2,1-1.8,1.6c-0.6,0.7-1.3,1.4-1.8,2.2l-14.6-3.8L611.8,453.4z     M603.2,458.1h-26c-0.5-0.6-1-1.3-1.5-1.8l10.2-2.7L603.2,458.1z M578.1,453.4l-4.1,1.1c-0.4-0.4-0.8-0.7-1.2-1.1L578.1,453.4z     M564.3,453.6c-0.5,0.4-1.1,0.9-1.6,1.4c-0.9,0.9-1.7,2-2.6,3.1l-3-0.5c0.1-0.1,0.2-0.2,0.3-0.3    C559.6,455.1,561.9,453.9,564.3,453.6z M557.6,453.4c-0.6,0.5-1.2,1-1.8,1.6c-0.6,0.7-1.3,1.4-1.9,2.2l-14.6-3.8L557.6,453.4z     M549,458.1h-34.6l17.3-4.5L549,458.1z M516.2,453.5l7.7,0l-13.3,3.4C512.4,455.2,514.2,453.9,516.2,453.5z M522.5,460.1    l-17.8,5.5c0,0,0,0,0,0c0.1,0,0.1-0.1,0.2-0.1c0.2-0.2,0.4-0.5,0.5-0.8v-0.1c0,0,0,0,0-0.1c0.3-0.2,0.5-0.4,0.6-0.8    c0-0.1,0-0.3-0.1-0.4c0.6-1.2,1.3-2.3,2-3.2H522.5z M500.9,468c0,0.1-0.1,0.3-0.2,0.4c0-0.2-0.1-0.3-0.1-0.5    C500.7,468,500.8,468,500.9,468z M494.7,469.2c0.2,0.2,0.5,0.3,0.8,0.3c0.1,0,0.2,0,0.3,0c0.4,0.3,0.9,0.6,1.3,0.6    c0.4,0,0.1-0.4-0.2-0.8c0.3-0.1,0.6-0.3,0.9-0.5c0.5,0.2,1.1,0.4,1.6,0.4c0.2,0,0.3,0,0.5,0c0.2,0,0.4-0.1,0.5-0.2    c-0.6,1.7-1.2,3.6-1.7,5.5c-1,3.5-1.7,7.3-2.3,11.4h-2.1c0.3-3.2,0.6-6.4,0.6-9.6C495.1,473.8,494.7,471.5,494.7,469.2z     M492.2,475.6c-0.1,3.3-0.3,6.7-0.6,10.1h-9.9c-0.3-2.5-0.5-4.9-0.5-7.4c0-1.8,0.3-3.7,0.3-5.5c0.2-0.1,0.3-0.1,0.5-0.2    c0,0,0.2-0.1,0.5-0.2c0.5,0,1,0.1,1.5,0.1c0.5,0.3,1.2,0.4,1.8,0.4c0.6-0.1,1.1-0.6,1.2-1.2c0.3-0.2,0.6-0.4,0.9-0.6    c0.2-0.1,0.4-0.2,0.6-0.3c0.1-0.1,0.2-0.2,0.2-0.4c0.1-0.1,0.1-0.2,0.2-0.2c0,0,0,0,0-0.1l0,0c0.5,0,0.9-0.2,1.3-0.4    c0.1,0,0.2-0.1,0.3-0.2c0,0,0.1,0.1,0.1,0.1c0.4,0.2,0.9,0.3,1.4,0.4C492,471.8,492.2,473.7,492.2,475.6z M401.5,465.5    c0.2-0.1,0.5-0.2,0.7-0.3c0.1,0,0.4-0.2,0.7-0.4c0.7,0.1,1.5,0.1,2.2,0.1c0.6,0.4,1.3,0.5,2,0.6v20.2h-5c-0.6-4.1-0.9-8.2-1-12.2    C401,470.8,401.5,468.1,401.5,465.5z M379.3,462.4c0.5,0,0.9,0,1.4,0c1.1,0,3.2-0.5,3.2-1.9c0.1,0.1,0.2,0.2,0.3,0.3c0,0,0,0,0,0    c0.3,0.5,0.8,0.8,1.4,0.9c0.1,0.1,0.3,0.1,0.4,0.2c0.2,1.7,3.1,4.1,3.8,2.4c0.2-0.5,0.2-1.1,0.2-1.7c0.2,0,0.3,0,0.5-0.1    c0.4,0.3,0.8,0.5,1.2,0.7c0.1,0,0.1,0,0.2,0.1c0.1,0.3,0.3,0.7,0.5,1c0.2,0.3,0.6,0.6,1,0.6c0.5,0,1-0.1,1.5-0.2    c0.3-0.1,0.6-0.2,1-0.3c0.2,0.4,0.5,0.9,0.9,1.2c0,2.8-0.6,5.6-0.5,8.4c0.1,3.9,0.4,7.8,1,11.7h-11.9v-17.2l-7.5-5.6    c0-0.3-0.1-0.5-0.2-0.7C378.2,462.3,378.8,462.4,379.3,462.4z M349.7,440.8c-0.1,0.1-0.2,0.1-0.3,0.2c0,0-0.1,0-0.1-0.1    C349.4,440.9,349.5,440.8,349.7,440.8z M67.1,447.2c0,0.1,0,0.1,0.1,0.2c0.2,0.2,0.4,0.5,0.6,0.8c-0.2-0.1-0.4-0.1-0.6-0.2    c0,0-0.3-0.1-0.6-0.1c0-0.1,0.1-0.2,0.1-0.3C66.9,447.5,67.1,447.4,67.1,447.2z M66.4,448.5c0.2,0.3,0.4,0.5,0.6,0.7    c-0.1,0.1-0.2,0.3-0.2,0.4c-0.3-0.1-0.6-0.1-0.9-0.1c-0.1,0-0.2-0.1-0.3-0.1C65.9,449.1,66.2,448.8,66.4,448.5z M51.4,474.2    c0.1-3-0.5-5.9-0.4-8.9c0.3,0.2,0.7,0.3,1.1,0.3c0.1,0,0.3,0,0.4,0c0.6,0.4,1.1,0.7,1.7,0.7c0.5,0,0.2-0.5-0.2-1.1    c0.4-0.2,0.8-0.4,1.1-0.6c0.7,0.3,1.4,0.5,2.1,0.5c0.2,0,0.4,0,0.6,0c0.4,0,0.9-0.3,0.9-0.8c0-0.2-0.1-0.5-0.2-0.7    c0.5,0.1,1,0.2,1.5,0.2c0.2,0,0.4,0,0.6,0c0,0,0,0.1,0,0.1c-0.1,0.2-0.2,0.5-0.1,0.8c0.2,1,0.5,2,1,2.8c-0.5,0-1.2,0.2-1,0.7    c0.4,1,1.1,1.9,1.9,2.5c0,0,0,0,0,0c0.2,0.4,0.6,0.5,0.9,0.6c0.1,0,0.2,0.1,0.3,0.1c0.1,1.2,2.1,2.8,2.6,1.6    c0.1-0.4,0.2-0.8,0.1-1.1c0.1,0,0.2,0,0.3-0.1c0.2,0.2,0.5,0.4,0.8,0.5c0,0,0.1,0,0.1,0c0.1,0.2,0.2,0.5,0.3,0.7    c0.2,0.2,0.4,0.4,0.7,0.4c0.3,0,0.7-0.1,1-0.1c0.2,0,0.4-0.1,0.6-0.2c0.1,0.3,0.3,0.6,0.6,0.8c0,1.9-0.4,3.8-0.4,5.7    c0,2,0.2,4,0.4,6H50.7C51.1,481.9,51.4,478,51.4,474.2z"/>
	</g>
</g>
</svg>